<svg xmlns="http://www.w3.org/2000/svg"  viewBox="0 0 48 48" width="144px" height="144px"><path fill="#ffffff" d="M 30.642578 3.2597656 C 28.889078 3.2496875 27.215016 4.2719688 26.478516 5.9804688 L 21.300781 18 L 17.695312 18 C 16.975872 14.612615 14.093388 12 10.5 12 C 6.3754991 12 3 15.375499 3 19.5 C 3 23.624501 6.3754991 27 10.5 27 L 40.5 27 C 42.967501 27 45 24.967501 45 22.5 L 45 19.5 A 1.50015 1.50015 0 0 0 43.5 18 L 31.099609 18 L 35.929688 6.7851562 C 36.087688 6.4191562 36.093313 6.0067188 35.945312 5.6367188 C 35.798313 5.2677188 35.511484 4.9714531 35.146484 4.8144531 L 32.390625 3.6269531 C 31.820625 3.3817031 31.227078 3.263125 30.642578 3.2597656 z M 30.613281 6.2617188 C 30.811281 6.2617188 31.010125 6.2998125 31.203125 6.3828125 L 32.580078 6.9765625 L 27.833984 18 L 24.566406 18 L 29.232422 7.1679688 C 29.476422 6.6009687 30.031281 6.2617187 30.613281 6.2617188 z M 10.5 15 C 13.003499 15 15 16.996501 15 19.5 A 1.50015 1.50015 0 0 0 16.5 21 L 42 21 L 42 22.5 C 42 23.346499 41.346499 24 40.5 24 L 10.5 24 C 7.9965009 24 6 22.003499 6 19.5 C 6 16.996501 7.9965009 15 10.5 15 z M 10.5 17 A 2.5 2.5 0 0 0 10.5 22 A 2.5 2.5 0 0 0 10.5 17 z M 16.564453 29 L 14.611328 33.533203 C 14.205328 34.476203 14 35.474 14 36.5 C 14 40.636 17.364 44 21.5 44 C 25.636 44 29 40.636 29 36.5 C 29 34.014 27.774203 31.72875 25.783203 30.34375 L 26.363281 29 L 23.097656 29 L 22.496094 30.396484 C 22.168094 31.157484 22.519297 32.040187 23.279297 32.367188 C 24.932297 33.079187 26 34.702 26 36.5 C 26 38.981 23.981 41 21.5 41 C 19.019 41 17 38.981 17 36.5 C 17 35.885 17.124188 35.285703 17.367188 34.720703 L 19.830078 29 L 16.564453 29 z M 21.5 34 A 2.5 2.5 0 0 0 21.5 39 A 2.5 2.5 0 0 0 21.5 34 z"/></svg>