<svg xmlns="http://www.w3.org/2000/svg"  viewBox="0 0 48 48" width="144px" height="144px"><path fill="#ffffff" d="M 19.5 5.7734375 A 1.5 1.5 0 0 0 19.5 8.7734375 A 1.5 1.5 0 0 0 19.5 5.7734375 z M 24.470703 5.7734375 A 1.5 1.5 0 0 0 24.470703 8.7734375 A 1.5 1.5 0 0 0 24.470703 5.7734375 z M 14.564453 7.8632812 A 1.50015 1.50015 0 0 0 13.748047 8.0742188 C 9.1143223 10.754803 6 15.774773 6 21.5 C 6 25.077188 7.2286303 28.372245 9.2714844 31 L 7.5 31 A 1.50015 1.50015 0 1 0 7.5 34 L 12.636719 34 A 1.50015 1.50015 0 0 0 13.087891 34 L 13.5 34 A 1.50015 1.50015 0 0 0 15 32.5 L 15 26.5 A 1.50015 1.50015 0 0 0 13.476562 24.978516 A 1.50015 1.50015 0 0 0 12 26.5 L 12 29.605469 C 10.134743 27.423871 9 24.604434 9 21.5 C 9 16.861227 11.515678 12.83329 15.251953 10.671875 A 1.50015 1.50015 0 0 0 14.564453 7.8632812 z M 29.5 8 A 1.50015 1.50015 0 0 0 28 9.5 L 28 9.7910156 A 1.50015 1.50015 0 0 0 28 10.207031 L 28 15.5 A 1.50015 1.50015 0 1 0 31 15.5 L 31 13.386719 C 32.866866 15.568402 34 18.392484 34 21.498047 C 34 24.921839 32.61642 28.00234 30.396484 30.255859 A 1.50015 1.50015 0 0 0 30.216797 30.443359 C 29.475052 31.165619 28.650559 31.806027 27.748047 32.328125 A 1.50015 1.50015 0 1 0 29.251953 34.923828 C 29.988025 34.498014 30.608684 33.920122 31.261719 33.382812 L 38.439453 40.560547 A 1.50015 1.50015 0 1 0 40.560547 38.439453 L 33.380859 31.259766 C 35.583524 28.580567 37 25.227748 37 21.498047 C 37 17.447246 35.422014 13.764475 32.869141 11 L 35.5 11 A 1.50015 1.50015 0 1 0 35.5 8 L 29.5 8 z M 18.529297 33.773438 A 1.5 1.5 0 0 0 18.529297 36.773438 A 1.5 1.5 0 0 0 18.529297 33.773438 z M 23.621094 33.773438 A 1.5 1.5 0 0 0 23.621094 36.773438 A 1.5 1.5 0 0 0 23.621094 33.773438 z"/></svg>