<svg xmlns="http://www.w3.org/2000/svg"  viewBox="0 0 48 48" width="144px" height="144px"><path fill="#ffffff" d="M 28.185547 6.0097656 C 24.903043 6.0097656 21.620652 7.2582543 19.125 9.7539062 L 10 18.878906 L 10 8.5 A 1.50015 1.50015 0 0 0 8.4765625 6.9785156 A 1.50015 1.50015 0 0 0 7 8.5 L 7 22.277344 A 1.50015 1.50015 0 0 0 8.7207031 24 L 22.5 24 A 1.50015 1.50015 0 1 0 22.5 21 L 12.121094 21 L 21.246094 11.875 C 25.09079 8.0303039 31.280304 8.0303039 35.125 11.875 C 38.969696 15.719696 38.969696 21.90921 35.125 25.753906 L 20.439453 40.439453 A 1.50015 1.50015 0 1 0 22.560547 42.560547 L 37.246094 27.875 C 42.237398 22.883696 42.237398 14.74521 37.246094 9.7539062 C 34.750442 7.2582544 31.468051 6.0097656 28.185547 6.0097656 z"/></svg>