<svg xmlns="http://www.w3.org/2000/svg"  viewBox="0 0 48 48" width="144px" height="144px"><path fill="#ffffff" d="M 10.5 5 C 7.4802259 5 5 7.4802259 5 10.5 L 5 32.5 C 5 35.519774 7.4802259 38 10.5 38 L 14.5 38 A 1.50015 1.50015 0 1 0 14.5 35 L 10.5 35 C 9.1017741 35 8 33.898226 8 32.5 L 8 10.5 C 8 9.1017741 9.1017741 8 10.5 8 L 34.5 8 C 35.898226 8 37 9.1017741 37 10.5 L 37 32.5 C 37 33.898226 35.898226 35 34.5 35 L 31.535156 35 L 25.162109 28.251953 L 23.039062 30.375 L 36.408203 44.529297 C 36.703203 44.842297 37.102 45 37.5 45 C 37.87 45 38.239297 44.864797 38.529297 44.591797 C 39.131297 44.021797 39.159797 43.072703 38.591797 42.470703 L 34.369141 38 L 34.5 38 C 37.519774 38 40 35.519774 40 32.5 L 40 10.5 C 40 7.4802259 37.519774 5 34.5 5 L 10.5 5 z M 11.160156 10 C 10.519156 10 10 10.520156 10 11.160156 L 10 11.839844 C 10 12.480844 10.520156 13 11.160156 13 L 11.839844 13 C 12.480844 13 13.000953 12.481797 13.001953 11.841797 L 13.001953 11.160156 C 13.001953 10.519156 12.481797 10 11.841797 10 L 11.160156 10 z M 33.160156 10 C 32.519156 10 32 10.520156 32 11.160156 L 32 11.839844 C 32 12.480844 32.520156 13 33.160156 13 L 33.839844 13 C 34.480844 13 35.000953 12.481797 35.001953 11.841797 L 35.001953 11.160156 C 35.001953 10.519156 34.481797 10 33.841797 10 L 33.160156 10 z M 23.476562 13.978516 A 1.50015 1.50015 0 0 0 22 15.5 L 22 16 L 21.5 16 A 1.50015 1.50015 0 1 0 21.5 19 L 22 19 L 22 19.5 A 1.50015 1.50015 0 1 0 25 19.5 L 25 19 L 25.5 19 A 1.50015 1.50015 0 1 0 25.5 16 L 25 16 L 25 15.5 A 1.50015 1.50015 0 0 0 23.476562 13.978516 z M 11.160156 15 C 10.519156 15 10 15.520156 10 16.160156 L 10 16.839844 C 10 17.480844 10.520156 18 11.160156 18 L 11.839844 18 C 12.480844 18 13.000953 17.481797 13.001953 16.841797 L 13.001953 16.160156 C 13.001953 15.519156 12.481797 15 11.841797 15 L 11.160156 15 z M 33.160156 15 C 32.519156 15 32 15.520156 32 16.160156 L 32 16.839844 C 32 17.480844 32.520156 18 33.160156 18 L 33.839844 18 C 34.480844 18 35.000953 17.481797 35.001953 16.841797 L 35.001953 16.160156 C 35.001953 15.519156 34.481797 15 33.841797 15 L 33.160156 15 z M 11.160156 20 C 10.519156 20 10 20.520156 10 21.160156 L 10 21.839844 C 10 22.480844 10.520156 23 11.160156 23 L 11.839844 23 C 12.480844 23 13.000953 22.481797 13.001953 21.841797 L 13.001953 21.160156 C 13.001953 20.519156 12.481797 20 11.841797 20 L 11.160156 20 z M 33.160156 20 C 32.519156 20 32 20.520156 32 21.160156 L 32 21.839844 C 32 22.480844 32.520156 23 33.160156 23 L 33.839844 23 C 34.480844 23 35.000953 22.481797 35.001953 21.841797 L 35.001953 21.160156 C 35.001953 20.519156 34.481797 20 33.841797 20 L 33.160156 20 z M 20.542969 24 C 20.159094 23.989375 19.771703 24.124703 19.470703 24.408203 C 18.868703 24.977203 18.840203 25.927297 19.408203 26.529297 L 21.666016 28.919922 L 23.789062 26.796875 L 21.591797 24.470703 C 21.307297 24.168703 20.926844 24.010625 20.542969 24 z M 11.160156 25 C 10.519156 25 10 25.520156 10 26.160156 L 10 26.839844 C 10 27.480844 10.520156 28 11.160156 28 L 11.839844 28 C 12.480844 28 13.000953 27.481797 13.001953 26.841797 L 13.001953 26.160156 C 13.001953 25.519156 12.481797 25 11.841797 25 L 11.160156 25 z M 33.160156 25 C 32.519156 25 32 25.520156 32 26.160156 L 32 26.839844 C 32 27.480844 32.520156 28 33.160156 28 L 33.839844 28 C 34.480844 28 35.000953 27.481797 35.001953 26.841797 L 35.001953 26.160156 C 35.001953 25.519156 34.481797 25 33.841797 25 L 33.160156 25 z M 11.160156 30 C 10.519156 30 10 30.520156 10 31.160156 L 10 31.839844 C 10 32.480844 10.520156 33 11.160156 33 L 11.839844 33 C 12.480844 33 13.000953 32.481797 13.001953 31.841797 L 13.001953 31.160156 C 13.001953 30.519156 12.481797 30 11.841797 30 L 11.160156 30 z M 33.160156 30 C 32.519156 30 32 30.520156 32 31.160156 L 32 31.839844 C 32 32.480844 32.520156 33 33.160156 33 L 33.839844 33 C 34.480844 33 35.000953 32.481797 35.001953 31.841797 L 35.001953 31.160156 C 35.001953 30.519156 34.481797 30 33.841797 30 L 33.160156 30 z M 21.476562 32.978516 A 1.50015 1.50015 0 0 0 20 34.5 L 20 35 L 19.5 35 A 1.50015 1.50015 0 1 0 19.5 38 L 20 38 L 20 38.5 A 1.50015 1.50015 0 1 0 23 38.5 L 23 38 L 23.5 38 A 1.50015 1.50015 0 1 0 23.5 35 L 23 35 L 23 34.5 A 1.50015 1.50015 0 0 0 21.476562 32.978516 z"/></svg>