<svg xmlns="http://www.w3.org/2000/svg" xmlns:xlink="http://www.w3.org/1999/xlink" width="700" zoomAndPan="magnify" viewBox="0 0 525 374.999991" height="500" preserveAspectRatio="xMidYMid meet" version="1.2"><defs><clipPath id="5b0963054d"><path d="M 254 49 L 356 49 L 356 336 L 254 336 Z M 254 49 "/></clipPath><clipPath id="b2fdbd10f3"><path d="M 357.296875 55.738281 L 283.097656 337.117188 L 252.5625 329.0625 L 326.761719 47.6875 Z M 357.296875 55.738281 "/></clipPath><clipPath id="0351215ba3"><path d="M 355.386719 62.992188 L 285.027344 329.792969 C 283.972656 333.800781 279.871094 336.191406 275.863281 335.132812 L 259.832031 330.90625 C 255.828125 329.851562 253.4375 325.746094 254.492188 321.742188 L 324.851562 54.9375 C 325.90625 50.933594 330.007812 48.542969 334.015625 49.597656 L 350.046875 53.824219 C 354.050781 54.882812 356.441406 58.984375 355.386719 62.992188 Z M 355.386719 62.992188 "/></clipPath><clipPath id="73621d22f4"><path d="M 324 49 L 427 49 L 427 336 L 324 336 Z M 324 49 "/></clipPath><clipPath id="5f838366b1"><path d="M 397.363281 337.035156 L 323.238281 55.640625 L 353.777344 47.59375 L 427.902344 328.992188 Z M 397.363281 337.035156 "/></clipPath><clipPath id="f78aa4977f"><path d="M 395.453125 329.785156 L 325.167969 62.960938 C 324.113281 58.953125 326.503906 54.851562 330.511719 53.796875 L 346.542969 49.574219 C 350.546875 48.519531 354.652344 50.910156 355.707031 54.917969 L 425.992188 321.738281 C 427.046875 325.746094 424.652344 329.847656 420.648438 330.902344 L 404.617188 335.125 C 400.609375 336.179688 396.507812 333.789062 395.453125 329.785156 Z M 395.453125 329.785156 "/></clipPath><clipPath id="6da4635b5f"><path d="M 289.164062 218.035156 L 388.371094 218.035156 L 388.371094 249.660156 L 289.164062 249.660156 Z M 289.164062 218.035156 "/></clipPath><clipPath id="e430ded657"><path d="M 296.664062 218.035156 L 380.785156 218.035156 C 384.925781 218.035156 388.285156 221.390625 388.285156 225.535156 L 388.285156 242.160156 C 388.285156 246.304688 384.925781 249.660156 380.785156 249.660156 L 296.664062 249.660156 C 292.519531 249.660156 289.164062 246.304688 289.164062 242.160156 L 289.164062 225.535156 C 289.164062 221.390625 292.519531 218.035156 296.664062 218.035156 Z M 296.664062 218.035156 "/></clipPath><clipPath id="bc30ea9f8c"><path d="M 463.015625 50.246094 L 494.59375 50.246094 L 494.59375 318.792969 L 463.015625 318.792969 Z M 463.015625 50.246094 "/></clipPath><clipPath id="103c116ae2"><path d="M 494.59375 57.746094 L 494.59375 311.175781 C 494.59375 315.320312 491.238281 318.675781 487.09375 318.675781 L 470.515625 318.675781 C 466.375 318.675781 463.015625 315.320312 463.015625 311.175781 L 463.015625 57.746094 C 463.015625 53.605469 466.375 50.246094 470.515625 50.246094 L 487.09375 50.246094 C 491.238281 50.246094 494.59375 53.605469 494.59375 57.746094 Z M 494.59375 57.746094 "/></clipPath><clipPath id="3ba1633c7b"><path d="M 432.632812 50.246094 L 525 50.246094 L 525 81.875 L 432.632812 81.875 Z M 432.632812 50.246094 "/></clipPath><clipPath id="ff40cc8923"><path d="M 440.132812 50.246094 L 517.5 50.246094 C 521.640625 50.246094 525 53.605469 525 57.746094 L 525 74.375 C 525 78.515625 521.640625 81.875 517.5 81.875 L 440.132812 81.875 C 435.992188 81.875 432.632812 78.515625 432.632812 74.375 L 432.632812 57.746094 C 432.632812 53.605469 435.992188 50.246094 440.132812 50.246094 Z M 440.132812 50.246094 "/></clipPath><clipPath id="c17a4be418"><path d="M 432.632812 302.863281 L 525 302.863281 L 525 334.492188 L 432.632812 334.492188 Z M 432.632812 302.863281 "/></clipPath><clipPath id="6793ade4a1"><path d="M 440.132812 302.863281 L 517.5 302.863281 C 521.640625 302.863281 525 306.21875 525 310.363281 L 525 326.992188 C 525 331.132812 521.640625 334.492188 517.5 334.492188 L 440.132812 334.492188 C 435.992188 334.492188 432.632812 331.132812 432.632812 326.992188 L 432.632812 310.363281 C 432.632812 306.21875 435.992188 302.863281 440.132812 302.863281 Z M 440.132812 302.863281 "/></clipPath><clipPath id="cf6382cf9e"><path d="M 324 43 L 356 43 L 356 75 L 324 75 Z M 324 43 "/></clipPath><clipPath id="59ca5acb51"><path d="M 339.976562 80.273438 L 318.664062 58.960938 L 340.140625 37.480469 L 361.453125 58.792969 Z M 339.976562 80.273438 "/></clipPath><clipPath id="c12c569d7e"><path d="M 329.320312 69.617188 C 326.496094 66.789062 324.90625 62.957031 324.90625 58.960938 C 324.90625 54.964844 326.496094 51.128906 329.320312 48.304688 L 329.472656 48.152344 C 332.296875 45.328125 336.128906 43.738281 340.128906 43.738281 C 344.125 43.738281 347.957031 45.328125 350.78125 48.152344 C 353.609375 50.980469 355.195312 54.8125 355.195312 58.808594 C 355.195312 62.804688 353.609375 66.640625 350.78125 69.464844 L 350.632812 69.617188 C 347.804688 72.441406 343.972656 74.03125 339.976562 74.03125 C 335.980469 74.03125 332.144531 72.441406 329.320312 69.617188 Z M 329.320312 69.617188 "/></clipPath><clipPath id="d37a14f255"><path d="M 96.242188 42.074219 L 203.882812 42.074219 L 203.882812 149 L 96.242188 149 Z M 96.242188 42.074219 "/></clipPath><clipPath id="c674a41f5f"><path d="M 180.964844 148.882812 L 119 148.882812 C 106.574219 148.882812 96.5 138.808594 96.5 126.382812 L 96.5 64.574219 C 96.5 52.148438 106.574219 42.074219 119 42.074219 L 180.964844 42.074219 C 193.394531 42.074219 203.464844 52.148438 203.464844 64.574219 L 203.464844 126.382812 C 203.464844 138.808594 193.394531 148.882812 180.964844 148.882812 Z M 180.964844 148.882812 "/></clipPath><clipPath id="5f6dc5b99b"><path d="M 0 136.152344 L 107 136.152344 L 107 243 L 0 243 Z M 0 136.152344 "/></clipPath><clipPath id="6718cba2d9"><path d="M 84.457031 242.960938 L 22.488281 242.960938 C 10.0625 242.960938 -0.0117188 232.886719 -0.0117188 220.460938 L -0.0117188 158.652344 C -0.0117188 146.226562 10.0625 136.152344 22.488281 136.152344 L 84.457031 136.152344 C 96.882812 136.152344 106.957031 146.226562 106.957031 158.652344 L 106.957031 220.460938 C 106.957031 232.886719 96.882812 242.960938 84.457031 242.960938 Z M 84.457031 242.960938 "/></clipPath><clipPath id="4219106020"><path d="M 96.242188 230.230469 L 203.882812 230.230469 L 203.882812 337.457031 L 96.242188 337.457031 Z M 96.242188 230.230469 "/></clipPath><clipPath id="180786940a"><path d="M 180.964844 337.042969 L 119 337.042969 C 106.574219 337.042969 96.5 326.96875 96.5 314.542969 L 96.5 252.730469 C 96.5 240.304688 106.574219 230.230469 119 230.230469 L 180.964844 230.230469 C 193.394531 230.230469 203.464844 240.304688 203.464844 252.730469 L 203.464844 314.542969 C 203.464844 326.96875 193.394531 337.042969 180.964844 337.042969 Z M 180.964844 337.042969 "/></clipPath></defs><g id="aca6030cb6"><g clip-rule="nonzero" clip-path="url(#5b0963054d)"><g clip-rule="nonzero" clip-path="url(#b2fdbd10f3)"><g clip-rule="nonzero" clip-path="url(#0351215ba3)"><path style=" stroke:none;fill-rule:nonzero;fill:#ffffff;fill-opacity:1;" d="M 357.296875 55.738281 L 283.128906 336.996094 L 252.59375 328.945312 L 326.761719 47.6875 Z M 357.296875 55.738281 "/></g></g></g><g clip-rule="nonzero" clip-path="url(#73621d22f4)"><g clip-rule="nonzero" clip-path="url(#5f838366b1)"><g clip-rule="nonzero" clip-path="url(#f78aa4977f)"><path style=" stroke:none;fill-rule:nonzero;fill:#ffffff;fill-opacity:1;" d="M 397.363281 337.035156 L 323.269531 55.757812 L 353.808594 47.714844 L 427.902344 328.992188 Z M 397.363281 337.035156 "/></g></g></g><g clip-rule="nonzero" clip-path="url(#6da4635b5f)"><g clip-rule="nonzero" clip-path="url(#e430ded657)"><path style=" stroke:none;fill-rule:nonzero;fill:#ffffff;fill-opacity:1;" d="M 289.164062 218.035156 L 388.246094 218.035156 L 388.246094 249.660156 L 289.164062 249.660156 Z M 289.164062 218.035156 "/></g></g><g clip-rule="nonzero" clip-path="url(#bc30ea9f8c)"><g clip-rule="nonzero" clip-path="url(#103c116ae2)"><path style=" stroke:none;fill-rule:nonzero;fill:#ffffff;fill-opacity:1;" d="M 494.59375 50.246094 L 494.59375 318.667969 L 463.015625 318.667969 L 463.015625 50.246094 Z M 494.59375 50.246094 "/></g></g><g clip-rule="nonzero" clip-path="url(#3ba1633c7b)"><g clip-rule="nonzero" clip-path="url(#ff40cc8923)"><path style=" stroke:none;fill-rule:nonzero;fill:#ffffff;fill-opacity:1;" d="M 432.632812 50.246094 L 525.046875 50.246094 L 525.046875 81.875 L 432.632812 81.875 Z M 432.632812 50.246094 "/></g></g><g clip-rule="nonzero" clip-path="url(#c17a4be418)"><g clip-rule="nonzero" clip-path="url(#6793ade4a1)"><path style=" stroke:none;fill-rule:nonzero;fill:#ffffff;fill-opacity:1;" d="M 432.632812 302.863281 L 525.046875 302.863281 L 525.046875 334.492188 L 432.632812 334.492188 Z M 432.632812 302.863281 "/></g></g><g clip-rule="nonzero" clip-path="url(#cf6382cf9e)"><g clip-rule="nonzero" clip-path="url(#59ca5acb51)"><g clip-rule="nonzero" clip-path="url(#c12c569d7e)"><path style=" stroke:none;fill-rule:nonzero;fill:#ffffff;fill-opacity:1;" d="M 339.976562 80.273438 L 318.664062 58.960938 L 340.140625 37.480469 L 361.453125 58.792969 Z M 339.976562 80.273438 "/></g></g></g><g clip-rule="nonzero" clip-path="url(#d37a14f255)"><g clip-rule="nonzero" clip-path="url(#c674a41f5f)"><path style=" stroke:none;fill-rule:nonzero;fill:#1278be;fill-opacity:1;" d="M 203.464844 148.882812 L 96.65625 148.882812 L 96.65625 42.074219 L 203.464844 42.074219 Z M 203.464844 148.882812 "/></g></g><g clip-rule="nonzero" clip-path="url(#5f6dc5b99b)"><g clip-rule="nonzero" clip-path="url(#6718cba2d9)"><path style=" stroke:none;fill-rule:nonzero;fill:#97c74e;fill-opacity:1;" d="M 106.957031 242.960938 L 0.148438 242.960938 L 0.148438 136.152344 L 106.957031 136.152344 Z M 106.957031 242.960938 "/></g></g><g clip-rule="nonzero" clip-path="url(#4219106020)"><g clip-rule="nonzero" clip-path="url(#180786940a)"><path style=" stroke:none;fill-rule:nonzero;fill:#ef1f1f;fill-opacity:1;" d="M 203.464844 337.042969 L 96.65625 337.042969 L 96.65625 230.230469 L 203.464844 230.230469 Z M 203.464844 337.042969 "/></g></g></g></svg>