<svg xmlns="http://www.w3.org/2000/svg" xmlns:xlink="http://www.w3.org/1999/xlink" width="500" zoomAndPan="magnify" viewBox="0 0 375 374.999991" height="500" preserveAspectRatio="xMidYMid meet" version="1.2"><defs><clipPath id="826d1c344b"><path d="M 9 59 L 366 59 L 366 321.144531 L 9 321.144531 Z M 9 59 "/></clipPath></defs><g id="f5de34f15b"><g clip-rule="nonzero" clip-path="url(#826d1c344b)"><path style=" stroke:none;fill-rule:nonzero;fill:#ffffff;fill-opacity:1;" d="M 341.964844 93.421875 L 326.117188 93.421875 L 326.117188 69.617188 C 326.117188 69.222656 326.117188 69.222656 326.117188 68.824219 C 326.117188 68.429688 326.117188 68.429688 326.117188 68.03125 C 326.117188 67.632812 326.117188 67.632812 325.722656 67.238281 C 325.722656 66.839844 325.722656 66.839844 325.324219 66.445312 C 325.324219 66.445312 324.929688 66.046875 324.929688 65.652344 C 324.929688 65.253906 324.53125 65.253906 324.53125 64.855469 C 324.53125 64.855469 324.136719 64.460938 324.136719 64.460938 C 324.136719 64.460938 323.738281 64.0625 323.738281 64.0625 C 323.738281 64.0625 323.34375 63.667969 323.34375 63.667969 C 323.34375 63.667969 322.949219 63.269531 322.550781 63.269531 C 322.15625 63.269531 322.15625 62.875 321.757812 62.875 C 321.363281 62.875 321.363281 62.476562 320.96875 62.476562 C 320.570312 62.476562 320.570312 62.476562 320.175781 62.476562 C 319.777344 62.476562 319.777344 62.476562 319.382812 62.082031 C 273.421875 54.542969 225.484375 65.253906 187.449219 91.4375 C 149.414062 64.855469 101.476562 54.144531 55.519531 62.082031 C 55.121094 62.082031 54.726562 62.082031 54.726562 62.476562 C 54.328125 62.476562 54.328125 62.476562 53.933594 62.476562 C 53.535156 62.476562 53.535156 62.875 53.140625 62.875 C 52.746094 62.875 52.746094 62.875 52.347656 63.269531 C 51.953125 63.269531 51.953125 63.667969 51.953125 63.667969 C 51.554688 63.667969 51.554688 64.0625 51.160156 64.0625 C 51.160156 64.0625 50.765625 64.460938 50.765625 64.460938 C 50.765625 64.460938 50.367188 64.855469 50.367188 64.855469 C 50.367188 64.855469 49.972656 65.253906 49.972656 65.652344 C 49.972656 66.046875 49.574219 66.046875 49.574219 66.445312 C 49.574219 66.839844 49.574219 66.839844 49.179688 67.238281 C 49.179688 67.632812 49.179688 67.632812 48.78125 68.03125 C 48.78125 68.03125 48.78125 68.429688 48.78125 68.824219 C 48.78125 69.222656 48.78125 69.222656 48.78125 69.617188 L 48.78125 93.421875 L 32.933594 93.421875 C 19.859375 93.421875 9.164062 104.132812 9.164062 116.828125 L 9.164062 297.738281 C 9.164062 310.832031 19.859375 321.144531 32.933594 321.144531 L 341.964844 321.144531 C 355.039062 321.144531 365.738281 310.433594 365.738281 297.738281 L 365.738281 117.226562 C 365.738281 104.132812 355.039062 93.421875 341.964844 93.421875 Z M 32.933594 305.671875 C 28.578125 305.671875 25.011719 302.101562 25.011719 297.738281 L 25.011719 117.226562 C 25.011719 112.863281 28.578125 109.292969 32.933594 109.292969 L 48.78125 109.292969 L 48.78125 282.265625 C 48.78125 284.644531 49.972656 286.628906 51.554688 288.21875 C 53.140625 289.804688 55.519531 290.199219 57.894531 289.804688 C 92.761719 284.25 128.417969 289.804688 159.714844 305.671875 Z M 179.527344 298.929688 C 145.453125 277.902344 104.644531 268.777344 64.628906 273.140625 L 64.628906 76.757812 C 105.042969 71.601562 146.246094 81.917969 179.527344 105.324219 Z M 195.375 105.324219 C 228.652344 81.917969 269.859375 71.601562 310.269531 76.757812 L 310.269531 273.140625 C 270.253906 268.777344 229.445312 277.902344 195.375 298.929688 Z M 349.890625 298.136719 C 349.890625 302.5 346.324219 306.070312 341.964844 306.070312 L 215.183594 306.070312 C 246.085938 290.199219 282.140625 284.644531 317.003906 290.199219 C 319.382812 290.597656 321.757812 289.804688 323.34375 288.613281 C 325.324219 287.027344 326.117188 285.042969 326.117188 282.664062 L 326.117188 109.292969 L 341.964844 109.292969 C 346.324219 109.292969 349.890625 112.863281 349.890625 117.226562 Z M 349.890625 298.136719 "/></g><path style="fill:none;stroke-width:20;stroke-linecap:round;stroke-linejoin:miter;stroke:#ffffff;stroke-opacity:1;stroke-miterlimit:4;" d="M 9.997903 9.998441 L 156.654163 9.998441 " transform="matrix(0,-0.75,0.75,0,249.348826,242.90077)"/><path style="fill:none;stroke-width:20;stroke-linecap:round;stroke-linejoin:miter;stroke:#ffffff;stroke-opacity:1;stroke-miterlimit:4;" d="M 10.000443 9.997743 L 44.840185 9.997743 " transform="matrix(0.53033,-0.53033,0.53033,0.53033,226.581861,143.817838)"/><path style="fill:none;stroke-width:20;stroke-linecap:round;stroke-linejoin:miter;stroke:#ffffff;stroke-opacity:1;stroke-miterlimit:4;" d="M 10.002144 10.001309 L 69.621939 10.001309 " transform="matrix(0.75,0,0,0.75,225.537455,229.030269)"/></g></svg>