<svg xmlns="http://www.w3.org/2000/svg" xmlns:xlink="http://www.w3.org/1999/xlink" width="500" height="500" version="1.2" viewBox="0 0 375 375"><defs><linearGradient id="a"><stop offset="0" style="stop-color:#ffffff;stop-opacity:1"/></linearGradient><linearGradient xlink:href="#a" id="b" x1="167.612" x2="284.234" y1="158.581" y2="158.581" gradientTransform="matrix(.5873 0 0 .71608 172.304 109.866)" gradientUnits="userSpaceOnUse"/></defs><path d="M37.5 13.875H48v347.079H37.5z" style="fill:#ffffff;stroke-width:.798752"/><path d="M75 238.125h10.5v84.327H75z" style="fill:#ffffff;stroke-width:.393714"/><path d="M350.625-341.194h10.5V-37.5h-10.5z" style="fill:#ffffff;stroke-width:.747163" transform="rotate(90)"/><path d="M313.125-340.425h10.516V-75h-10.516z" style="fill:#ffffff;stroke-width:.699048" transform="rotate(90)"/><path d="M-348-361.125h10.5v48H-348z" style="fill:#ffffff;stroke-width:.297043" transform="scale(-1)"/><path d="M88.125-337.875h10.5V-75h-10.5z" style="fill:#ffffff;stroke-width:.695139" transform="rotate(90)"/><path d="M238.125-271.425h10.5V-75h-10.5z" style="fill:#ffffff;stroke-width:.600891" transform="rotate(90)"/><path d="M200.625-272.25h10.5V-75h-10.5z" style="fill:#ffffff;stroke-width:.602152" transform="rotate(90)"/><path d="M125.625-340.304h10.5V-75h-10.5z" style="fill:#ffffff;stroke-width:.698344" transform="rotate(90)"/><path d="M13.875-85.5h10.5v48h-10.5z" style="fill:#ffffff;stroke-width:.297043" transform="rotate(90)"/><path d="M-348-136.125h10.5v48H-348z" style="fill:#ffffff;stroke-width:.297043" transform="scale(-1)"/><path d="M75 125.625h10.5v84.327H75zM75 13.875h10.5v84.327H75z" style="fill:#ffffff;stroke-width:.393714"/><path d="M323.77 108.199 218.05 78.465 178.403-23.952l105.72 29.734ZM317.162 233.742l-99.715-38.239 82.973-67.237z" style="fill:none;stroke-width:10.575;stroke-dasharray:none"/><path d="M268.432 205.66v-.826" style="fill:#ffffff;stroke-width:10.575;stroke-dasharray:none"/><path d="M270.743 211.13v-35.923l68.493 48.216-68.493 48.215V238.13" style="fill:none;stroke:url(#b);stroke-width:10.0889;stroke-dasharray:none"/><path d="M270.935 214.558c6.868 0 2.652 1.904 2.652 1.904M266.922 215.442l1.905-3.4" style="fill:none;fill-opacity:0;stroke-width:10.5;stroke-dasharray:none"/><path d="M268.486 211.022h12.786v27.066H265.97z" style="fill:none;fill-opacity:0;stroke-width:10.5801;stroke-dasharray:none"/><path d="m266.628 211.093.595 27.007h10.774l4.38-27.007zm4.227 4.787c.32-.04 2.339 1.403 2.473 1.245.032-.048-.078-.22-.409-.576-.126-.127-.257-.252-.375-.388.002.002.01.007.012.01.143.145.263.27.363.378l.034.035.1.1c2.957 2.978 2.111 3.816-.847.84l-.103-.105c-.179-.18-.368-.35-.543-.536-.683-.722-.835-.987-.705-1.003z" style="fill:none;fill-opacity:0;stroke-width:8.732;stroke-dasharray:none"/><path d="M265.594 212.292h15.838v24.062h-15.838z" style="fill:none;fill-opacity:0;stroke-width:10.5;stroke-dasharray:none"/><path fill="none" d="M256.152 215.338h24.366v14.011h-24.366z" style="fill:#ffffff;fill-opacity:0;stroke-width:10.5;stroke-dasharray:none"/><path fill="none" d="M265.289 219.602h23.453v20.407h-23.453z" style="font-variation-settings:normal;opacity:1;vector-effect:none;fill:#ffffff;fill-opacity:0;fill-rule:evenodd;stroke-width:10.5;stroke-linecap:butt;stroke-linejoin:miter;stroke-miterlimit:4;stroke-dasharray:none;stroke-dashoffset:0;stroke-opacity:1;-inkscape-stroke:none;stop-color:#ffffff;stop-opacity:1"/><path fill="none" d="M261.939 212.597h23.757v19.493h-23.757z" style="font-variation-settings:normal;opacity:1;vector-effect:none;fill:#ffffff;fill-opacity:0;fill-rule:evenodd;stroke-width:10.5;stroke-linecap:butt;stroke-linejoin:miter;stroke-miterlimit:4;stroke-dasharray:none;stroke-dashoffset:0;stroke-opacity:1;-inkscape-stroke:none;stop-color:#ffffff;stop-opacity:1"/><path d="M265.629 211.068h21.528v27.11h-22.895z" style="fill:none;fill-opacity:1;stroke:none;stroke-width:10.478;stroke-dasharray:none;stroke-opacity:1"/></svg>