<svg xmlns="http://www.w3.org/2000/svg"  viewBox="0 0 48 48" width="144px" height="144px"><path fill="#ffffff" d="M 11.5 6 C 8.4802259 6 6 8.4802259 6 11.5 L 6 20.841797 A 3.5 3.5 0 0 0 6 27.162109 L 6 36.5 C 6 39.519774 8.4802259 42 11.5 42 L 36.5 42 C 39.519774 42 42 39.519774 42 36.5 L 42 27.158203 A 3.5 3.5 0 0 0 42 20.837891 L 42 11.5 C 42 8.4802259 39.519774 6 36.5 6 L 11.5 6 z M 11.5 9 L 36.5 9 C 37.898226 9 39 10.101774 39 11.5 L 39 20.841797 A 3.5 3.5 0 0 0 39 27.162109 L 39 36.5 C 39 37.898226 37.898226 39 36.5 39 L 11.5 39 C 10.101774 39 9 37.898226 9 36.5 L 9 27.158203 A 3.5 3.5 0 0 0 9 20.837891 L 9 11.5 C 9 10.101774 10.101774 9 11.5 9 z M 19.5 18 C 18.672 18 18 18.671 18 19.5 C 18 20.329 18.672 21 19.5 21 L 22.5 21 L 22.5 30.5 C 22.5 31.329 23.172 32 24 32 C 24.828 32 25.5 31.329 25.5 30.5 L 25.5 21 L 28.5 21 C 29.328 21 30 20.329 30 19.5 C 30 18.671 29.328 18 28.5 18 L 19.5 18 z"/></svg>