<?xml version="1.0" encoding="UTF-8" standalone="no"?>
<svg
   width="500"
   height="500"
   version="1.2"
   viewBox="0 0 375 375"
   id="svg7"
   sodipodi:docname="5.2.svg"
   inkscape:version="1.4.2 (ebf0e940, 2025-05-08)"
   xmlns:inkscape="http://www.inkscape.org/namespaces/inkscape"
   xmlns:sodipodi="http://sodipodi.sourceforge.net/DTD/sodipodi-0.dtd"
   xmlns="http://www.w3.org/2000/svg"
   xmlns:svg="http://www.w3.org/2000/svg">
  <sodipodi:namedview
     id="namedview7"
     pagecolor="#ffffff"
     bordercolor="#000000"
     borderopacity="0.25"
     inkscape:showpageshadow="2"
     inkscape:pageopacity="0.0"
     inkscape:pagecheckerboard="0"
     inkscape:deskcolor="#d1d1d1"
     inkscape:zoom="0.90762105"
     inkscape:cx="159.7583"
     inkscape:cy="190.60818"
     inkscape:window-width="1440"
     inkscape:window-height="771"
     inkscape:window-x="0"
     inkscape:window-y="25"
     inkscape:window-maximized="0"
     inkscape:current-layer="svg7" />
  <defs
     id="defs3">
    <inkscape:path-effect
       effect="fillet_chamfer"
       id="path-effect2"
       is_visible="true"
       lpeversion="1"
       nodesatellites_param="F,0,0,1,0,0,0,1 @ F,0,0,1,0,0,0,1 @ F,0,0,1,0,0,0,1 @ F,0,0,1,0,0,0,1 @ F,0,0,1,0,10,0,1 @ F,0,0,1,0,0,0,1 @ F,0,0,1,0,0,0,1 @ F,0,0,1,0,0,0,1 @ F,0,0,1,0,0,0,1 @ F,0,0,1,0,10,0,1 @ F,0,0,1,0,0,0,1 @ F,0,0,1,0,0,0,1 @ F,0,0,1,0,0,0,1 @ F,0,0,1,0,0,0,1 @ F,0,0,1,0,10,0,1 @ F,0,0,1,0,0,0,1 @ F,0,0,1,0,0,0,1 @ F,0,0,1,0,0,0,1 @ F,0,0,1,0,0,0,1 @ F,0,0,1,0,10,0,1 @ F,0,0,1,0,0,0,1 @ F,0,0,1,0,0,0,1"
       radius="0"
       unit="px"
       method="auto"
       mode="F"
       chamfer_steps="1"
       flexible="false"
       use_knot_distance="true"
       apply_no_radius="true"
       apply_with_radius="true"
       only_selected="false"
       hide_knots="false" />
    <inkscape:path-effect
       effect="fillet_chamfer"
       id="path-effect1"
       is_visible="true"
       lpeversion="1"
       nodesatellites_param="F,0,0,1,0,0,0,1 @ F,0,0,1,0,0,0,1 @ F,0,0,1,0,10,0,1 @ F,0,0,1,0,0,0,1 @ F,0,0,1,0,0,0,1 @ F,0,0,1,0,0,0,1 @ F,0,0,1,0,0,0,1 @ F,0,0,1,0,0,0,1 @ F,0,0,1,0,0,0,1 @ F,0,0,1,0,0,0,1 @ F,0,0,1,0,0,0,1 @ F,0,0,1,0,0,0,1 @ F,0,0,1,0,0,0,1 @ F,0,0,1,0,0,0,1"
       radius="0"
       unit="px"
       method="auto"
       mode="F"
       chamfer_steps="1"
       flexible="false"
       use_knot_distance="true"
       apply_no_radius="true"
       apply_with_radius="true"
       only_selected="false"
       hide_knots="false" />
    <clipPath
       id="a">
      <path
         d="M30.887 127.125h120.75v120.75H30.887Zm0 0"
         id="path1" />
    </clipPath>
    <clipPath
       id="b">
      <path
         d="M223.371 165.129h120.746V210H223.371Zm0 0"
         id="path2" />
    </clipPath>
    <clipPath
       id="c">
      <path
         d="M230.871 165.129h105.73a7.5 7.5 0 0 1 7.497 7.5v29.734a7.495 7.495 0 0 1-7.496 7.496h-105.73a7.497 7.497 0 0 1-7.5-7.496V172.63c0-4.14 3.358-7.5 7.5-7.5Zm0 0"
         id="path3" />
    </clipPath>
    <clipPath
       id="b-6">
      <path
         d="M 223.371,165.129 H 344.117 V 210 H 223.371 Z m 0,0"
         id="path2-5" />
    </clipPath>
    <clipPath
       id="c-7">
      <path
         d="m 230.871,165.129 h 105.73 a 7.5,7.5 0 0 1 7.497,7.5 v 29.734 a 7.495,7.495 0 0 1 -7.496,7.496 h -105.73 a 7.497,7.497 0 0 1 -7.5,-7.496 V 172.63 c 0,-4.14 3.358,-7.5 7.5,-7.5 z m 0,0"
         id="path3-6" />
    </clipPath>
    <clipPath
       id="b-9">
      <path
         d="M 223.371,165.129 H 344.117 V 210 H 223.371 Z m 0,0"
         id="path2-9" />
    </clipPath>
    <clipPath
       id="c-9">
      <path
         d="m 230.871,165.129 h 105.73 a 7.5,7.5 0 0 1 7.497,7.5 v 29.734 a 7.495,7.495 0 0 1 -7.496,7.496 h -105.73 a 7.497,7.497 0 0 1 -7.5,-7.496 V 172.63 c 0,-4.14 3.358,-7.5 7.5,-7.5 z m 0,0"
         id="path3-1" />
    </clipPath>
    <clipPath
       id="b-6-9">
      <path
         d="M 223.371,165.129 H 344.117 V 210 H 223.371 Z m 0,0"
         id="path2-5-1" />
    </clipPath>
    <clipPath
       id="c-7-7">
      <path
         d="m 230.871,165.129 h 105.73 a 7.5,7.5 0 0 1 7.497,7.5 v 29.734 a 7.495,7.495 0 0 1 -7.496,7.496 h -105.73 a 7.497,7.497 0 0 1 -7.5,-7.496 V 172.63 c 0,-4.14 3.358,-7.5 7.5,-7.5 z m 0,0"
         id="path3-6-5" />
    </clipPath>
    <clipPath
       id="c-8">
      <path
         d="m 230.871,165.129 h 105.73 a 7.5,7.5 0 0 1 7.497,7.5 v 29.734 a 7.495,7.495 0 0 1 -7.496,7.496 h -105.73 a 7.497,7.497 0 0 1 -7.5,-7.496 V 172.63 c 0,-4.14 3.358,-7.5 7.5,-7.5 z m 0,0"
         id="path3-3" />
    </clipPath>
    <clipPath
       id="b-6-7">
      <path
         d="M 223.371,165.129 H 344.117 V 210 H 223.371 Z m 0,0"
         id="path2-5-15" />
    </clipPath>
    <clipPath
       id="c-7-5">
      <path
         d="m 230.871,165.129 h 105.73 a 7.5,7.5 0 0 1 7.497,7.5 v 29.734 a 7.495,7.495 0 0 1 -7.496,7.496 h -105.73 a 7.497,7.497 0 0 1 -7.5,-7.496 V 172.63 c 0,-4.14 3.358,-7.5 7.5,-7.5 z m 0,0"
         id="path3-6-8" />
    </clipPath>
    <clipPath
       id="b-6-9-5">
      <path
         d="M 223.371,165.129 H 344.117 V 210 H 223.371 Z m 0,0"
         id="path2-5-1-6" />
    </clipPath>
    <clipPath
       id="c-7-7-7">
      <path
         d="m 230.871,165.129 h 105.73 a 7.5,7.5 0 0 1 7.497,7.5 v 29.734 a 7.495,7.495 0 0 1 -7.496,7.496 h -105.73 a 7.497,7.497 0 0 1 -7.5,-7.496 V 172.63 c 0,-4.14 3.358,-7.5 7.5,-7.5 z m 0,0"
         id="path3-6-5-9" />
    </clipPath>
    <clipPath
       id="b-1">
      <path
         d="M 223.371,165.129 H 344.117 V 210 H 223.371 Z m 0,0"
         id="path2-8" />
    </clipPath>
    <clipPath
       id="c-5">
      <path
         d="m 230.871,165.129 h 105.73 a 7.5,7.5 0 0 1 7.497,7.5 v 29.734 a 7.495,7.495 0 0 1 -7.496,7.496 h -105.73 a 7.497,7.497 0 0 1 -7.5,-7.496 V 172.63 c 0,-4.14 3.358,-7.5 7.5,-7.5 z m 0,0"
         id="path3-8" />
    </clipPath>
  </defs>
  <g
     inkscape:groupmode="layer"
     id="layer1"
     inkscape:label="Layer 1"
     style="display:inline" />
  <g
     id="g5"
     transform="matrix(1.0601898,0,0,1.0601898,9.9096323,-10.82104)">
    <g
       id="g6" />
    <g
       id="g7" />
  </g>
  <g
     id="g2"
     transform="translate(0.8262735,-0.12872607)">
    <path
       d="M 78.341746,285.96359 274.56388,89.54954"
       style="fill:none;stroke:#ffffff;stroke-width:22.511;stroke-linecap:round;stroke-linejoin:miter;stroke-miterlimit:4;stroke-dasharray:none;stroke-opacity:1"
       id="path5" />
    <path
       id="rect2"
       style="font-variation-settings:normal;vector-effect:none;fill:#ffffff;fill-opacity:1;fill-rule:evenodd;stroke-width:7.6673;stroke-linecap:butt;stroke-linejoin:miter;stroke-miterlimit:4;stroke-dasharray:none;stroke-dashoffset:0;stroke-opacity:1;-inkscape-stroke:none;stop-color:#000000"
       d="m 185.24954,-105.62355 c -1.44696,1.44768 -2.33994,3.44902 -2.33943,5.667004 l 0.0239,102.0985213 a 9.9975869,9.9975869 134.99352 0 1 -9.99766,9.9999237 l -42.25411,-3.22e-4 c -4.43862,0 -8.01197,3.573606 -8.01197,8.012233 l 2.1e-4,13.955349 c 0,4.438627 3.57324,8.011611 8.01187,8.011611 l 74.01733,-4.63e-4 c 0.31842,0 0.63203,-0.0169 0.94054,-0.05268 4.08499,-0.373596 7.26299,-3.790917 7.26204,-7.976308 l -0.0295,-134.056467 c -10e-4,-4.435962 -3.5728,-8.005532 -8.00877,-8.004362 l -13.9481,0.003 c -2.21798,5.9e-4 -4.21936,0.89547 -5.66633,2.34315 z"
       transform="matrix(0.70643906,0.70777387,-0.70664493,0.70756833,0,0)"
       inkscape:path-effect="#path-effect1"
       inkscape:original-d="m 185.24954,-105.62355 c -1.44696,1.44768 -2.33994,3.44902 -2.33943,5.667004 l 0.0262,112.098521 -52.25411,-3.98e-4 c -4.43862,0 -8.01197,3.573606 -8.01197,8.012233 l 2.1e-4,13.955349 c 0,4.438627 3.57324,8.011611 8.01187,8.011611 l 74.01733,-4.63e-4 c 0.31842,0 0.63203,-0.0169 0.94054,-0.05268 4.08499,-0.373596 7.26299,-3.790917 7.26204,-7.976308 l -0.0295,-134.056467 c -10e-4,-4.435962 -3.5728,-8.005532 -8.00877,-8.004362 l -13.9481,0.003 c -2.21798,5.9e-4 -4.21936,0.89547 -5.66633,2.34315 z" />
    <path
       id="rect2-2-5"
       style="font-variation-settings:normal;vector-effect:none;fill:#ffffff;fill-opacity:1;fill-rule:evenodd;stroke-width:9.8956;stroke-linecap:butt;stroke-linejoin:miter;stroke-miterlimit:4;stroke-dasharray:none;stroke-dashoffset:0;stroke-opacity:1;-inkscape-stroke:none;stop-color:#000000"
       d="m 10.088848,290.04566 c -1.4470017,-1.44759 -3.4494396,-2.34132 -5.6674236,-2.34177 l -13.9470672,-0.003 c -4.4359682,-9e-4 -8.0066252,3.56994 -8.0075232,8.0059 l -0.0091,42.05004 a 10.002106,10.002106 135.00637 0 1 -10.002165,9.99994 l -42.05109,-2.5e-4 c -4.436035,0 -8.006487,3.5709 -8.006487,8.00694 l -8.87e-4,13.94809 c 0,4.43604 3.572004,8.00759 8.008039,8.00759 l 42.044875,2.4e-4 a 9.9978924,9.9978924 45.006369 0 1 9.997835,10.00006 l -0.0091,42.04382 c -8.98e-4,4.43597 3.568964,8.00773 8.0049318,8.00862 l 13.9481024,0.002 c 4.4359681,9e-4 8.0076618,-3.5689 8.0085598,-8.00486 l 0.0083,-42.05107 a 10.001908,10.001908 135.0058 0 1 10.001965,-9.99994 l 42.05109,2.4e-4 c 4.436034,0 8.006486,-3.5709 8.006486,-8.00693 l -1.48e-4,-13.94707 c 0,-4.43603 -3.569932,-8.00758 -8.005967,-8.00758 l -42.044875,-2.4e-4 a 9.9980902,9.9980902 45.005802 0 1 -9.998032,-10.00006 l 0.0083,-42.04279 c 4.49e-4,-2.21798 -0.891544,-4.22031 -2.338545,-5.66789 z"
       transform="matrix(0.7064832,-0.70772981,0.70662648,0.70758675,-1.6526721,0)"
       inkscape:path-effect="#path-effect2"
       inkscape:original-d="m 10.088848,290.04566 c -1.4470017,-1.44759 -3.4494396,-2.34132 -5.6674236,-2.34177 l -13.9470672,-0.003 c -4.4359682,-9e-4 -8.0066252,3.56994 -8.0075232,8.0059 l -0.01127,52.05004 -52.05109,-3.1e-4 c -4.436035,0 -8.006487,3.5709 -8.006487,8.00694 l -8.87e-4,13.94809 c 0,4.43604 3.572004,8.00759 8.008039,8.00759 l 52.044875,3e-4 -0.01127,52.04382 c -8.98e-4,4.43597 3.568964,8.00773 8.0049318,8.00862 l 13.9481024,0.002 c 4.4359681,9e-4 8.0076618,-3.5689 8.0085598,-8.00486 l 0.01023,-52.05107 52.05109,3e-4 c 4.436034,0 8.006486,-3.5709 8.006486,-8.00693 l -1.48e-4,-13.94707 c 0,-4.43603 -3.569932,-8.00758 -8.005967,-8.00758 l -52.044875,-3e-4 0.01024,-52.04279 c 4.49e-4,-2.21798 -0.891544,-4.22031 -2.338545,-5.66789 z" />
  </g>
</svg>
