<svg xmlns="http://www.w3.org/2000/svg"  viewBox="0 0 48 48" width="144px" height="144px"><path fill="#ffffff" d="M 5.5 5 A 1.50015 1.50015 0 0 0 4 6.5 L 4 31.5 A 1.50015 1.50015 0 0 0 5.5 33 L 12.5 33 A 1.50015 1.50015 0 1 0 12.5 30 L 7 30 L 7 8 L 24 8 L 24 16.5 A 1.50015 1.50015 0 1 0 27 16.5 L 27 6.5 A 1.50015 1.50015 0 0 0 25.5 5 L 5.5 5 z M 30.5 5 A 1.50015 1.50015 0 1 0 30.5 8 L 34.5 8 C 35.346499 8 36 8.6535009 36 9.5 L 36 12.878906 L 34.560547 11.439453 A 1.50015 1.50015 0 0 0 33.484375 10.984375 A 1.50015 1.50015 0 0 0 32.439453 13.560547 L 36.310547 17.431641 A 1.50015 1.50015 0 0 0 38.697266 17.423828 L 42.560547 13.560547 A 1.50015 1.50015 0 1 0 40.439453 11.439453 L 39 12.878906 L 39 9.5 C 39 7.0324991 36.967501 5 34.5 5 L 30.5 5 z M 17.5 20 A 1.5 1.5 0 0 0 17.5 23 A 1.5 1.5 0 0 0 17.5 20 z M 22.462891 20 A 1.5 1.5 0 0 0 22.462891 23 A 1.5 1.5 0 0 0 22.462891 20 z M 27.462891 20 A 1.5 1.5 0 0 0 27.462891 23 A 1.5 1.5 0 0 0 27.462891 20 z M 32.462891 20 A 1.5 1.5 0 0 0 32.462891 23 A 1.5 1.5 0 0 0 32.462891 20 z M 37.462891 20 A 1.5 1.5 0 0 0 37.462891 23 A 1.5 1.5 0 0 0 37.462891 20 z M 42.462891 20 A 1.5 1.5 0 0 0 42.462891 23 A 1.5 1.5 0 0 0 42.462891 20 z M 17.5 25 A 1.5 1.5 0 0 0 17.5 28 A 1.5 1.5 0 0 0 17.5 25 z M 42.462891 25 A 1.5 1.5 0 0 0 42.462891 28 A 1.5 1.5 0 0 0 42.462891 25 z M 17.5 30 A 1.5 1.5 0 0 0 17.5 33 A 1.5 1.5 0 0 0 17.5 30 z M 42.462891 30 A 1.5 1.5 0 0 0 42.462891 33 A 1.5 1.5 0 0 0 42.462891 30 z M 17.5 35 A 1.5 1.5 0 0 0 17.5 38 A 1.5 1.5 0 0 0 17.5 35 z M 42.462891 35 A 1.5 1.5 0 0 0 42.462891 38 A 1.5 1.5 0 0 0 42.462891 35 z M 17.5 40 A 1.5 1.5 0 0 0 17.5 43 A 1.5 1.5 0 0 0 17.5 40 z M 22.462891 40 A 1.5 1.5 0 0 0 22.462891 43 A 1.5 1.5 0 0 0 22.462891 40 z M 27.462891 40 A 1.5 1.5 0 0 0 27.462891 43 A 1.5 1.5 0 0 0 27.462891 40 z M 32.462891 40 A 1.5 1.5 0 0 0 32.462891 43 A 1.5 1.5 0 0 0 32.462891 40 z M 37.462891 40 A 1.5 1.5 0 0 0 37.462891 43 A 1.5 1.5 0 0 0 37.462891 40 z M 42.462891 40 A 1.5 1.5 0 0 0 42.462891 43 A 1.5 1.5 0 0 0 42.462891 40 z"/></svg>