<svg xmlns="http://www.w3.org/2000/svg"  viewBox="0 0 48 48" width="144px" height="144px"><path fill="#ffffff" d="M 38.619141 2.5292969 C 37.249141 2.5292969 35.999766 3.209375 35.259766 4.359375 L 32.189453 9.1308594 L 5.5 9.1308594 C 3.57 9.1308594 2 10.670312 2 12.570312 L 2 38.689453 C 2 40.589453 3.57 42.130859 5.5 42.130859 L 42.490234 42.130859 C 44.420234 42.130859 45.990234 40.589453 45.990234 38.689453 L 45.990234 12.570312 C 45.990234 11.650313 45.619766 10.809219 45.009766 10.199219 C 45.409766 9.4092188 45.539375 8.5208594 45.359375 7.6308594 C 45.159375 6.5808594 44.550391 5.6703125 43.650391 5.0703125 L 40.839844 3.1992188 C 40.179844 2.7592188 39.409141 2.5292969 38.619141 2.5292969 z M 38.619141 5.5292969 C 38.809141 5.5292969 39.009687 5.5794531 39.179688 5.6894531 L 41.990234 7.5703125 C 42.450234 7.8803125 42.579766 8.5009375 42.259766 8.9609375 L 42.140625 9.1308594 L 40.539062 11.5 L 33.330078 22.130859 L 29.220703 24.179688 C 29.150703 24.219687 29.07 24.240234 29 24.240234 C 28.71 24.240234 28.449766 23.970391 28.509766 23.650391 L 29.330078 19.130859 L 33.830078 12.130859 L 35.609375 9.359375 L 37.779297 5.9902344 C 37.969297 5.6902344 38.289141 5.5292969 38.619141 5.5292969 z M 5.5 12.130859 L 30.269531 12.130859 L 26.810547 17.509766 C 26.590547 17.839766 26.450859 18.209844 26.380859 18.589844 L 25.560547 23.109375 C 25.370547 24.129375 25.650547 25.180469 26.310547 25.980469 C 26.422214 26.113802 26.553909 26.222049 26.681641 26.335938 C 26.040232 26.701494 25.183742 27 24 27 C 19.993 27 19.073 19 13 19 C 9.223 19 7.0039062 22.478 7.0039062 23.5 C 7.0039062 23.72 7.063 24 7.5 24 C 8.163 24 9.368 22 12 22 C 16.911 22 17.003 30 23 30 C 25.229681 30 27.05648 28.449923 28.087891 27.105469 C 28.383257 27.185558 28.686941 27.240234 29 27.240234 C 29.54 27.240234 30.080313 27.109141 30.570312 26.869141 L 34.669922 24.810547 C 35.129922 24.580547 35.520547 24.240547 35.810547 23.810547 L 42.990234 13.240234 L 42.990234 38.689453 C 42.990234 38.929453 42.760234 39.130859 42.490234 39.130859 L 5.5 39.130859 C 5.23 39.130859 5 38.929453 5 38.689453 L 5 12.570312 C 5 12.330312 5.23 12.130859 5.5 12.130859 z"/></svg>