<svg xmlns="http://www.w3.org/2000/svg" viewBox="0 0 48 48" width="144px" height="144px">
  <g transform="rotate(180 24 24)">
    <path fill="#ffffff" d="M 35.5 6 C 33.585045 6 32 7.5850452 32 9.5 L 32 19.365234 L 11.339844 6.6074219 C 9.0734225 5.2081236 6 6.9228749 6 9.5859375 L 6 38.414062 C 6 41.077126 9.0734225 42.791876 11.339844 41.392578 L 32 28.634766 L 32 38.5 C 32 40.414955 33.585045 42 35.5 42 L 38.5 42 C 40.414955 42 42 40.414955 42 38.5 L 42 9.5 C 42 7.5850452 40.414955 6 38.5 6 L 35.5 6 z M 35.5 9 L 38.5 9 C 38.795045 9 39 9.2049548 39 9.5 L 39 38.5 C 39 38.795045 38.795045 39 38.5 39 L 35.5 39 C 35.204955 39 35 38.795045 35 38.5 L 35 9.5 C 35 9.2049548 35.204955 9 35.5 9 z M 9.4765625 9.0566406 C 9.5668015 9.0647233 9.6637771 9.0984812 9.7636719 9.1601562 L 32 22.892578 L 32 25.107422 L 9.7636719 38.839844 C 9.364093 39.086546 9 38.883001 9 38.414062 L 9 9.5859375 C 9 9.3514688 9.091623 9.1841053 9.2324219 9.1054688 C 9.3028213 9.0661502 9.3863235 9.048558 9.4765625 9.0566406 z"/>
  </g>
</svg>