<svg xmlns="http://www.w3.org/2000/svg" xmlns:xlink="http://www.w3.org/1999/xlink" width="500" zoomAndPan="magnify" viewBox="25 25 325 325" height="500" preserveAspectRatio="xMidYMid meet" version="1.2">
  <defs>
    <filter x="0%" y="0%" width="100%" filterUnits="objectBoundingBox" id="8c1ab651e7" height="100%">
      <feColorMatrix values="0 0 0 0 1 0 0 0 0 1 0 0 0 0 1 0 0 0 1 0" type="matrix" in="SourceGraphic"/>
    </filter>
    <clipPath id="9f12ac96b4">
      <path d="M 0.800781 0.800781 L 318.144531 0.800781 L 318.144531 318.144531 L 0.800781 318.144531 Z M 0.800781 0.800781 "/>
    </clipPath>
    <clipPath id="e649f3f7d4">
      <path d="M 38.355469 0.855469 L 280.644531 0.855469 C 290.589844 0.855469 300.128906 4.804688 307.160156 11.839844 C 314.195312 18.871094 318.144531 28.410156 318.144531 38.355469 L 318.144531 280.644531 C 318.144531 290.589844 314.195312 300.128906 307.160156 307.160156 C 300.128906 314.195312 290.589844 318.144531 280.644531 318.144531 L 38.355469 318.144531 C 28.410156 318.144531 18.871094 314.195312 11.839844 307.160156 C 4.804688 300.128906 0.855469 290.589844 0.855469 280.644531 L 0.855469 38.355469 C 0.855469 28.410156 4.804688 18.871094 11.839844 11.839844 C 18.871094 4.804688 28.410156 0.855469 38.355469 0.855469 Z M 38.355469 0.855469 "/>
    </clipPath>
    <clipPath id="f128c3c82f">
      <rect x="0" width="319" y="0" height="319"/>
    </clipPath>
    <clipPath id="d6aa0124c7">
      <path d="M 90 60 L 203 60 L 203 315 L 90 315 Z M 90 60 "/>
    </clipPath>
    <clipPath id="a9863e1787">
      <path d="M 206.40625 66.410156 L 113.746094 319.089844 L 86.371094 309.050781 L 179.03125 56.371094 Z M 206.40625 66.410156 "/>
    </clipPath>
    <clipPath id="459ab0af68">
      <path d="M 201.386719 80.097656 L 118.800781 305.300781 C 117.472656 308.933594 114.753906 311.882812 111.242188 313.511719 C 107.734375 315.136719 103.726562 315.300781 100.09375 313.96875 C 96.464844 312.636719 93.511719 309.917969 91.886719 306.410156 C 90.261719 302.902344 90.097656 298.894531 91.429688 295.261719 L 174.011719 70.058594 C 175.34375 66.429688 178.0625 63.476562 181.570312 61.851562 C 185.078125 60.226562 189.089844 60.0625 192.71875 61.390625 C 196.351562 62.722656 199.300781 65.441406 200.929688 68.949219 C 202.554688 72.457031 202.71875 76.46875 201.386719 80.097656 Z M 201.386719 80.097656 "/>
    </clipPath>
    <clipPath id="3a4955f770">
      <path d="M 174 60 L 285 60 L 285 315 L 174 315 Z M 174 60 "/>
    </clipPath>
    <clipPath id="b053194bf0">
      <path d="M 261.160156 318.988281 L 169.949219 65.785156 L 197.382812 55.902344 L 288.589844 309.105469 Z M 261.160156 318.988281 "/>
    </clipPath>
    <clipPath id="b096a5ac5f">
      <path d="M 256.21875 305.273438 L 174.925781 79.597656 C 173.617188 75.960938 173.804688 71.953125 175.449219 68.453125 C 177.097656 64.953125 180.066406 62.253906 183.703125 60.941406 C 187.339844 59.632812 191.347656 59.820312 194.847656 61.464844 C 198.347656 63.113281 201.046875 66.082031 202.359375 69.71875 L 283.648438 295.390625 C 284.960938 299.027344 284.773438 303.039062 283.125 306.539062 C 281.480469 310.035156 278.511719 312.738281 274.875 314.046875 C 271.238281 315.359375 267.226562 315.167969 263.730469 313.523438 C 260.230469 311.878906 257.527344 308.910156 256.21875 305.273438 Z M 256.21875 305.273438 "/>
    </clipPath>
    <clipPath id="61aec54af4">
      <path d="M 128.164062 213.902344 L 248 213.902344 L 248 243.148438 L 128.164062 243.148438 Z M 128.164062 213.902344 "/>
    </clipPath>
    <clipPath id="3b289e3235">
      <path d="M 135.664062 213.902344 L 240.464844 213.902344 C 242.453125 213.902344 244.363281 214.695312 245.769531 216.101562 C 247.175781 217.507812 247.964844 219.414062 247.964844 221.402344 L 247.964844 235.648438 C 247.964844 237.640625 247.175781 239.546875 245.769531 240.953125 C 244.363281 242.359375 242.453125 243.148438 240.464844 243.148438 L 135.664062 243.148438 C 133.675781 243.148438 131.769531 242.359375 130.359375 240.953125 C 128.953125 239.546875 128.164062 237.640625 128.164062 235.648438 L 128.164062 221.402344 C 128.164062 219.414062 128.953125 217.507812 130.359375 216.101562 C 131.769531 214.695312 133.675781 213.902344 135.664062 213.902344 Z M 135.664062 213.902344 "/>
    </clipPath>
    <mask id="d44178aef2">
      <g filter="url(#8c1ab651e7)">
        <rect x="0" width="375" y="0" height="374.999991" style="fill:#ffffff;fill-opacity:0.8;stroke:none;"/>
      </g>
    </mask>
  </defs>
  <g id="684e58279c">
    <g mask="url(#d44178aef2)" transform="matrix(1,0,0,1,28,28)">
      <g clip-path="url(#f128c3c82f)">
        <g clip-rule="nonzero" clip-path="url(#9f12ac96b4)">
          <g clip-rule="nonzero" clip-path="url(#e649f3f7d4)">
            <path style=" stroke:none;fill-rule:nonzero;fill:#fcbf69;fill-opacity:1;" d="M 0.855469 0.855469 L 318.144531 0.855469 L 318.144531 318.144531 L 0.855469 318.144531 Z M 0.855469 0.855469 "/>
          </g>
        </g>
      </g>
    </g>
    <g clip-rule="nonzero" clip-path="url(#d6aa0124c7)">
      <g clip-rule="nonzero" clip-path="url(#a9863e1787)">
        <g clip-rule="nonzero" clip-path="url(#459ab0af68)">
          <path style=" stroke:none;fill-rule:nonzero;fill:#ffffff;fill-opacity:1;" d="M 206.40625 66.410156 L 113.785156 318.980469 L 86.410156 308.941406 L 179.03125 56.371094 Z M 206.40625 66.410156 "/>
        </g>
      </g>
    </g>
    <g clip-rule="nonzero" clip-path="url(#3a4955f770)">
      <g clip-rule="nonzero" clip-path="url(#b053194bf0)">
        <g clip-rule="nonzero" clip-path="url(#b096a5ac5f)">
          <path style=" stroke:none;fill-rule:nonzero;fill:#ffffff;fill-opacity:1;" d="M 261.160156 318.988281 L 169.988281 65.890625 L 197.421875 56.011719 L 288.589844 309.105469 Z M 261.160156 318.988281 "/>
        </g>
      </g>
    </g>
    <g clip-rule="nonzero" clip-path="url(#61aec54af4)">
      <g clip-rule="nonzero" clip-path="url(#3b289e3235)">
        <path style=" stroke:none;fill-rule:nonzero;fill:#ffffff;fill-opacity:1;" d="M 128.164062 213.902344 L 248.003906 213.902344 L 248.003906 243.148438 L 128.164062 243.148438 Z M 128.164062 213.902344 "/>
      </g>
    </g>
  </g>
</svg>