<svg xmlns="http://www.w3.org/2000/svg"  viewBox="0 0 48 48" width="144px" height="144px"><path fill="#ffffff" d="M 10.5 7 C 6.9280619 7 4 9.9280619 4 13.5 L 4 30.5 C 4 34.071938 6.9280619 37 10.5 37 L 12 37 L 12 42.5 C 12 44.46599 14.427297 45.67893 16 44.5 L 26 37 L 37.5 37 C 41.071938 37 44 34.071938 44 30.5 L 44 13.5 C 44 9.9280619 41.071938 7 37.5 7 L 10.5 7 z M 10.5 10 L 37.5 10 C 39.450062 10 41 11.549938 41 13.5 L 41 30.5 C 41 32.450062 39.450062 34 37.5 34 L 25.5 34 A 1.50015 1.50015 0 0 0 24.599609 34.300781 L 15 41.5 L 15 35.5 A 1.50015 1.50015 0 0 0 13.5 34 L 10.5 34 C 8.5499381 34 7 32.450062 7 30.5 L 7 13.5 C 7 11.549938 8.5499381 10 10.5 10 z M 15.5 16.998047 A 1.50015 1.50015 0 1 0 15.5 19.998047 L 32.5 19.998047 A 1.50015 1.50015 0 1 0 32.5 16.998047 L 15.5 16.998047 z M 15.5 23.998047 A 1.50015 1.50015 0 1 0 15.5 26.998047 L 28.5 26.998047 A 1.50015 1.50015 0 1 0 28.5 23.998047 L 15.5 23.998047 z"/></svg>