<svg xmlns="http://www.w3.org/2000/svg"  viewBox="0 0 48 48" width="144px" height="144px"><path fill="#ffffff" d="M 28.484375 7.9804688 A 1.50015 1.50015 0 0 0 27.068359 9.0546875 L 18.068359 38.054688 A 1.50015 1.50015 0 1 0 20.931641 38.945312 L 29.931641 9.9453125 A 1.50015 1.50015 0 0 0 28.484375 7.9804688 z M 13.509766 12.984375 A 1.50015 1.50015 0 0 0 12.466797 13.412109 L 2.4667969 22.912109 A 1.50015 1.50015 0 0 0 2.4667969 25.087891 L 12.466797 34.587891 A 1.5003384 1.5003384 0 1 0 14.533203 32.412109 L 5.6777344 24 L 14.533203 15.587891 A 1.50015 1.50015 0 0 0 13.509766 12.984375 z M 34.445312 12.986328 A 1.50015 1.50015 0 0 0 33.466797 15.587891 L 42.322266 24 L 33.466797 32.412109 A 1.5003384 1.5003384 0 1 0 35.533203 34.587891 L 45.533203 25.087891 A 1.50015 1.50015 0 0 0 45.533203 22.912109 L 35.533203 13.412109 A 1.50015 1.50015 0 0 0 34.445312 12.986328 z"/></svg>