<svg xmlns="http://www.w3.org/2000/svg" xmlns:xlink="http://www.w3.org/1999/xlink" width="500" zoomAndPan="magnify" viewBox="0 0 375 374.999991" height="500" preserveAspectRatio="xMidYMid meet" version="1.2"><defs><clipPath id="86a7e30c11"><path d="M 109.054688 37.5 L 276.304688 37.5 L 276.304688 337.5 L 109.054688 337.5 Z M 109.054688 37.5 "/></clipPath></defs><g id="34b64b7c6a"><g clip-rule="nonzero" clip-path="url(#86a7e30c11)"><path style=" stroke:none;fill-rule:nonzero;fill:#ffffff;fill-opacity:1;" d="M 192.5 37.5 C 128.199219 37.5 75.875 89.84375 75.875 154.167969 L 75.875 337.5 L 309.125 337.5 L 309.125 170.832031 L 150.847656 170.832031 L 150.847656 154.167969 C 150.847656 137.433594 155.988281 122.460938 163.832031 112.011719 C 171.640625 101.59375 181.695312 95.832031 192.5 95.832031 L 200.832031 95.832031 L 200.832031 37.5 Z M 184.171875 55.859375 L 184.171875 81.378906 C 170.957031 83.953125 158.917969 90.789062 150.492188 102.050781 C 140.238281 115.722656 134.1875 134.082031 134.1875 154.167969 L 134.1875 187.5 L 292.4375 187.5 L 292.4375 320.832031 L 92.535156 320.832031 L 92.535156 154.167969 C 92.535156 101.789062 132.984375 60.285156 184.171875 55.859375 Z "/></g></g></svg>