<?xml version="1.0" encoding="iso-8859-1"?>
<!-- Generator: Adobe Illustrator 24.2.1, SVG Export Plug-In . SVG Version: 6.00 Build 0)  -->
<svg version="1.1" id="Layer_1" xmlns="http://www.w3.org/2000/svg" xmlns:xlink="http://www.w3.org/1999/xlink" x="0px" y="0px"
	 viewBox="0 0 48 48" style="enable-background:new 0 0 48 48;" xml:space="preserve" fill="#ffffff">
<line style="fill:none;stroke:#ffffff;stroke-width:3;stroke-linecap:round;stroke-linejoin:round;stroke-miterlimit:10;" x1="9.5" y1="24.5" x2="38.5" y2="24.5"/>
<path d="M20.058,20C16.851,18.897,15,17.708,15,15.5c0-4.351,5.56-5.5,8.5-5.5c5.042,0,7.87,2.501,7.982,2.602
	c0.608,0.562,1.558,0.524,2.12-0.083c0.562-0.608,0.525-1.557-0.083-2.12C33.368,10.26,29.77,7,23.5,7C17.961,7,12,9.66,12,15.5
	c0,1.928,0.738,3.37,1.906,4.5H20.058z"/>
<path d="M31.382,24h-8.489C29.001,25.736,33,27.21,33,31.5c0,2.267-2.787,6.5-9.5,6.5c-6.172,0-9.682-4.256-9.83-4.438
	c-0.517-0.646-1.458-0.751-2.104-0.236c-0.648,0.516-0.756,1.459-0.24,2.107C11.507,35.661,15.842,41,23.5,41
	c8.527,0,12.5-5.669,12.5-9.5C36,27.819,34.041,25.556,31.382,24z"/>
</svg>