<?xml version="1.0" encoding="UTF-8" standalone="no"?>
<svg
   width="500"
   zoomAndPan="magnify"
   viewBox="0 0 375 374.999991"
   height="500"
   preserveAspectRatio="xMidYMid meet"
   version="1.2"
   id="svg2"
   sodipodi:docname="7.svg"
   inkscape:version="1.4.2 (ebf0e940, 2025-05-08)"
   xmlns:inkscape="http://www.inkscape.org/namespaces/inkscape"
   xmlns:sodipodi="http://sodipodi.sourceforge.net/DTD/sodipodi-0.dtd"
   xmlns="http://www.w3.org/2000/svg"
   xmlns:svg="http://www.w3.org/2000/svg">
  <sodipodi:namedview
     id="namedview2"
     pagecolor="#ffffff"
     bordercolor="#000000"
     borderopacity="0.25"
     inkscape:showpageshadow="2"
     inkscape:pageopacity="0.0"
     inkscape:pagecheckerboard="0"
     inkscape:deskcolor="#d1d1d1"
     inkscape:zoom="0.93972334"
     inkscape:cx="243.68874"
     inkscape:cy="243.15667"
     inkscape:window-width="1440"
     inkscape:window-height="776"
     inkscape:window-x="0"
     inkscape:window-y="25"
     inkscape:window-maximized="0"
     inkscape:current-layer="svg2" />
  <defs
     id="defs1">
    <inkscape:path-effect
       effect="fillet_chamfer"
       id="path-effect3"
       is_visible="true"
       lpeversion="1"
       nodesatellites_param="F,0,0,1,0,0,0,1 @ F,0,0,1,0,0,0,1 @ F,0,0,1,0,0,0,1 @ F,0,0,1,0,0,0,1 @ F,0,0,1,0,0,0,1 @ F,0,0,1,0,0,0,1 @ F,0,0,1,0,0,0,1 @ F,0,0,1,0,10,0,1 @ F,0,0,1,0,10,0,1 @ F,0,0,1,0,10,0,1 @ F,0,0,1,0,0,0,1 @ F,0,0,1,0,0,0,1 @ F,0,0,1,0,0,0,1 @ F,0,0,1,0,0,0,1 @ F,0,0,1,0,0,0,1 @ F,0,0,1,0,0,0,1 @ F,0,0,1,0,0,0,1 @ F,0,0,1,0,0,0,1 @ F,0,0,1,0,0,0,1 @ F,0,0,1,0,0,0,1 @ F,0,0,1,0,0,0,1 @ F,0,0,1,0,0,0,1 @ F,0,0,1,0,10,0,1 @ F,0,0,1,0,10,0,1 @ F,0,0,1,0,10,0,1 @ F,0,0,1,0,0,0,1 @ F,0,0,1,0,0,0,1 @ F,0,0,1,0,0,0,1 @ F,0,0,1,0,0,0,1 @ F,0,0,1,0,0,0,1 @ F,0,0,1,0,0,0,1 @ F,0,0,1,0,0,0,1"
       radius="0"
       unit="px"
       method="auto"
       mode="F"
       chamfer_steps="1"
       flexible="false"
       use_knot_distance="true"
       apply_no_radius="true"
       apply_with_radius="true"
       only_selected="false"
       hide_knots="false" />
    <clipPath
       id="b80dabb67b">
      <path
         d="M 66.9375 37.5 L 308.4375 37.5 L 308.4375 337.5 L 66.9375 337.5 Z M 66.9375 37.5 "
         id="path1" />
    </clipPath>
  </defs>
  <path
     id="rect2"
     style="font-variation-settings:normal;vector-effect:none;fill:#ffffff;fill-opacity:1;fill-rule:evenodd;stroke-width:8.89731;stroke-linecap:butt;stroke-linejoin:miter;stroke-miterlimit:4;stroke-dasharray:none;stroke-dashoffset:0;stroke-opacity:1;-inkscape-stroke:none;stop-color:#ffffff"
     d="m 57.881835,56.249999 c -1.188529,0 -2.283691,0.388243 -3.165527,1.044434 -1.379744,0.954126 -2.279297,2.547671 -2.279297,4.359375 v 51.281252 c 0,2.93411 2.361302,5.29541 5.29541,5.29541 h 11.907715 c 2.934108,0 5.296875,-2.3613 5.296875,-5.29541 V 88.749999 a 10,10 135 0 1 10,-10 h 81.028809 a 10,10 45 0 1 10,10 V 286.22509 a 10,10 135 0 1 -10,10 h -21.8457 c -2.93411,0 -5.29541,2.36131 -5.29541,5.29541 v 11.90772 c 0,2.93411 2.3613,5.29687 5.29541,5.29687 h 36.61962 c 0.1714,0.0166 0.34559,0.0249 0.52149,0.0249 h 11.90771 c 0.1759,0 0.35009,-0.008 0.52149,-0.0249 h 36.61963 c 2.9341,0 5.29687,-2.36276 5.29687,-5.29687 V 301.5205 c 0,-2.9341 -2.36277,-5.29541 -5.29687,-5.29541 h -21.84424 a 10,10 45 0 1 -10,-10 l 0,-197.475091 a 10,10 135 0 1 10,-10 l 81.59716,0 a 10,10 45 0 1 10,10 V 112.979 c 0,2.93411 2.36277,5.29688 5.29688,5.29688 h 11.90771 c 2.93411,0 5.29541,-2.36277 5.29541,-5.29688 V 61.697753 c 0,-2.681535 -1.97185,-4.8846 -4.55127,-5.24414 -0.46422,-0.132202 -0.95562,-0.203614 -1.46337,-0.203614 z"
     inkscape:path-effect="#path-effect3"
     inkscape:original-d="m 57.881835,56.249999 c -1.188529,0 -2.283691,0.388243 -3.165527,1.044434 -1.379744,0.954126 -2.279297,2.547671 -2.279297,4.359375 v 51.281252 c 0,2.93411 2.361302,5.29541 5.29541,5.29541 h 11.907715 c 2.934108,0 5.296875,-2.3613 5.296875,-5.29541 V 78.749999 H 175.96582 V 296.22509 h -31.8457 c -2.93411,0 -5.29541,2.36131 -5.29541,5.29541 v 11.90772 c 0,2.93411 2.3613,5.29687 5.29541,5.29687 h 36.61962 c 0.1714,0.0166 0.34559,0.0249 0.52149,0.0249 h 11.90771 c 0.1759,0 0.35009,-0.008 0.52149,-0.0249 h 36.61963 c 2.9341,0 5.29687,-2.36276 5.29687,-5.29687 V 301.5205 c 0,-2.9341 -2.36277,-5.29541 -5.29687,-5.29541 H 198.46582 V 78.749999 H 300.06298 V 112.979 c 0,2.93411 2.36277,5.29688 5.29688,5.29688 h 11.90771 c 2.93411,0 5.29541,-2.36277 5.29541,-5.29688 V 61.697753 c 0,-2.681535 -1.97185,-4.8846 -4.55127,-5.24414 -0.46422,-0.132202 -0.95562,-0.203614 -1.46337,-0.203614 z" />
</svg>
