<svg xmlns="http://www.w3.org/2000/svg" xmlns:xlink="http://www.w3.org/1999/xlink" width="500" zoomAndPan="magnify" viewBox="0 75 375 225" height="500" preserveAspectRatio="xMidYMid meet" version="1.2">
<g id="302d75be6d">
<path style="fill:none;stroke-width:10;stroke-linecap:butt;stroke-linejoin:miter;stroke:#ffffff;stroke-opacity:1;stroke-miterlimit:4;" d="M 67.5 154.949219 L 127.5 154.949219 L 127.5 219.835938 L 67.5 219.835938 Z M 67.5 154.949219 "/>
<path style="fill:none;stroke-width:10;stroke-linecap:butt;stroke-linejoin:miter;stroke:#ffffff;stroke-opacity:1;stroke-miterlimit:4;" d="M 157.5 154.949219 L 217.5 154.949219 L 217.5 219.835938 L 157.5 219.835938 Z M 157.5 154.949219 "/>
<path style="fill:none;stroke-width:10;stroke-linecap:butt;stroke-linejoin:miter;stroke:#ffffff;stroke-opacity:1;stroke-miterlimit:4;" d="M 247.5 154.949219 L 307.5 154.949219 L 307.5 219.835938 L 247.5 219.835938 Z M 247.5 154.949219 "/>
<path style=" stroke:none;fill-rule:evenodd;fill:#ffffff;fill-opacity:1;" d="M 74.953125 254.824219 L 84.539062 254.824219 L 84.539062 264.425781 L 74.953125 264.425781 Z M 74.953125 254.824219 "/>
<path style=" stroke:none;fill-rule:evenodd;fill:#ffffff;fill-opacity:1;" d="M 74.953125 110.824219 L 84.539062 110.824219 L 84.539062 120.425781 L 74.953125 120.425781 Z M 74.953125 110.824219 "/>
<path style=" stroke:none;fill-rule:evenodd;fill:#ffffff;fill-opacity:1;" d="M 12.605469 264.425781 L 12.605469 120.425781 C 12.605469 109.863281 21.195312 101.222656 31.789062 101.222656 L 65.359375 101.222656 C 75.945312 101.222656 84.542969 109.800781 84.542969 120.425781 C 84.542969 131.046875 75.9375 139.625 65.359375 139.625 L 50.972656 139.625 L 50.972656 245.222656 L 65.359375 245.222656 C 75.945312 245.222656 84.542969 253.800781 84.542969 264.425781 C 84.542969 275.046875 75.9375 283.625 65.359375 283.625 L 31.789062 283.625 C 21.195312 283.625 12.605469 275.046875 12.605469 264.425781 Z M 12.605469 264.425781 "/>
<path style=" stroke:none;fill-rule:evenodd;fill:#000000;fill-opacity:1;" d="M 17.402344 254.824219 L 17.402344 110.824219 C 17.402344 102.890625 23.847656 96.425781 31.789062 96.425781 L 65.359375 96.425781 C 73.296875 96.425781 79.75 102.890625 79.75 110.824219 C 79.75 118.757812 73.296875 125.222656 65.359375 125.222656 L 46.175781 125.222656 L 46.175781 240.425781 L 65.359375 240.425781 C 73.296875 240.425781 79.75 246.890625 79.75 254.824219 C 79.75 262.757812 73.296875 269.222656 65.359375 269.222656 L 31.789062 269.222656 C 23.847656 269.222656 17.402344 262.757812 17.402344 254.824219 Z M 17.402344 254.824219 "/>
<path style=" stroke:none;fill-rule:evenodd;fill:#ffffff;fill-opacity:1;" d="M 12.605469 254.824219 L 12.605469 110.824219 C 12.605469 100.265625 21.195312 91.625 31.789062 91.625 L 65.359375 91.625 C 75.945312 91.625 84.542969 100.203125 84.542969 110.824219 C 84.542969 121.445312 75.9375 130.023438 65.359375 130.023438 L 50.972656 130.023438 L 50.972656 235.625 L 65.359375 235.625 C 75.945312 235.625 84.542969 244.203125 84.542969 254.824219 C 84.542969 265.445312 75.9375 274.023438 65.359375 274.023438 L 31.789062 274.023438 C 21.195312 274.023438 12.605469 265.445312 12.605469 254.824219 Z M 74.953125 254.824219 C 74.953125 249.511719 70.640625 245.222656 65.359375 245.222656 L 46.175781 245.222656 C 43.527344 245.222656 41.378906 243.050781 41.378906 240.425781 L 41.378906 125.222656 C 41.378906 122.597656 43.527344 120.425781 46.175781 120.425781 L 65.359375 120.425781 C 70.652344 120.425781 74.953125 116.136719 74.953125 110.824219 C 74.953125 105.511719 70.640625 101.222656 65.359375 101.222656 L 31.789062 101.222656 C 26.492188 101.222656 22.195312 105.511719 22.195312 110.824219 L 22.195312 254.824219 C 22.195312 260.136719 26.492188 264.425781 31.789062 264.425781 L 65.359375 264.425781 C 70.652344 264.425781 74.953125 260.136719 74.953125 254.824219 Z M 74.953125 254.824219 "/>
<path style=" stroke:none;fill-rule:evenodd;fill:#ffffff;fill-opacity:1;" d="M 300.042969 254.824219 L 290.453125 254.824219 L 290.453125 264.425781 L 300.042969 264.425781 Z M 300.042969 254.824219 "/>
<path style=" stroke:none;fill-rule:evenodd;fill:#ffffff;fill-opacity:1;" d="M 300.042969 110.824219 L 290.453125 110.824219 L 290.453125 120.425781 L 300.042969 120.425781 Z M 300.042969 110.824219 "/>
<path style=" stroke:none;fill-rule:evenodd;fill:#ffffff;fill-opacity:1;" d="M 362.390625 264.425781 L 362.390625 120.425781 C 362.390625 109.863281 353.800781 101.222656 343.207031 101.222656 L 309.632812 101.222656 C 299.046875 101.222656 290.449219 109.800781 290.449219 120.425781 C 290.449219 131.046875 299.058594 139.625 309.632812 139.625 L 324.019531 139.625 L 324.019531 245.222656 L 309.632812 245.222656 C 299.046875 245.222656 290.449219 253.800781 290.449219 264.425781 C 290.449219 275.046875 299.058594 283.625 309.632812 283.625 L 343.207031 283.625 C 353.800781 283.625 362.390625 275.046875 362.390625 264.425781 Z M 362.390625 264.425781 "/>
<path style=" stroke:none;fill-rule:evenodd;fill:#000000;fill-opacity:1;" d="M 357.59375 254.824219 L 357.59375 110.824219 C 357.59375 102.890625 351.148438 96.425781 343.207031 96.425781 L 309.632812 96.425781 C 301.695312 96.425781 295.246094 102.890625 295.246094 110.824219 C 295.246094 118.757812 301.695312 125.222656 309.632812 125.222656 L 328.816406 125.222656 L 328.816406 240.425781 L 309.632812 240.425781 C 301.695312 240.425781 295.246094 246.890625 295.246094 254.824219 C 295.246094 262.757812 301.695312 269.222656 309.632812 269.222656 L 343.207031 269.222656 C 351.148438 269.222656 357.59375 262.757812 357.59375 254.824219 Z M 357.59375 254.824219 "/>
<path style=" stroke:none;fill-rule:evenodd;fill:#ffffff;fill-opacity:1;" d="M 362.390625 254.824219 L 362.390625 110.824219 C 362.390625 100.265625 353.800781 91.625 343.207031 91.625 L 309.632812 91.625 C 299.046875 91.625 290.449219 100.203125 290.449219 110.824219 C 290.449219 121.445312 299.058594 130.023438 309.632812 130.023438 L 324.019531 130.023438 L 324.019531 235.625 L 309.632812 235.625 C 299.046875 235.625 290.449219 244.203125 290.449219 254.824219 C 290.449219 265.445312 299.058594 274.023438 309.632812 274.023438 L 343.207031 274.023438 C 353.800781 274.023438 362.390625 265.445312 362.390625 254.824219 Z M 300.042969 254.824219 C 300.042969 249.511719 304.351562 245.222656 309.632812 245.222656 L 328.816406 245.222656 C 331.464844 245.222656 333.613281 243.050781 333.613281 240.425781 L 333.613281 125.222656 C 333.613281 122.597656 331.464844 120.425781 328.816406 120.425781 L 309.632812 120.425781 C 304.34375 120.425781 300.042969 116.136719 300.042969 110.824219 C 300.042969 105.511719 304.351562 101.222656 309.632812 101.222656 L 343.207031 101.222656 C 348.5 101.222656 352.796875 105.511719 352.796875 110.824219 L 352.796875 254.824219 C 352.796875 260.136719 348.5 264.425781 343.207031 264.425781 L 309.632812 264.425781 C 304.34375 264.425781 300.042969 260.136719 300.042969 254.824219 Z M 300.042969 254.824219 "/>
</g>
</svg>