<?xml version="1.0" encoding="UTF-8" standalone="no"?>
<svg
   width="500"
   zoomAndPan="magnify"
   viewBox="0 0 375 374.999991"
   height="500"
   preserveAspectRatio="xMidYMid meet"
   version="1.2"
   id="svg8"
   sodipodi:docname="8.svg"
   inkscape:version="1.4.2 (ebf0e940, 2025-05-08)"
   xmlns:inkscape="http://www.inkscape.org/namespaces/inkscape"
   xmlns:sodipodi="http://sodipodi.sourceforge.net/DTD/sodipodi-0.dtd"
   xmlns="http://www.w3.org/2000/svg"
   xmlns:svg="http://www.w3.org/2000/svg">
  <sodipodi:namedview
     id="namedview8"
     pagecolor="#ffffff"
     bordercolor="#000000"
     borderopacity="0.25"
     inkscape:showpageshadow="2"
     inkscape:pageopacity="0.0"
     inkscape:pagecheckerboard="0"
     inkscape:deskcolor="#d1d1d1"
     inkscape:zoom="0.45563492"
     inkscape:cx="-164.60547"
     inkscape:cy="194.23445"
     inkscape:window-width="1440"
     inkscape:window-height="776"
     inkscape:window-x="0"
     inkscape:window-y="25"
     inkscape:window-maximized="0"
     inkscape:current-layer="svg8" />
  <defs
     id="defs3">
    <inkscape:path-effect
       effect="fillet_chamfer"
       id="path-effect5"
       is_visible="true"
       lpeversion="1"
       nodesatellites_param="F,0,0,1,0,0,0,1 @ F,0,0,1,0,0,0,1 @ F,0,0,1,0,0,0,1 @ F,0,0,1,0,0,0,1 @ F,0,0,1,0,10,0,1 @ F,0,0,1,0,10,0,1 @ F,0,0,1,0,0,0,1 @ F,0,0,1,0,0,0,1 @ F,0,0,1,0,0,0,1 @ F,0,0,1,0,0,0,1 @ F,0,0,1,0,0,0,1 @ F,0,0,1,0,0,0,1 @ F,0,0,1,0,0,0,1 @ F,0,0,1,0,0,0,1 @ F,0,0,1,0,0,0,1 @ F,0,0,1,0,0,0,1 @ F,0,0,1,0,0,0,1 @ F,0,0,1,0,0,0,1 @ F,0,0,1,0,0,0,1 @ F,0,0,1,0,0,0,1 @ F,0,0,1,0,0,0,1 @ F,0,0,1,0,0,0,1 @ F,0,0,1,0,0,0,1"
       radius="0"
       unit="px"
       method="auto"
       mode="F"
       chamfer_steps="1"
       flexible="false"
       use_knot_distance="true"
       apply_no_radius="true"
       apply_with_radius="true"
       only_selected="false"
       hide_knots="false" />
    <inkscape:path-effect
       effect="fillet_chamfer"
       id="path-effect4"
       is_visible="true"
       lpeversion="1"
       nodesatellites_param="F,0,0,1,0,0,0,1 @ F,0,0,1,0,0,0,1 @ F,0,0,1,0,0,0,1 @ F,0,0,1,0,0,0,1 @ F,0,0,1,0,0,0,1 @ F,0,0,1,0,0,0,1 @ F,0,0,1,0,0,0,1 @ F,0,0,1,0,0,0,1 @ F,0,0,1,0,0,0,1 @ F,0,0,1,0,0,0,1 @ F,0,0,1,0,0,0,1 @ F,0,0,1,0,0,0,1 @ F,0,0,1,0,0,0,1 @ F,0,0,1,0,0,0,1 @ F,0,0,1,0,0,0,1 @ F,0,0,1,0,0,0,1 @ F,0,0,1,0,0,0,1 @ F,0,0,1,0,10,0,1 @ F,0,0,1,0,10,0,1 @ F,0,0,1,0,0,0,1 @ F,0,0,1,0,0,0,1 @ F,0,0,1,0,0,0,1 @ F,0,0,1,0,0,0,1"
       radius="0"
       unit="px"
       method="auto"
       mode="F"
       chamfer_steps="1"
       flexible="false"
       use_knot_distance="true"
       apply_no_radius="true"
       apply_with_radius="true"
       only_selected="false"
       hide_knots="false" />
    <clipPath
       id="86a4b8d248">
      <path
         d="M 64.625 154.949219 L 140.371094 154.949219 L 140.371094 219.835938 L 64.625 219.835938 Z M 64.625 154.949219 "
         id="path1" />
    </clipPath>
    <clipPath
       id="699e23720f">
      <path
         d="M 149.503906 154.949219 L 225.25 154.949219 L 225.25 219.835938 L 149.503906 219.835938 Z M 149.503906 154.949219 "
         id="path2" />
    </clipPath>
    <clipPath
       id="d387112996">
      <path
         d="M 234.378906 154.949219 L 310.128906 154.949219 L 310.128906 219.835938 L 234.378906 219.835938 Z M 234.378906 154.949219 "
         id="path3" />
    </clipPath>
  </defs>
  <rect
     style="font-variation-settings:normal;vector-effect:none;fill:#ffffff;fill-opacity:1;fill-rule:evenodd;stroke-width:10.7558;stroke-linecap:butt;stroke-linejoin:miter;stroke-miterlimit:4;stroke-dasharray:none;stroke-dashoffset:0;stroke-opacity:1;-inkscape-stroke:none;stop-color:#ffffff"
     id="rect8"
     width="81.521736"
     height="70"
     x="45"
     y="152.5"
     ry="14.583334" />
  <rect
     style="font-variation-settings:normal;vector-effect:none;fill:#ffffff;fill-opacity:1;fill-rule:evenodd;stroke-width:10.7558;stroke-linecap:butt;stroke-linejoin:miter;stroke-miterlimit:4;stroke-dasharray:none;stroke-dashoffset:0;stroke-opacity:1;-inkscape-stroke:none;stop-color:#ffffff"
     id="rect8-0"
     width="81.521736"
     height="70"
     x="146.73914"
     y="152.5"
     ry="14.583334" />
  <rect
     style="font-variation-settings:normal;vector-effect:none;fill:#ffffff;fill-opacity:1;fill-rule:evenodd;stroke-width:10.7558;stroke-linecap:butt;stroke-linejoin:miter;stroke-miterlimit:4;stroke-dasharray:none;stroke-dashoffset:0;stroke-opacity:1;-inkscape-stroke:none;stop-color:#ffffff"
     id="rect8-1"
     width="81.521736"
     height="70"
     x="249.13257"
     y="152.5"
     ry="14.583334" />
  <path
     id="rect9"
     style="font-variation-settings:normal;vector-effect:none;fill:#ffffff;fill-opacity:1;fill-rule:evenodd;stroke-width:8.47952;stroke-linecap:butt;stroke-linejoin:miter;stroke-miterlimit:4;stroke-dasharray:none;stroke-dashoffset:0;stroke-opacity:1;-inkscape-stroke:none;stop-color:#ffffff"
     d="m 8.4301757,56.249999 c -4.3997948,0 -7.94091789,3.542588 -7.94091789,7.942383 v 6.615234 c 0,0.06801 0.001247,0.136028 0.00293,0.203614 -0.001683,0.107945 -0.00293,0.216689 -0.00293,0.325195 V 303.66357 c 0,0.077 6.1576e-4,0.15471 0.001465,0.23145 -8.4885e-4,0.048 -0.001465,0.0953 -0.001465,0.14355 v 6.6167 c 0,4.39979 3.54112309,7.94238 7.94091789,7.94238 h 1.6933593 c 0.527278,0.10083 1.067015,0.15235 1.615723,0.15235 0.548708,0 1.088444,-0.0515 1.615722,-0.15235 h 60.713378 c 4.399795,0 7.942383,-3.54259 7.942383,-7.94238 v -6.6167 c 0,-4.39979 -3.542588,-7.94092 -7.942383,-7.94092 h -41.0791 a 10,10 45 0 1 -10,-10 V 88.749999 a 10,10 135 0 1 10,-10 h 41.080565 c 4.399795,0 7.940918,-3.542588 7.940918,-7.942383 v -6.615234 c 0,-4.399795 -3.541123,-7.942383 -7.940918,-7.942383 z"
     inkscape:path-effect="#path-effect4"
     inkscape:original-d="m 8.4301757,56.249999 c -4.3997948,0 -7.94091789,3.542588 -7.94091789,7.942383 v 6.615234 c 0,0.06801 0.001247,0.136028 0.00293,0.203614 -0.001683,0.107945 -0.00293,0.216689 -0.00293,0.325195 V 303.66357 c 0,0.077 6.1576e-4,0.15471 0.001465,0.23145 -8.4885e-4,0.048 -0.001465,0.0953 -0.001465,0.14355 v 6.6167 c 0,4.39979 3.54112309,7.94238 7.94091789,7.94238 h 1.6933593 c 0.527278,0.10083 1.067015,0.15235 1.615723,0.15235 0.548708,0 1.088444,-0.0515 1.615722,-0.15235 h 60.713378 c 4.399795,0 7.942383,-3.54259 7.942383,-7.94238 v -6.6167 c 0,-4.39979 -3.542588,-7.94092 -7.942383,-7.94092 h -51.0791 V 78.749999 h 51.080565 c 4.399795,0 7.940918,-3.542588 7.940918,-7.942383 v -6.615234 c 0,-4.399795 -3.541123,-7.942383 -7.940918,-7.942383 z" />
  <path
     id="rect9-7"
     style="font-variation-settings:normal;vector-effect:none;fill:#ffffff;fill-opacity:1;fill-rule:evenodd;stroke-width:8.47952;stroke-linecap:butt;stroke-linejoin:miter;stroke-miterlimit:4;stroke-dasharray:none;stroke-dashoffset:0;stroke-opacity:1;-inkscape-stroke:none;stop-color:#ffffff"
     d="m -300.93017,56.249999 c 4.39979,0 7.94092,3.542588 7.94092,7.942383 v 6.615234 c 0,4.399795 -3.54113,7.942383 -7.94092,7.942383 h -41.08057 a 10,10 135 0 0 -10,10 V 286.09765 a 10,10 45 0 0 10,10 h 41.0791 c 4.3998,0 7.94239,3.54113 7.94239,7.94092 v 6.6167 c 0,4.39979 -3.54259,7.94238 -7.94239,7.94238 h -60.71338 c -0.52729,0.10083 -1.067,0.15235 -1.61572,0.15235 -0.54872,0 -1.08843,-0.0515 -1.61572,-0.15235 h -1.69336 c -4.39979,0 -7.94092,-3.54259 -7.94092,-7.94238 v -6.6167 c 0,-0.0483 6.2e-4,-0.0955 10e-4,-0.14355 -8.5e-4,-0.0767 -10e-4,-0.15444 -10e-4,-0.23145 V 71.336425 c 0,-0.108506 10e-4,-0.21725 0.003,-0.325195 -0.002,-0.06759 -0.003,-0.135608 -0.003,-0.203614 v -6.615234 c 0,-4.399795 3.54113,-7.942383 7.94092,-7.942383 z"
     transform="scale(-1,1)"
     inkscape:path-effect="#path-effect5"
     inkscape:original-d="m -300.93017,56.249999 c 4.39979,0 7.94092,3.542588 7.94092,7.942383 v 6.615234 c 0,4.399795 -3.54113,7.942383 -7.94092,7.942383 h -51.08057 V 296.09765 h 51.0791 c 4.3998,0 7.94239,3.54113 7.94239,7.94092 v 6.6167 c 0,4.39979 -3.54259,7.94238 -7.94239,7.94238 h -60.71338 c -0.52729,0.10083 -1.067,0.15235 -1.61572,0.15235 -0.54872,0 -1.08843,-0.0515 -1.61572,-0.15235 h -1.69336 c -4.39979,0 -7.94092,-3.54259 -7.94092,-7.94238 v -6.6167 c 0,-0.0483 6.2e-4,-0.0955 10e-4,-0.14355 -8.5e-4,-0.0767 -10e-4,-0.15444 -10e-4,-0.23145 V 71.336425 c 0,-0.108506 10e-4,-0.21725 0.003,-0.325195 -0.002,-0.06759 -0.003,-0.135608 -0.003,-0.203614 v -6.615234 c 0,-4.399795 3.54113,-7.942383 7.94092,-7.942383 z" />
</svg>
