<svg xmlns="http://www.w3.org/2000/svg" xmlns:xlink="http://www.w3.org/1999/xlink" viewBox="0,0,256,256" width="144px" height="144px" fill-rule="nonzero"><g fill="#cc0000" fill-rule="nonzero" stroke="none" stroke-width="1" stroke-linecap="butt" stroke-linejoin="miter" stroke-miterlimit="10" stroke-dasharray="" stroke-dashoffset="0" font-family="none" font-weight="none" font-size="none" text-anchor="none" style="mix-blend-mode: normal"><g transform="scale(5.33333,5.33333)"><path d="M24,4c-11.046,0 -20,8.954 -20,20c0,11.046 8.954,20 20,20c11.046,0 20,-8.954 20,-20c0,-11.046 -8.954,-20 -20,-20zM31.561,29.439c0.586,0.586 0.586,1.535 0,2.121c-0.293,0.294 -0.677,0.44 -1.061,0.44c-0.384,0 -0.768,-0.146 -1.061,-0.439l-5.439,-5.44l-5.439,5.439c-0.293,0.294 -0.677,0.44 -1.061,0.44c-0.384,0 -0.768,-0.146 -1.061,-0.439c-0.586,-0.586 -0.586,-1.535 0,-2.121l5.44,-5.44l-5.439,-5.439c-0.586,-0.586 -0.586,-1.535 0,-2.121c0.586,-0.586 1.535,-0.586 2.121,0l5.439,5.439l5.439,-5.439c0.586,-0.586 1.535,-0.586 2.121,0c0.586,0.586 0.586,1.535 0,2.121l-5.439,5.439z"></path></g></g></svg>