<svg xmlns="http://www.w3.org/2000/svg"  viewBox="0 0 48 48" width="144px" height="144px"><path d="M 11.5 6 C 8.4802259 6 6 8.4802259 6 11.5 L 6 14.5 C 6 17.519774 8.4802259 20 11.5 20 L 36.5 20 C 39.519774 20 42 17.519774 42 14.5 L 42 11.5 C 42 8.4802259 39.519774 6 36.5 6 L 11.5 6 z M 11.5 9 L 36.5 9 C 37.898226 9 39 10.101774 39 11.5 L 39 14.5 C 39 15.898226 37.898226 17 36.5 17 L 11.5 17 C 10.101774 17 9 15.898226 9 14.5 L 9 11.5 C 9 10.101774 10.101774 9 11.5 9 z M 6 19.582031 L 6 29.253906 A 1.50015 1.50015 0 0 0 6 29.740234 L 6 36.5 C 6 39.533 8.467 42 11.5 42 L 36.5 42 C 39.533 42 42 39.533 42 36.5 L 42 29.746094 A 1.50015 1.50015 0 0 0 42 29.259766 L 42 19.582031 C 41.182 20.466031 40.157 21.1515 39 21.5625 L 39 28 L 25.5 28 L 25.5 22 L 22.5 22 L 22.5 28 L 9 28 L 9 21.5625 C 7.843 21.1515 6.818 20.467031 6 19.582031 z M 9 31 L 22.5 31 L 22.5 39 L 11.5 39 C 10.122 39 9 37.878 9 36.5 L 9 31 z M 25.5 31 L 39 31 L 39 36.5 C 39 37.878 37.878 39 36.5 39 L 25.5 39 L 25.5 31 z"/></svg>