<svg xmlns="http://www.w3.org/2000/svg"  viewBox="0 0 48 48" width="144px" height="144px"><path d="M 12.5 6 C 9.467 6 7 8.468 7 11.5 L 7 36.5 C 7 39.532 9.467 42 12.5 42 L 24.472656 42 C 23.905656 41.068 23.452141 40.06 23.119141 39 L 12.5 39 C 11.122 39 10 37.879 10 36.5 L 10 31 L 23.117188 31 C 23.630188 29.352 24.441 27.835437 25.5 26.523438 L 25.5 20 L 38 20 L 38 21.664062 C 39.044 21.819063 40.049 22.086797 41 22.466797 L 41 11.5 C 41 8.468 38.533 6 35.5 6 L 12.5 6 z M 12.5 9 L 22.5 9 L 22.5 17 L 10 17 L 10 11.5 C 10 10.121 11.122 9 12.5 9 z M 25.5 9 L 35.5 9 C 36.878 9 38 10.121 38 11.5 L 38 17 L 25.5 17 L 25.5 9 z M 10 20 L 22.5 20 L 22.5 28 L 10 28 L 10 20 z M 36 24 C 35.413 24 34.838344 24.049531 34.277344 24.144531 L 33.931641 25.576172 C 33.394641 27.801172 31.105156 29.123609 28.910156 28.474609 L 27.705078 28.117188 C 26.981078 29.050187 26.401 30.110813 26 31.257812 L 26.894531 32.117188 C 28.529531 33.691187 28.529531 36.308813 26.894531 37.882812 L 26 38.742188 C 26.401 39.889187 26.980078 40.948812 27.705078 41.882812 L 28.910156 41.525391 C 31.105156 40.876391 33.394641 42.198828 33.931641 44.423828 L 34.277344 45.855469 C 34.838344 45.950469 35.414 46 36 46 C 36.587 46 37.161656 45.950469 37.722656 45.855469 L 38.068359 44.423828 C 38.605359 42.198828 40.894844 40.876391 43.089844 41.525391 L 44.294922 41.882812 C 45.018922 40.949813 45.599 39.889187 46 38.742188 L 45.105469 37.882812 C 43.470469 36.309812 43.470469 33.690188 45.105469 32.117188 L 46 31.257812 C 45.599 30.110813 45.019922 29.051187 44.294922 28.117188 L 43.089844 28.474609 C 40.894844 29.123609 38.605359 27.801172 38.068359 25.576172 L 37.722656 24.144531 C 37.161656 24.049531 36.587 24 36 24 z M 36 32 C 37.657 32 39 33.343 39 35 C 39 36.657 37.657 38 36 38 C 34.343 38 33 36.657 33 35 C 33 33.343 34.343 32 36 32 z"/></svg>