<svg xmlns="http://www.w3.org/2000/svg"  viewBox="0 0 48 48" width="144px" height="144px"><path d="M 37.46875 4 A 1.50015 1.50015 0 0 0 36.253906 4.6640625 C 36.253906 4.6640625 34.976527 6.5654144 33.693359 8.8320312 C 33.051776 9.9653398 32.40732 11.192747 31.904297 12.359375 C 31.401274 13.526003 30.999586 14.571439 31 15.714844 C 31 17.439888 31.785357 18.924661 32.888672 20.089844 L 32.005859 38.226562 L 32.007812 38.224609 C 31.852076 41.345283 34.375024 44 37.5 44 C 40.624976 44 43.147877 41.345236 42.992188 38.224609 L 42.994141 38.238281 L 42.25 19.947266 C 43.272567 18.801636 44 17.37006 44 15.714844 C 44 14.571773 43.59875 13.52594 43.095703 12.359375 C 42.592657 11.19281 41.946196 9.9653204 41.304688 8.8320312 C 40.02167 6.5654533 38.746094 4.6640625 38.746094 4.6640625 A 1.50015 1.50015 0 0 0 37.46875 4 z M 23.5 5 C 11.294 5 4 13.897 4 22.5 C 4 27.107 7.435 31 11.5 31 C 13.134 31 14.770797 30.664187 16.216797 30.367188 C 17.136797 30.179187 18.005 30 18.5 30 C 20.367 30 20.776922 30.858484 21.419922 34.271484 C 22.074922 37.747484 23.064125 43 30.578125 43 C 30.867125 43 31.163891 42.973406 31.462891 42.941406 C 30.807891 42.055406 30.367297 41.051375 30.154297 39.984375 C 25.533297 39.826375 25.010187 37.122797 24.367188 33.716797 C 23.834187 30.882797 23.104 27 18.5 27 C 17.7 27 16.733281 27.198688 15.613281 27.429688 C 14.309281 27.696688 12.829 28 11.5 28 C 9.371 28 7 25.741 7 22.5 C 7 15.372 13.172 8 23.5 8 C 26.169 8 28.691031 8.6174063 30.957031 9.6914062 C 31.413031 8.7854062 31.904578 7.8945938 32.392578 7.0585938 C 29.697578 5.7535938 26.689 5 23.5 5 z M 37.5 8.3652344 C 37.954499 9.0858372 38.099624 9.2582027 38.695312 10.310547 C 39.303804 11.385508 39.907343 12.539378 40.341797 13.546875 C 40.77625 14.554372 41 15.476914 41 15.714844 C 41 16.616906 40.609202 17.380811 40.048828 18 L 34.960938 18 C 34.401372 17.381244 34 16.620842 34 15.714844 A 1.50015 1.50015 0 0 0 34 15.712891 C 33.999914 15.475296 34.22382 14.55431 34.658203 13.546875 C 35.092586 12.53944 35.696146 11.385488 36.304688 10.310547 C 36.900424 9.2582688 37.045432 9.0858272 37.5 8.3652344 z M 23.5 11 A 2.5 2.5 0 0 0 23.5 16 A 2.5 2.5 0 0 0 23.5 11 z M 16.5 13 A 2.5 2.5 0 0 0 16.5 18 A 2.5 2.5 0 0 0 16.5 13 z M 12.5 19 A 2.5 2.5 0 0 0 12.5 24 A 2.5 2.5 0 0 0 12.5 19 z M 35.849609 21 L 39.291016 21 L 39.392578 23.5 L 35.728516 23.5 L 35.849609 21 z M 35.582031 26.5 L 39.513672 26.5 L 39.996094 38.361328 A 1.50015 1.50015 0 0 0 39.996094 38.375 C 40.068404 39.824375 38.951024 41 37.5 41 C 36.048976 41 34.931596 39.824373 35.003906 38.375 A 1.50015 1.50015 0 0 0 35.003906 38.373047 L 35.582031 26.5 z"/></svg>