<svg xmlns="http://www.w3.org/2000/svg" xmlns:xlink="http://www.w3.org/1999/xlink" width="500" zoomAndPan="magnify" viewBox="0 0 375 374.999991" height="500" preserveAspectRatio="xMidYMid meet" version="1.2"><defs><clipPath id="efc6a0dbc6"><path d="M 79.585938 104.597656 L 180 104.597656 L 180 171.609375 L 79.585938 171.609375 Z M 79.585938 104.597656 "/></clipPath></defs><g id="d640271c7f"><g clip-rule="nonzero" clip-path="url(#efc6a0dbc6)"><path style=" stroke:none;fill-rule:nonzero;fill:#1278be;fill-opacity:1;" d="M 79.585938 104.597656 L 180.101562 104.597656 L 180.101562 171.609375 L 79.585938 171.609375 Z M 79.585938 104.597656 "/></g><path style=" stroke:none;fill-rule:nonzero;fill:#000000;fill-opacity:1;" d="M 62.5 0 C 28.074219 0 0 28.074219 0 62.5 L 0 312.5 C 0 346.921875 28.074219 375 62.5 375 L 312.5 375 C 346.921875 375 375 346.921875 375 312.5 L 375 62.5 C 375 28.074219 346.921875 0 312.5 0 Z M 62.5 17.855469 L 312.5 17.855469 C 337.261719 17.855469 357.144531 37.738281 357.144531 62.5 L 357.144531 312.5 C 357.144531 337.261719 337.261719 357.144531 312.5 357.144531 L 62.5 357.144531 C 37.738281 357.144531 17.855469 337.261719 17.855469 312.5 L 17.855469 62.5 C 17.855469 37.738281 37.738281 17.855469 62.5 17.855469 Z M 62.5 17.855469 "/><path style="fill:none;stroke-width:20;stroke-linecap:butt;stroke-linejoin:miter;stroke:#000000;stroke-opacity:1;stroke-miterlimit:4;" d="M -0.000006 10.000738 L 483.666692 10.000738 " transform="matrix(0.75,0,0,0.75,0.0000045,97.097103)"/><path style="fill:none;stroke-width:20;stroke-linecap:butt;stroke-linejoin:miter;stroke:#000000;stroke-opacity:1;stroke-miterlimit:4;" d="M -0.000619434 10.002592 L 483.666079 10.002592 " transform="matrix(0.75,0,0,0.75,12.250465,164.107432)"/><path style="fill:none;stroke-width:20;stroke-linecap:butt;stroke-linejoin:miter;stroke:#000000;stroke-opacity:1;stroke-miterlimit:4;" d="M -0.00030974 9.998211 L 483.666389 9.998211 " transform="matrix(0,0.75,-0.75,0,87.080689,12.254139)"/><path style="fill:none;stroke-width:20;stroke-linecap:butt;stroke-linejoin:miter;stroke:#000000;stroke-opacity:1;stroke-miterlimit:4;" d="M -0.00030974 10.000296 L 483.666389 10.000296 " transform="matrix(0,0.75,-0.75,0,187.496315,12.254139)"/></g></svg>