<svg xmlns="http://www.w3.org/2000/svg"  viewBox="0 0 48 48" width="144px" height="144px"><path d="M 4.5 3 A 1.50015 1.50015 0 0 0 3 4.5 L 3 38.066406 C 3 41.887799 6.1611442 45 10 45 C 13.838856 45 17 41.887799 17 38.066406 L 17 4.5 A 1.50015 1.50015 0 0 0 15.5 3 L 4.5 3 z M 6 6 L 14 6 L 14 38.066406 C 14 40.247013 12.237144 42 10 42 C 7.7628558 42 6 40.247013 6 38.066406 L 6 6 z M 31.210938 7.5097656 C 30.820937 7.5097656 30.430391 7.6692187 30.150391 7.9492188 L 21.669922 16.429688 L 19 19.099609 L 19 23.339844 L 22.726562 19.613281 L 28.386719 25.273438 L 22.369141 31.289062 L 22.019531 31.640625 L 20 33.660156 L 19.900391 33.759766 L 19.660156 34 L 19 34.660156 L 19 38.070312 C 19 38.370312 18.989219 38.659219 18.949219 38.949219 L 20 37.900391 L 23 34.900391 L 23.080078 34.820312 L 26.900391 31 L 31.570312 26.330078 L 40.050781 17.849609 C 40.640781 17.259609 40.640781 16.310469 40.050781 15.730469 L 32.269531 7.9492188 C 31.989531 7.6692187 31.610938 7.5097656 31.210938 7.5097656 z M 31.210938 11.130859 L 36.869141 16.789062 L 30.505859 23.152344 L 24.847656 17.492188 L 24.849609 17.490234 L 31.210938 11.130859 z M 29.720703 31 L 26.720703 34 L 32 34 L 32 42 L 18.080078 42 C 17.720078 42.72 17.260703 43.4 16.720703 44 C 16.670703 44.05 16.620312 44.110156 16.570312 44.160156 C 16.460313 44.280156 16.340938 44.399531 16.210938 44.519531 C 16.200937 44.539531 16.180156 44.550313 16.160156 44.570312 C 16.000156 44.720313 15.839922 44.86 15.669922 45 L 45.5 45 C 46.33 45 47 44.33 47 43.5 L 47 32.5 C 47 31.67 46.33 31 45.5 31 L 29.720703 31 z M 35 34 L 44 34 L 44 42 L 35 42 L 35 34 z M 10 36 C 8.895 36 8 36.895 8 38 C 8 39.105 8.895 40 10 40 C 11.105 40 12 39.105 12 38 C 12 36.895 11.105 36 10 36 z"/></svg>