<?xml version="1.0" encoding="iso-8859-1"?>
<!-- Generator: Adobe Illustrator 24.3.0, SVG Export Plug-In . SVG Version: 6.00 Build 0)  -->
<svg version="1.1" id="Layer_1" xmlns="http://www.w3.org/2000/svg" xmlns:xlink="http://www.w3.org/1999/xlink" x="0px" y="0px"
	 viewBox="0 0 48 48" style="enable-background:new 0 0 48 48;" xml:space="preserve">
<path fill="#cc0000" transform="rotate(45, 35, 35)" d="M35,46c6.075,0,11-4.925,11-11s-4.925-11-11-11c-6.075,0-11,4.925-11,11S28.925,46,35,46z M35,43c-0.552,0-1-0.448-1-1v-6
	h-6c-0.552,0-1-0.448-1-1s0.448-1,1-1h6v-6c0-0.552,0.448-1,1-1s1,0.448,1,1v6h6c0.552,0,1,0.448,1,1s-0.448,1-1,1h-6v6
	C36,42.552,35.552,43,35,43z"/>
<line style="fill:none;stroke:#000000;stroke-width:3;stroke-linecap:round;stroke-linejoin:round;stroke-miterlimit:10;" x1="16.5" y1="12.5" x2="5.214" y2="12.5"/>
<g>
	<path style="fill:none;stroke:#000000;stroke-width:3;stroke-linecap:round;stroke-linejoin:round;stroke-miterlimit:10;" d="
		M9.5,17.5l-5-5l5-5"/>
</g>
<path d="M35,22c-0.338,0-0.669,0.025-1,0.051V7.5C34,6.122,32.878,5,31.5,5h-11C19.122,5,18,6.122,18,7.5v33
	c0,1.378,1.122,2.5,2.5,2.5h4.267c0.926,1.183,2.051,2.197,3.327,3H20.5c-3.033,0-5.5-2.467-5.5-5.5v-33C15,4.467,17.467,2,20.5,2
	h11C34.533,2,37,4.467,37,7.5v14.669C36.346,22.068,35.682,22,35,22z"/>
</svg>