<svg xmlns="http://www.w3.org/2000/svg"  viewBox="0 0 48 48" width="144px" height="144px"><path d="M 11.5 6 C 8.4802259 6 6 8.4802259 6 11.5 L 6 15.5 A 1.50015 1.50015 0 1 0 9 15.5 L 9 11.5 C 9 10.101774 10.101774 9 11.5 9 L 36.5 9 C 37.898226 9 39 10.101774 39 11.5 L 39 36.5 C 39 37.898226 37.898226 39 36.5 39 L 11.5 39 C 10.101774 39 9 37.898226 9 36.5 L 9 32.5 A 1.50015 1.50015 0 1 0 6 32.5 L 6 36.5 C 6 39.519774 8.4802259 42 11.5 42 L 36.5 42 C 39.519774 42 42 39.519774 42 36.5 L 42 11.5 C 42 8.4802259 39.519774 6 36.5 6 L 11.5 6 z M 13.470703 16.486328 A 1.50015 1.50015 0 0 0 12.439453 16.939453 L 6.4394531 22.939453 A 1.50015 1.50015 0 0 0 6.4394531 25.060547 L 12.439453 31.060547 A 1.50015 1.50015 0 1 0 14.560547 28.939453 L 11.121094 25.5 L 29.5 25.5 A 1.50015 1.50015 0 1 0 29.5 22.5 L 11.121094 22.5 L 14.560547 19.060547 A 1.50015 1.50015 0 0 0 13.470703 16.486328 z"/></svg>