<svg xmlns="http://www.w3.org/2000/svg"  viewBox="0 0 48 48" width="144px" height="144px"><path d="M 11.5 6 C 8.4802259 6 6 8.4802259 6 11.5 L 6 36.5 C 6 39.519774 8.4802259 42 11.5 42 L 36.5 42 C 39.519774 42 42 39.519774 42 36.5 L 42 32.5 A 1.50015 1.50015 0 1 0 39 32.5 L 39 36.5 C 39 37.898226 37.898226 39 36.5 39 L 11.5 39 C 10.101774 39 9 37.898226 9 36.5 L 9 11.5 C 9 10.101774 10.101774 9 11.5 9 L 36.5 9 C 37.898226 9 39 10.101774 39 11.5 L 39 15.5 A 1.50015 1.50015 0 1 0 42 15.5 L 42 11.5 C 42 8.4802259 39.519774 6 36.5 6 L 11.5 6 z M 34.484375 16.484375 A 1.50015 1.50015 0 0 0 33.439453 19.060547 L 36.878906 22.5 L 18.5 22.5 A 1.50015 1.50015 0 1 0 18.5 25.5 L 36.878906 25.5 L 33.439453 28.939453 A 1.50015 1.50015 0 1 0 35.560547 31.060547 L 41.560547 25.060547 A 1.50015 1.50015 0 0 0 41.560547 22.939453 L 35.560547 16.939453 A 1.50015 1.50015 0 0 0 34.484375 16.484375 z"/></svg>