<svg xmlns="http://www.w3.org/2000/svg" xmlns:xlink="http://www.w3.org/1999/xlink" width="500" zoomAndPan="magnify" viewBox="0 0 375 374.999991" height="500" preserveAspectRatio="xMidYMid meet" version="1.2"><defs><clipPath id="5f0f5fd066"><path d="M 0 44.140625 L 375 44.140625 L 375 330.640625 L 0 330.640625 Z M 0 44.140625 "/></clipPath></defs><g id="219e313f8a"><g clip-rule="nonzero" clip-path="url(#5f0f5fd066)"><path style=" stroke:none;fill-rule:nonzero;fill:#000000;fill-opacity:1;" d="M 363.9375 66.179688 C 363.9375 60.097656 358.996094 55.160156 352.910156 55.160156 L 22.089844 55.160156 C 16.003906 55.160156 11.0625 60.097656 11.0625 66.179688 L 11.0625 308.601562 C 11.0625 314.683594 16.003906 319.621094 22.089844 319.621094 L 352.910156 319.621094 C 358.996094 319.621094 363.9375 314.683594 363.9375 308.601562 Z M 374.964844 66.179688 L 374.964844 308.601562 C 374.964844 320.777344 365.09375 330.640625 352.910156 330.640625 L 22.089844 330.640625 C 9.90625 330.640625 0.0351562 320.777344 0.0351562 308.601562 L 0.0351562 66.179688 C 0.0351562 54.003906 9.90625 44.140625 22.089844 44.140625 L 352.910156 44.140625 C 365.09375 44.140625 374.964844 54.003906 374.964844 66.179688 Z M 374.964844 66.179688 "/></g><path style="fill:none;stroke-width:20;stroke-linecap:round;stroke-linejoin:miter;stroke:#000000;stroke-opacity:1;stroke-miterlimit:4;" d="M 9.999998 9.999228 L 176.567717 9.999228 " transform="matrix(0.75,0,0,0.75,37.500002,89.367767)"/><path style="fill:none;stroke-width:20;stroke-linecap:round;stroke-linejoin:miter;stroke:#000000;stroke-opacity:1;stroke-miterlimit:4;" d="M 9.999998 9.999622 L 176.567717 9.999622 " transform="matrix(0.75,0,0,0.75,37.500002,134.683878)"/><path style="fill:none;stroke-width:20;stroke-linecap:round;stroke-linejoin:miter;stroke:#000000;stroke-opacity:1;stroke-miterlimit:4;" d="M 9.999998 10.000016 L 176.567717 10.000016 " transform="matrix(0.75,0,0,0.75,37.500002,179.999988)"/><path style="fill:none;stroke-width:20;stroke-linecap:round;stroke-linejoin:miter;stroke:#000000;stroke-opacity:1;stroke-miterlimit:4;" d="M 9.999998 10.000391 L 176.567717 10.000391 " transform="matrix(0.75,0,0,0.75,37.500002,225.316113)"/><path style="fill:none;stroke-width:20;stroke-linecap:round;stroke-linejoin:miter;stroke:#000000;stroke-opacity:1;stroke-miterlimit:4;" d="M 9.999998 10.000805 L 176.567717 10.000805 " transform="matrix(0.75,0,0,0.75,37.500002,270.632209)"/><path style="fill:none;stroke-width:20;stroke-linecap:round;stroke-linejoin:miter;stroke:#000000;stroke-opacity:1;stroke-miterlimit:4;" d="M 10.002556 9.999228 L 176.570276 9.999228 " transform="matrix(0.75,0,0,0.75,197.572302,89.367767)"/><path style="fill:none;stroke-width:20;stroke-linecap:round;stroke-linejoin:miter;stroke:#000000;stroke-opacity:1;stroke-miterlimit:4;" d="M 10.002556 9.999622 L 176.570276 9.999622 " transform="matrix(0.75,0,0,0.75,197.572302,134.683878)"/><path style="fill:none;stroke-width:20;stroke-linecap:round;stroke-linejoin:miter;stroke:#000000;stroke-opacity:1;stroke-miterlimit:4;" d="M 10.002556 10.000016 L 176.570276 10.000016 " transform="matrix(0.75,0,0,0.75,197.572302,179.999988)"/><path style="fill:none;stroke-width:20;stroke-linecap:round;stroke-linejoin:miter;stroke:#000000;stroke-opacity:1;stroke-miterlimit:4;" d="M 10.002556 10.000391 L 176.570276 10.000391 " transform="matrix(0.75,0,0,0.75,197.572302,225.316113)"/><path style="fill:none;stroke-width:20;stroke-linecap:round;stroke-linejoin:miter;stroke:#000000;stroke-opacity:1;stroke-miterlimit:4;" d="M 10.002556 10.000805 L 176.570276 10.000805 " transform="matrix(0.75,0,0,0.75,197.572302,270.632209)"/></g></svg>