<svg xmlns="http://www.w3.org/2000/svg"  viewBox="0 0 48 48" width="144px" height="144px"><path d="M 26.886719 3.0234375 C 26.437415 3.0492805 25.990861 3.1581308 25.574219 3.3847656 C 24.740935 3.8380352 24.23601 4.6408958 23.933594 5.484375 A 1.50015 1.50015 0 0 0 23.931641 5.4863281 C 23.856851 5.6965582 23.895729 5.5996163 23.880859 5.6503906 C 23.865989 5.7011646 23.846326 5.768146 23.822266 5.8515625 C 23.774136 6.0183955 23.709041 6.2482122 23.630859 6.5214844 C 23.474496 7.0680287 23.269926 7.787416 23.066406 8.5019531 C 22.659368 9.9310274 22.255859 11.345703 22.255859 11.345703 A 1.50015 1.50015 0 0 0 22.255859 11.349609 C 22.141471 11.755416 22.046189 11.970637 22.005859 12.033203 A 1.50015 1.50015 0 0 0 22.003906 12.037109 C 20.528039 14.338252 18.938262 16.655605 17.394531 19 L 10.5 19 C 8.0324991 19 6 21.032499 6 23.5 L 6 39.5 C 6 41.967501 8.0324991 44 10.5 44 L 14.5 44 C 15.757335 44 16.892811 43.465209 17.712891 42.621094 C 20.020827 43.120886 22.596814 43.674636 24.695312 44.117188 C 25.795053 44.349109 26.761579 44.550006 27.490234 44.697266 C 28.21796 44.844337 28.488997 44.922925 28.96875 44.96875 C 29.276882 44.99849 29.582707 45.013672 29.884766 45.013672 C 34.166546 45.013672 37.951276 42.101357 39.046875 37.871094 C 39.884581 34.63323 41.600002 27.921603 41.607422 27.892578 C 41.746989 27.37849 41.941717 26.687301 41.986328 25.859375 A 1.50015 1.50015 0 0 0 41.986328 25.857422 C 42.082078 24.068723 41.461123 22.328247 40.242188 21.039062 A 1.50015 1.50015 0 0 0 40.242188 21.037109 C 39.003328 19.728222 37.266509 19.003801 35.439453 19 A 1.50015 1.50015 0 0 0 35.435547 19 L 31.466797 19 C 31.818422 17.742495 32.16537 16.527227 32.417969 15.541016 A 1.50015 1.50015 0 0 0 32.417969 15.539062 C 33.021899 13.169223 33.163006 11.052777 32.796875 9.0214844 A 1.50015 1.50015 0 0 0 32.796875 9.0195312 C 32.612962 8.0064557 32.266053 6.5283049 31.216797 5.1679688 C 30.454227 4.1798868 29.406708 3.4604803 28.21875 3.1621094 A 1.50015 1.50015 0 0 0 28.214844 3.1621094 C 27.787706 3.0556602 27.336023 2.9975943 26.886719 3.0234375 z M 27.083984 6.0097656 C 27.153229 6.0089389 27.277677 6.0200946 27.488281 6.0722656 C 28.020323 6.2058951 28.434367 6.4720819 28.841797 7 C 29.43854 7.7736637 29.69161 8.705806 29.845703 9.5546875 C 30.125167 11.106826 30.039576 12.7275 29.511719 14.798828 C 29.151131 16.206389 28.056641 20.09375 28.056641 20.09375 A 1.50015 1.50015 0 0 0 29.5 22 L 35.435547 22 C 36.491612 22.0027 37.39379 22.393048 38.0625 23.099609 C 38.717564 23.792425 39.04448 24.683965 38.990234 25.697266 C 38.966844 26.13134 38.851324 26.59751 38.712891 27.107422 A 1.50015 1.50015 0 0 0 38.707031 27.128906 C 38.707031 27.128906 36.979062 33.886003 36.142578 37.119141 C 35.380177 40.062877 32.818985 42.013672 29.884766 42.013672 C 29.676824 42.013672 29.467681 42.002682 29.257812 41.982422 A 1.50015 1.50015 0 0 0 29.255859 41.982422 C 29.484761 42.004222 28.797548 41.902023 28.083984 41.757812 C 27.370421 41.613604 26.409589 41.412593 25.314453 41.181641 C 23.401221 40.778161 21.082509 40.278628 18.935547 39.814453 C 18.94375 39.705129 19 39.611242 19 39.5 L 19 22.011719 C 20.770748 19.246238 22.705347 16.498683 24.527344 13.658203 L 24.529297 13.65625 C 24.857875 13.14567 25.005183 12.649533 25.142578 12.162109 C 25.143578 12.158509 25.544977 10.748377 25.951172 9.3222656 C 26.154528 8.6083028 26.357942 7.891987 26.513672 7.3476562 C 26.591532 7.0754909 26.658135 6.8463076 26.705078 6.6835938 C 26.728548 6.6022368 26.746996 6.5377315 26.759766 6.4941406 C 26.916091 6.0606215 27.022027 6.0117998 27.007812 6.0195312 C 27.000698 6.0234013 27.014739 6.0105924 27.083984 6.0097656 z M 10.5 22 L 16 22 L 16 39.5 C 16 40.346499 15.346499 41 14.5 41 L 10.5 41 C 9.6535009 41 9 40.346499 9 39.5 L 9 23.5 C 9 22.653501 9.6535009 22 10.5 22 z"/></svg>