<svg xmlns="http://www.w3.org/2000/svg"  viewBox="0 0 48 48" width="144px" height="144px"><path d="M 12.5 4 C 10.032499 4 8 6.0324991 8 8.5 L 8 39.5 C 8 41.967501 10.032499 44 12.5 44 L 35.5 44 C 37.967501 44 40 41.967501 40 39.5 L 40 8.5 C 40 6.0324991 37.967501 4 35.5 4 L 12.5 4 z M 12.5 7 L 35.5 7 C 36.346499 7 37 7.6535009 37 8.5 L 37 39.5 C 37 40.346499 36.346499 41 35.5 41 L 12.5 41 C 11.653501 41 11 40.346499 11 39.5 L 11 8.5 C 11 7.6535009 11.653501 7 12.5 7 z M 15.5 12 A 1.50015 1.50015 0 1 0 15.5 15 L 32.5 15 A 1.50015 1.50015 0 1 0 32.5 12 L 15.5 12 z M 15.5 19 A 1.50015 1.50015 0 1 0 15.5 22 L 32.5 22 A 1.50015 1.50015 0 1 0 32.5 19 L 15.5 19 z M 15.5 26 A 1.50015 1.50015 0 1 0 15.5 29 L 32.5 29 A 1.50015 1.50015 0 1 0 32.5 26 L 15.5 26 z M 15.5 33 A 1.50015 1.50015 0 1 0 15.5 36 L 32.5 36 A 1.50015 1.50015 0 1 0 32.5 33 L 15.5 33 z"/></svg>