<svg xmlns="http://www.w3.org/2000/svg"  viewBox="0 0 48 48" width="144px" height="144px"><path d="M 24 4 C 23.724491 4 23.547654 4.0195014 23.464844 4.0214844 A 1.50015 1.50015 0 0 0 22 5.5214844 L 22 8.5 A 1.50015 1.50015 0 1 0 25 8.5 L 25 7.0996094 C 33.929057 7.6252519 41 14.93632 41 24 C 41 33.406292 33.406292 41 24 41 C 14.593708 41 7 33.406292 7 24 C 7 19.297442 8.9011155 15.058788 11.978516 11.980469 A 1.50015 1.50015 0 1 0 9.8574219 9.859375 C 6.2408216 13.477056 4 18.486558 4 24 C 4 35.027708 12.972292 44 24 44 C 35.027708 44 44 35.027708 44 24 C 44 12.972292 35.027708 4 24 4 z M 15.484375 13.984375 A 1.50015 1.50015 0 0 0 14.439453 16.560547 L 22.005859 24.126953 A 2 2 0 0 0 24 26 A 2 2 0 0 0 24.126953 22.005859 L 16.560547 14.439453 A 1.50015 1.50015 0 0 0 15.484375 13.984375 z"/></svg>