<svg xmlns="http://www.w3.org/2000/svg" xmlns:xlink="http://www.w3.org/1999/xlink" width="500" zoomAndPan="magnify" viewBox="0 0 375 374.999991" height="500" preserveAspectRatio="xMidYMid meet" version="1.2"><defs><clipPath id="bc1010086b"><path d="M 44.355469 0 L 330.855469 0 L 330.855469 374.996094 L 44.355469 374.996094 Z M 44.355469 0 "/></clipPath></defs><g id="5c107f98ae"><g clip-rule="nonzero" clip-path="url(#bc1010086b)"><path style=" stroke:none;fill-rule:nonzero;fill:#000000;fill-opacity:1;" d="M 308.816406 363.933594 C 314.898438 363.933594 319.835938 358.992188 319.835938 352.90625 L 319.835938 22.085938 C 319.835938 16 314.898438 11.058594 308.816406 11.058594 L 66.394531 11.058594 C 60.3125 11.058594 55.375 16 55.375 22.085938 L 55.375 352.90625 C 55.375 358.992188 60.3125 363.933594 66.394531 363.933594 Z M 308.816406 374.960938 L 66.394531 374.960938 C 54.21875 374.960938 44.355469 365.089844 44.355469 352.90625 L 44.355469 22.085938 C 44.355469 9.902344 54.21875 0.03125 66.394531 0.03125 L 308.816406 0.03125 C 320.992188 0.03125 330.855469 9.902344 330.855469 22.085938 L 330.855469 352.90625 C 330.855469 365.089844 320.992188 374.960938 308.816406 374.960938 Z M 308.816406 374.960938 "/></g><path style="fill:none;stroke-width:20;stroke-linecap:round;stroke-linejoin:miter;stroke:#000000;stroke-opacity:1;stroke-miterlimit:4;" d="M 10.001517 9.99928 L 257.147263 9.99928 " transform="matrix(0.749605,0,0,0.749605,87.319218,44.36777)"/><path style="fill:none;stroke-width:20;stroke-linecap:round;stroke-linejoin:miter;stroke:#000000;stroke-opacity:1;stroke-miterlimit:4;" d="M 10.001517 9.999713 L 257.147263 9.999713 " transform="matrix(0.749605,0,0,0.749605,87.319218,89.683852)"/><path style="fill:none;stroke-width:20;stroke-linecap:round;stroke-linejoin:miter;stroke:#000000;stroke-opacity:1;stroke-miterlimit:4;" d="M 10.001517 10.000068 L 257.147263 10.000068 " transform="matrix(0.749605,0,0,0.749605,87.319218,134.999991)"/><path style="fill:none;stroke-width:20;stroke-linecap:round;stroke-linejoin:miter;stroke:#000000;stroke-opacity:1;stroke-miterlimit:4;" d="M 10.001517 10.000463 L 257.147263 10.000463 " transform="matrix(0.749605,0,0,0.749605,87.319218,180.316102)"/><path style="fill:none;stroke-width:20;stroke-linecap:round;stroke-linejoin:miter;stroke:#000000;stroke-opacity:1;stroke-miterlimit:4;" d="M 10.001517 10.00078 L 257.147263 10.00078 " transform="matrix(0.749605,0,0,0.749605,87.319218,225.63227)"/><path style="fill:none;stroke-width:20;stroke-linecap:round;stroke-linejoin:miter;stroke:#000000;stroke-opacity:1;stroke-miterlimit:4;" d="M 10.001517 10.000784 L 257.147263 10.000784 " transform="matrix(0.749605,0,0,0.749605,87.319218,270.632267)"/><path style="fill:none;stroke-width:20;stroke-linecap:round;stroke-linejoin:miter;stroke:#000000;stroke-opacity:1;stroke-miterlimit:4;" d="M 10.001517 10.000788 L 257.147263 10.000788 " transform="matrix(0.749605,0,0,0.749605,87.319218,315.632264)"/></g></svg>