<svg xmlns="http://www.w3.org/2000/svg"  viewBox="0 0 48 48" width="144px" height="144px"><path d="M 11.5 6 C 8.4802259 6 6 8.4802259 6 11.5 L 6 36.5 C 6 39.519774 8.4802259 42 11.5 42 L 36.5 42 C 39.519774 42 42 39.519774 42 36.5 L 42 11.5 C 42 8.4802259 39.519774 6 36.5 6 L 11.5 6 z M 11.5 9 L 36.5 9 C 37.898226 9 39 10.101774 39 11.5 L 39 36.5 C 39 37.898226 37.898226 39 36.5 39 L 11.5 39 C 10.101774 39 9 37.898226 9 36.5 L 9 11.5 C 9 10.101774 10.101774 9 11.5 9 z M 30.5 24 A 1.50015 1.50015 0 1 0 30.5 27 L 33 27 L 33 31 L 25.121094 31 L 25.560547 30.560547 A 1.50015 1.50015 0 0 0 24.470703 27.986328 A 1.50015 1.50015 0 0 0 23.439453 28.439453 L 20.439453 31.439453 A 1.50015 1.50015 0 0 0 20.439453 33.560547 L 23.439453 36.560547 A 1.50015 1.50015 0 1 0 25.560547 34.439453 L 25.121094 34 L 33.5 34 C 34.863594 34 36 32.863594 36 31.5 L 36 26.5 C 36 25.136406 34.863594 24 33.5 24 L 30.5 24 z"/></svg>