<svg xmlns="http://www.w3.org/2000/svg" xmlns:xlink="http://www.w3.org/1999/xlink" width="500" zoomAndPan="magnify" viewBox="0 0 375 374.999991" height="500" preserveAspectRatio="xMidYMid meet" version="1.2"><defs><clipPath id="cac9a4ad85"><path d="M 44.355469 0 L 330.855469 0 L 330.855469 374.996094 L 44.355469 374.996094 Z M 44.355469 0 "/></clipPath></defs><g id="6363776955"><g clip-rule="nonzero" clip-path="url(#cac9a4ad85)"><path style=" stroke:none;fill-rule:nonzero;fill:#000000;fill-opacity:1;" d="M 308.816406 363.933594 C 314.898438 363.933594 319.835938 358.992188 319.835938 352.90625 L 319.835938 22.085938 C 319.835938 16 314.898438 11.058594 308.816406 11.058594 L 66.394531 11.058594 C 60.3125 11.058594 55.375 16 55.375 22.085938 L 55.375 352.90625 C 55.375 358.992188 60.3125 363.933594 66.394531 363.933594 Z M 308.816406 374.960938 L 66.394531 374.960938 C 54.21875 374.960938 44.355469 365.089844 44.355469 352.90625 L 44.355469 22.085938 C 44.355469 9.902344 54.21875 0.03125 66.394531 0.03125 L 308.816406 0.03125 C 320.992188 0.03125 330.855469 9.902344 330.855469 22.085938 L 330.855469 352.90625 C 330.855469 365.089844 320.992188 374.960938 308.816406 374.960938 Z M 308.816406 374.960938 "/></g><path style="fill:none;stroke-width:20;stroke-linecap:round;stroke-linejoin:miter;stroke:#000000;stroke-opacity:1;stroke-miterlimit:4;" d="M 9.998712 9.999227 L 115.61851 9.999227 " transform="matrix(0.75,0,0,0.75,79.571279,44.367767)"/><path style="fill:none;stroke-width:20;stroke-linecap:round;stroke-linejoin:miter;stroke:#000000;stroke-opacity:1;stroke-miterlimit:4;" d="M 9.998712 9.999628 L 115.61851 9.999628 " transform="matrix(0.75,0,0,0.75,79.571279,89.683873)"/><path style="fill:none;stroke-width:20;stroke-linecap:round;stroke-linejoin:miter;stroke:#000000;stroke-opacity:1;stroke-miterlimit:4;" d="M 9.998712 10.000012 L 115.61851 10.000012 " transform="matrix(0.75,0,0,0.75,79.571279,134.999991)"/><path style="fill:none;stroke-width:20;stroke-linecap:round;stroke-linejoin:miter;stroke:#000000;stroke-opacity:1;stroke-miterlimit:4;" d="M 9.998712 10.000407 L 115.61851 10.000407 " transform="matrix(0.75,0,0,0.75,79.571279,180.316102)"/><path style="fill:none;stroke-width:20;stroke-linecap:round;stroke-linejoin:miter;stroke:#000000;stroke-opacity:1;stroke-miterlimit:4;" d="M 9.998712 10.00082 L 115.61851 10.00082 " transform="matrix(0.75,0,0,0.75,79.571279,225.632198)"/><path style="fill:none;stroke-width:20;stroke-linecap:round;stroke-linejoin:miter;stroke:#000000;stroke-opacity:1;stroke-miterlimit:4;" d="M 9.998712 10.000805 L 115.61851 10.000805 " transform="matrix(0.75,0,0,0.75,79.571279,270.632209)"/><path style="fill:none;stroke-width:20;stroke-linecap:round;stroke-linejoin:miter;stroke:#000000;stroke-opacity:1;stroke-miterlimit:4;" d="M 9.998712 10.000809 L 115.61851 10.000809 " transform="matrix(0.75,0,0,0.75,79.571279,315.632206)"/><path style="fill:none;stroke-width:20;stroke-linecap:round;stroke-linejoin:miter;stroke:#000000;stroke-opacity:1;stroke-miterlimit:4;" d="M 10.002199 9.999227 L 115.621998 9.999227 " transform="matrix(0.75,0,0,0.75,203.91632,44.367767)"/><path style="fill:none;stroke-width:20;stroke-linecap:round;stroke-linejoin:miter;stroke:#000000;stroke-opacity:1;stroke-miterlimit:4;" d="M 10.002199 9.999628 L 115.621998 9.999628 " transform="matrix(0.75,0,0,0.75,203.91632,89.683873)"/><path style="fill:none;stroke-width:20;stroke-linecap:round;stroke-linejoin:miter;stroke:#000000;stroke-opacity:1;stroke-miterlimit:4;" d="M 10.002199 10.000012 L 115.621998 10.000012 " transform="matrix(0.75,0,0,0.75,203.91632,134.999991)"/><path style="fill:none;stroke-width:20;stroke-linecap:round;stroke-linejoin:miter;stroke:#000000;stroke-opacity:1;stroke-miterlimit:4;" d="M 10.002199 10.000407 L 115.621998 10.000407 " transform="matrix(0.75,0,0,0.75,203.91632,180.316102)"/><path style="fill:none;stroke-width:20;stroke-linecap:round;stroke-linejoin:miter;stroke:#000000;stroke-opacity:1;stroke-miterlimit:4;" d="M 10.002199 10.00082 L 115.621998 10.00082 " transform="matrix(0.75,0,0,0.75,203.91632,225.632198)"/><path style="fill:none;stroke-width:20;stroke-linecap:round;stroke-linejoin:miter;stroke:#000000;stroke-opacity:1;stroke-miterlimit:4;" d="M 10.002199 10.000805 L 115.621998 10.000805 " transform="matrix(0.75,0,0,0.75,203.91632,270.632209)"/><path style="fill:none;stroke-width:20;stroke-linecap:round;stroke-linejoin:miter;stroke:#000000;stroke-opacity:1;stroke-miterlimit:4;" d="M 10.002199 10.000809 L 115.621998 10.000809 " transform="matrix(0.75,0,0,0.75,203.91632,315.632206)"/></g></svg>