<svg xmlns="http://www.w3.org/2000/svg"  viewBox="0 0 48 48" width="144px" height="144px"><path d="M 24 4 C 15.44087 4 8.1164334 9.3892103 5.2695312 16.972656 A 1.50015 1.50015 0 1 0 8.078125 18.027344 C 10.495223 11.58879 16.69913 7 24 7 C 33.406292 7 41 14.593708 41 24 C 41 33.406292 33.406292 41 24 41 C 16.69913 41 10.495223 36.41121 8.078125 29.972656 A 1.50015 1.50015 0 1 0 5.2695312 31.027344 C 8.1164333 38.61079 15.44087 44 24 44 C 35.027708 44 44 35.027708 44 24 C 44 12.972292 35.027708 4 24 4 z M 23.484375 16.484375 A 1.50015 1.50015 0 0 0 22.439453 19.060547 L 25.876953 22.498047 L 5.5019531 22.480469 A 1.50015 1.50015 0 1 0 5.4980469 25.480469 L 25.880859 25.498047 L 22.439453 28.939453 A 1.50015 1.50015 0 1 0 24.560547 31.060547 L 30.560547 25.060547 A 1.50015 1.50015 0 0 0 30.560547 22.939453 L 24.560547 16.939453 A 1.50015 1.50015 0 0 0 23.484375 16.484375 z"/></svg>