<svg xmlns="http://www.w3.org/2000/svg"  viewBox="0 0 48 48" width="144px" height="144px"><path d="M 30.455078 1 A 1.50015 1.50015 0 0 0 29.539062 1.3476562 L 24.095703 5.8828125 A 1.50015 1.50015 0 0 0 24.09375 5.8847656 C 24.004825 5.9591188 23.892963 6 23.775391 6 L 11.5 6 C 8.4802259 6 6 8.4802259 6 11.5 L 6 36.5 C 6 39.519774 8.4802259 42 11.5 42 L 23.775391 42 C 24.593188 42 25.386827 41.712378 26.015625 41.1875 L 31.460938 36.652344 A 1.50015 1.50015 0 0 0 32 35.5 L 32 11.5 A 1.5 1.5 0 0 0 32 8.5 L 32 2.5 A 1.50015 1.50015 0 0 0 30.455078 1 z M 29 5.7011719 L 29 34.796875 L 24.095703 38.882812 A 1.50015 1.50015 0 0 0 24.09375 38.884766 C 24.004825 38.95907 23.892963 39 23.775391 39 L 11.5 39 C 10.101774 39 9 37.898226 9 36.5 L 9 11.5 C 9 10.101774 10.101774 9 11.5 9 L 23.775391 9 C 24.593188 9 25.386827 8.7123785 26.015625 8.1875 L 29 5.7011719 z M 37 8.5 A 1.5 1.5 0 0 0 37 11.5 A 1.5 1.5 0 0 0 37 8.5 z M 42 8.5 A 1.5 1.5 0 0 0 42 11.5 A 1.5 1.5 0 0 0 42 8.5 z M 42 13.5 A 1.5 1.5 0 0 0 42 16.5 A 1.5 1.5 0 0 0 42 13.5 z M 21.498047 16 C 21.306047 16 21.110781 16.036281 20.925781 16.113281 C 20.364781 16.345281 20 16.893 20 17.5 L 20 19 L 17.5 19 C 14.467 19 12 21.468 12 24.5 L 12 28.5 C 12 29.328 12.671 30 13.5 30 C 14.329 30 15 29.328 15 28.5 L 15 24.5 C 15 23.121 16.122 22 17.5 22 L 20 22 L 20 23.5 C 20 24.107 20.365781 24.652766 20.925781 24.884766 C 21.487781 25.118766 22.132547 24.989547 22.560547 24.560547 L 25.560547 21.560547 C 26.146547 20.975547 26.146547 20.024453 25.560547 19.439453 L 22.560547 16.439453 C 22.273547 16.152453 21.889047 16 21.498047 16 z M 42 18.5 A 1.5 1.5 0 0 0 42 21.5 A 1.5 1.5 0 0 0 42 18.5 z M 42 23.5 A 1.5 1.5 0 0 0 42 26.5 A 1.5 1.5 0 0 0 42 23.5 z M 42 28.5 A 1.5 1.5 0 0 0 42 31.5 A 1.5 1.5 0 0 0 42 28.5 z M 42 33.5 A 1.5 1.5 0 0 0 42 36.5 A 1.5 1.5 0 0 0 42 33.5 z M 32 38.5 A 1.5 1.5 0 0 0 32 41.5 A 1.5 1.5 0 0 0 32 38.5 z M 37 38.5 A 1.5 1.5 0 0 0 37 41.5 A 1.5 1.5 0 0 0 37 38.5 z M 42 38.5 A 1.5 1.5 0 0 0 42 41.5 A 1.5 1.5 0 0 0 42 38.5 z"/></svg>