<svg xmlns="http://www.w3.org/2000/svg"  viewBox="0 0 48 48" width="144px" height="144px"><path fill="#ffffff" d="M 40.46875 6.9882812 A 1.50015 1.50015 0 0 0 39.667969 7.2519531 C 39.667969 7.2519531 35.454545 10 30.5 10 C 28.022727 10 26.133104 9.3384883 24.152344 8.5957031 C 22.171583 7.852918 20.083333 7 17.5 7 C 13.928062 7 11 9.9280619 11 13.5 L 11 16 L 8.5 16 C 5.4802259 16 3 18.480226 3 21.5 L 3 35.5 C 3 38.519774 5.4802259 41 8.5 41 L 39.5 41 C 42.519774 41 45 38.519774 45 35.5 L 45 21.5 C 45 18.480226 42.519774 16 39.5 16 L 14 16 L 14 13.5 C 14 11.549938 15.549938 10 17.5 10 C 19.416667 10 21.078417 10.647082 23.097656 11.404297 C 25.116896 12.161512 27.477273 13 30.5 13 C 36.545455 13 41.332031 9.7480469 41.332031 9.7480469 A 1.50015 1.50015 0 0 0 40.46875 6.9882812 z M 8.5 19 L 12.253906 19 A 1.50015 1.50015 0 0 0 12.740234 19 L 39.5 19 C 40.898226 19 42 20.101774 42 21.5 L 42 35.5 C 42 36.898226 40.898226 38 39.5 38 L 8.5 38 C 7.1017741 38 6 36.898226 6 35.5 L 6 21.5 C 6 20.101774 7.1017741 19 8.5 19 z M 11 22 C 10.448 22 10 22.448 10 23 L 10 24 C 10 24.552 10.448 25 11 25 L 12 25 C 12.552 25 13 24.552 13 24 L 13 23 C 13 22.448 12.552 22 12 22 L 11 22 z M 16 22 C 15.448 22 15 22.448 15 23 L 15 24 C 15 24.552 15.448 25 16 25 L 17 25 C 17.552 25 18 24.552 18 24 L 18 23 C 18 22.448 17.552 22 17 22 L 16 22 z M 21 22 C 20.448 22 20 22.448 20 23 L 20 24 C 20 24.552 20.448 25 21 25 L 22 25 C 22.552 25 23 24.552 23 24 L 23 23 C 23 22.448 22.552 22 22 22 L 21 22 z M 26 22 C 25.448 22 25 22.448 25 23 L 25 24 C 25 24.552 25.448 25 26 25 L 27 25 C 27.552 25 28 24.552 28 24 L 28 23 C 28 22.448 27.552 22 27 22 L 26 22 z M 31 22 C 30.448 22 30 22.448 30 23 L 30 24 C 30 24.552 30.448 25 31 25 L 32 25 C 32.552 25 33 24.552 33 24 L 33 23 C 33 22.448 32.552 22 32 22 L 31 22 z M 36 22 C 35.448 22 35 22.448 35 23 L 35 24 C 35 24.552 35.448 25 36 25 L 37 25 C 37.552 25 38 24.552 38 24 L 38 23 C 38 22.448 37.552 22 37 22 L 36 22 z M 11 27 C 10.448 27 10 27.448 10 28 L 10 29 C 10 29.552 10.448 30 11 30 L 12 30 C 12.552 30 13 29.552 13 29 L 13 28 C 13 27.448 12.552 27 12 27 L 11 27 z M 16 27 C 15.448 27 15 27.448 15 28 L 15 29 C 15 29.552 15.448 30 16 30 L 17 30 C 17.552 30 18 29.552 18 29 L 18 28 C 18 27.448 17.552 27 17 27 L 16 27 z M 21 27 C 20.448 27 20 27.448 20 28 L 20 29 C 20 29.552 20.448 30 21 30 L 22 30 C 22.552 30 23 29.552 23 29 L 23 28 C 23 27.448 22.552 27 22 27 L 21 27 z M 26 27 C 25.448 27 25 27.448 25 28 L 25 29 C 25 29.552 25.448 30 26 30 L 27 30 C 27.552 30 28 29.552 28 29 L 28 28 C 28 27.448 27.552 27 27 27 L 26 27 z M 31 27 C 30.448 27 30 27.448 30 28 L 30 29 C 30 29.552 30.448 30 31 30 L 32 30 C 32.552 30 33 29.552 33 29 L 33 28 C 33 27.448 32.552 27 32 27 L 31 27 z M 36 27 C 35.448 27 35 27.448 35 28 L 35 29 C 35 29.552 35.448 30 36 30 L 37 30 C 37.552 30 38 29.552 38 29 L 38 28 C 38 27.448 37.552 27 37 27 L 36 27 z M 11 32 C 10.448 32 10 32.448 10 33 L 10 34 C 10 34.552 10.448 35 11 35 L 12 35 C 12.552 35 13 34.552 13 34 L 13 33 C 13 32.448 12.552 32 12 32 L 11 32 z M 16.5 32 A 1.50015 1.50015 0 1 0 16.5 35 L 31.5 35 A 1.50015 1.50015 0 1 0 31.5 32 L 16.5 32 z M 36 32 C 35.448 32 35 32.448 35 33 L 35 34 C 35 34.552 35.448 35 36 35 L 37 35 C 37.552 35 38 34.552 38 34 L 38 33 C 38 32.448 37.552 32 37 32 L 36 32 z"/></svg>