<svg xmlns="http://www.w3.org/2000/svg"  viewBox="0 0 48 48" width="144px" height="144px"><path fill="#ffffff" d="M 32.5 5 C 30.032499 5 28 7.0324991 28 9.5 L 28 10 L 5.5 10 A 1.50015 1.50015 0 1 0 5.5 13 L 28 13 L 28 13.5 C 28 15.967501 30.032499 18 32.5 18 C 34.967501 18 37 15.967501 37 13.5 L 37 13 L 42.5 13 A 1.50015 1.50015 0 1 0 42.5 10 L 37 10 L 37 9.5 C 37 7.0324991 34.967501 5 32.5 5 z M 32.5 8 C 33.346499 8 34 8.6535009 34 9.5 L 34 11.253906 A 1.50015 1.50015 0 0 0 34 11.740234 L 34 13.5 C 34 14.346499 33.346499 15 32.5 15 C 31.653501 15 31 14.346499 31 13.5 L 31 11.746094 A 1.50015 1.50015 0 0 0 31 11.259766 L 31 9.5 C 31 8.6535009 31.653501 8 32.5 8 z M 15.5 17.5 C 13.032499 17.5 11 19.532499 11 22 L 11 22.5 L 5.5 22.5 A 1.50015 1.50015 0 1 0 5.5 25.5 L 11 25.5 L 11 26 C 11 28.467501 13.032499 30.5 15.5 30.5 C 17.967501 30.5 20 28.467501 20 26 L 20 25.5 L 42.5 25.5 A 1.50015 1.50015 0 1 0 42.5 22.5 L 20 22.5 L 20 22 C 20 19.532499 17.967501 17.5 15.5 17.5 z M 15.5 20.5 C 16.346499 20.5 17 21.153501 17 22 L 17 23.753906 A 1.50015 1.50015 0 0 0 17 24.240234 L 17 26 C 17 26.846499 16.346499 27.5 15.5 27.5 C 14.653501 27.5 14 26.846499 14 26 L 14 24.246094 A 1.50015 1.50015 0 0 0 14 23.759766 L 14 22 C 14 21.153501 14.653501 20.5 15.5 20.5 z M 30.5 30 C 28.032499 30 26 32.032499 26 34.5 L 26 35 L 5.5 35 A 1.50015 1.50015 0 1 0 5.5 38 L 26 38 L 26 38.5 C 26 40.967501 28.032499 43 30.5 43 C 32.967501 43 35 40.967501 35 38.5 L 35 38 L 42.5 38 A 1.50015 1.50015 0 1 0 42.5 35 L 35 35 L 35 34.5 C 35 32.032499 32.967501 30 30.5 30 z M 30.5 33 C 31.346499 33 32 33.653501 32 34.5 L 32 36.253906 A 1.50015 1.50015 0 0 0 32 36.740234 L 32 38.5 C 32 39.346499 31.346499 40 30.5 40 C 29.653501 40 29 39.346499 29 38.5 L 29 36.746094 A 1.50015 1.50015 0 0 0 29 36.259766 L 29 34.5 C 29 33.653501 29.653501 33 30.5 33 z"/></svg>