/* XPM */
static char *ia_ellipse[]={
"20 20 3 1",
". c None",
"# c #303030",
"a c #C0C0E0",
"....................",
"....................",
"....................",
"....................",
"......#########.....",
".....#aaaaaaaaa#....",
"....#aaaaaaaaaaa#...",
"...#aaaaaaaaaaaaa#..",
"...#aaaaaaaaaaaaa#..",
"...#aaaaaaaaaaaaa#..",
"...#aaaaaaaaaaaaa#..",
"...#aaaaaaaaaaaaa#..",
"...#aaaaaaaaaaaaa#..",
"....#aaaaaaaaaaa#...",
".....#aaaaaaaaa#....",
"......#########.....",
"....................",
"....................",
"....................",
"....................",

};