<?xml version="1.0" standalone="no"?>
<!DOCTYPE svg PUBLIC "-//W3C//DTD SVG 20010904//EN"
 "http://www.w3.org/TR/2001/REC-SVG-20010904/DTD/svg10.dtd">
<svg version="1.0" xmlns="http://www.w3.org/2000/svg"
 width="20.000000pt" height="20.000000pt" viewBox="0 0 20.000000 20.000000"
 preserveAspectRatio="xMidYMid meet">

<g transform="translate(0.000000,20.000000) scale(0.100000,-0.100000)"
fill="#000000" stroke="none">
<path d="M47 142 c-22 -24 -21 -65 1 -85 26 -23 94 -22 115 1 22 24 21 65 -1
85 -26 23 -94 22 -115 -1z m111 -4 c15 -15 15 -61 0 -76 -16 -16 -90 -16 -106
0 -15 15 -15 61 0 76 7 7 30 12 53 12 23 0 46 -5 53 -12z"/>
</g>
</svg>
