<svg xmlns="http://www.w3.org/2000/svg"  viewBox="0 0 48 48" width="144px" height="144px"><path fill="#ffffff" d="M 24 4 C 22.125 4 20.528815 4.7571334 19.503906 5.9101562 C 18.478997 7.0631791 18 8.5416668 18 10 C 18 11.458333 18.478997 12.936821 19.503906 14.089844 C 20.241871 14.920055 21.278861 15.539351 22.5 15.824219 L 22.5 20 L 18.5 20 A 1.50015 1.50015 0 1 0 18.5 23 L 22.5 23 L 22.5 39.927734 C 18.006268 39.535202 14.026653 37.400983 11.220703 34.201172 L 12.496094 32.925781 C 12.986094 32.435781 13.135141 31.698594 12.869141 31.058594 C 12.603141 30.417594 11.978156 30 11.285156 30 L 6.7148438 30 C 5.7688437 30 5 30.767844 5 31.714844 L 5 36.285156 C 5 36.978156 5.4175937 37.604141 6.0585938 37.869141 C 6.6985937 38.134141 7.4357812 37.986094 7.9257812 37.496094 L 9.09375 36.328125 C 12.444646 40.071398 17.188154 42.544175 22.5 42.939453 L 22.5 43.5 A 1.50015 1.50015 0 1 0 25.5 43.5 L 25.5 42.9375 C 30.811142 42.542146 35.552864 40.069625 38.904297 36.326172 L 40.074219 37.496094 C 40.564219 37.986094 41.301406 38.135141 41.941406 37.869141 C 42.582406 37.603141 43 36.978156 43 36.285156 L 43 31.714844 C 43 30.768844 42.232156 30 41.285156 30 L 36.714844 30 C 36.021844 30 35.395859 30.417594 35.130859 31.058594 C 34.865859 31.698594 35.013906 32.435781 35.503906 32.925781 L 36.78125 34.203125 C 33.975966 37.40279 29.993952 39.533216 25.5 39.925781 L 25.5 23 L 29.5 23 A 1.50015 1.50015 0 1 0 29.5 20 L 25.5 20 L 25.5 15.824219 C 26.721139 15.539351 27.758129 14.920055 28.496094 14.089844 C 29.521003 12.936821 30 11.458333 30 10 C 30 8.5416668 29.521003 7.0631791 28.496094 5.9101562 C 27.471185 4.7571334 25.875 4 24 4 z M 24 7 C 25.124999 7 25.778816 7.3678666 26.253906 7.9023438 C 26.728997 8.4368209 27 9.2083332 27 10 C 27 10.791667 26.728997 11.563179 26.253906 12.097656 C 25.802031 12.606017 25.175333 12.952592 24.148438 12.986328 A 1.50015 1.50015 0 0 0 23.976562 12.978516 A 1.50015 1.50015 0 0 0 23.849609 12.986328 C 22.823956 12.95218 22.197666 12.605676 21.746094 12.097656 C 21.271003 11.563179 21 10.791667 21 10 C 21 9.2083332 21.271003 8.4368209 21.746094 7.9023438 C 22.221184 7.3678666 22.875001 7 24 7 z"/></svg>