<svg xmlns="http://www.w3.org/2000/svg"  viewBox="0 0 48 48" width="144px" height="144px"><path fill="#ffffff" d="M 11.5 6 C 8.4802259 6 6 8.4802259 6 11.5 L 6 36.5 C 6 39.519774 8.4802259 42 11.5 42 L 36.5 42 C 39.519774 42 42 39.519774 42 36.5 L 42 11.5 C 42 8.4802259 39.519774 6 36.5 6 L 11.5 6 z M 11.5 9 L 36.5 9 C 37.898226 9 39 10.101774 39 11.5 L 39 36.5 C 39 37.898226 37.898226 39 36.5 39 L 11.5 39 C 10.101774 39 9 37.898226 9 36.5 L 9 11.5 C 9 10.101774 10.101774 9 11.5 9 z M 34.470703 11.986328 A 1.50015 1.50015 0 0 0 34.308594 12 L 27.5 12 A 1.50015 1.50015 0 1 0 27.5 15 L 30.878906 15 L 15 30.878906 L 15 27.5 A 1.50015 1.50015 0 1 0 12 27.5 L 12 34.310547 A 1.50015 1.50015 0 0 0 13.691406 36 L 20.5 36 A 1.50015 1.50015 0 1 0 20.5 33 L 17.121094 33 L 33 17.121094 L 33 20.5 A 1.50015 1.50015 0 1 0 36 20.5 L 36 13.689453 A 1.50015 1.50015 0 0 0 34.470703 11.986328 z"/></svg>