<svg xmlns="http://www.w3.org/2000/svg"  viewBox="0 0 48 48" width="144px" height="144px"><path fill="#ffffff" d="M 23.976562 4.9785156 A 1.50015 1.50015 0 0 0 22.5 6.5 L 22.5 17.378906 L 19.560547 14.439453 A 1.50015 1.50015 0 1 0 17.439453 16.560547 L 22.939453 22.060547 A 1.50015 1.50015 0 0 0 24.021484 22.5 A 1.50015 1.50015 0 0 0 25.060547 22.060547 L 30.560547 16.560547 A 1.50015 1.50015 0 1 0 28.439453 14.439453 L 25.5 17.378906 L 25.5 6.5 A 1.50015 1.50015 0 0 0 23.976562 4.9785156 z M 24.021484 22.5 L 6.5 22.5 A 1.50015 1.50015 0 1 0 6.5 25.5 L 23.978516 25.5 L 41.5 25.5 A 1.50015 1.50015 0 1 0 41.5 22.5 L 24.021484 22.5 z M 23.978516 25.5 A 1.50015 1.50015 0 0 0 22.939453 25.939453 L 17.439453 31.439453 A 1.50015 1.50015 0 1 0 19.560547 33.560547 L 22.5 30.621094 L 22.5 41.5 A 1.50015 1.50015 0 1 0 25.5 41.5 L 25.5 30.621094 L 28.439453 33.560547 A 1.50015 1.50015 0 1 0 30.560547 31.439453 L 25.060547 25.939453 A 1.50015 1.50015 0 0 0 23.978516 25.5 z"/></svg>