<svg xmlns="http://www.w3.org/2000/svg" xmlns:xlink="http://www.w3.org/1999/xlink" width="500" zoomAndPan="magnify" viewBox="0 0 375 374.999991" height="500" preserveAspectRatio="xMidYMid meet" version="1.2"><defs><clipPath id="2aa2dddf3c"><path d="M 12.246094 12.25 L 362.746094 12.25 L 362.746094 362.75 L 12.246094 362.75 Z M 12.246094 12.25 "/></clipPath><clipPath id="246692bae4"><path d="M 362.746094 61.75 L 362.746094 313.25 C 362.746094 340.585938 340.585938 362.75 313.246094 362.75 L 61.746094 362.75 C 34.410156 362.75 12.246094 340.585938 12.246094 313.25 L 12.246094 61.75 C 12.246094 34.414062 34.410156 12.25 61.746094 12.25 L 313.246094 12.25 C 340.585938 12.25 362.746094 34.414062 362.746094 61.75 Z M 362.746094 61.75 "/></clipPath></defs><g id="c1a489e05d"><g clip-rule="nonzero" clip-path="url(#2aa2dddf3c)"><g clip-rule="nonzero" clip-path="url(#246692bae4)"><path style=" stroke:none;fill-rule:nonzero;fill:#1278be;fill-opacity:1;" d="M 362.746094 12.25 L 362.746094 362.75 L 12.246094 362.75 L 12.246094 12.25 Z M 362.746094 12.25 "/></g></g><path style=" stroke:none;fill-rule:nonzero;fill:#ffffff;fill-opacity:1;" d="M 62.5 0 C 28.074219 0 0 28.074219 0 62.5 L 0 312.5 C 0 346.921875 28.074219 375 62.5 375 L 312.5 375 C 346.921875 375 375 346.921875 375 312.5 L 375 62.5 C 375 28.074219 346.921875 0 312.5 0 Z M 62.5 17.855469 L 312.5 17.855469 C 337.261719 17.855469 357.144531 37.738281 357.144531 62.5 L 357.144531 312.5 C 357.144531 337.261719 337.261719 357.144531 312.5 357.144531 L 62.5 357.144531 C 37.738281 357.144531 17.855469 337.261719 17.855469 312.5 L 17.855469 62.5 C 17.855469 37.738281 37.738281 17.855469 62.5 17.855469 Z M 62.5 17.855469 "/><path style="fill:none;stroke-width:20;stroke-linecap:butt;stroke-linejoin:miter;stroke:#ffffff;stroke-opacity:1;stroke-miterlimit:4;" d="M -0.000006 10.000738 L 483.666692 10.000738 " transform="matrix(0.75,0,0,0.75,0.0000045,97.097103)"/><path style="fill:none;stroke-width:20;stroke-linecap:butt;stroke-linejoin:miter;stroke:#ffffff;stroke-opacity:1;stroke-miterlimit:4;" d="M -0.000619434 10.002515 L 483.666079 10.002515 " transform="matrix(0.75,0,0,0.75,12.250465,164.107489)"/><path style="fill:none;stroke-width:20;stroke-linecap:butt;stroke-linejoin:miter;stroke:#ffffff;stroke-opacity:1;stroke-miterlimit:4;" d="M -0.0003635 9.998211 L 483.666335 9.998211 " transform="matrix(0,0.75,-0.75,0,87.080689,12.254179)"/><path style="fill:none;stroke-width:20;stroke-linecap:butt;stroke-linejoin:miter;stroke:#ffffff;stroke-opacity:1;stroke-miterlimit:4;" d="M -0.0003635 10.000296 L 483.666335 10.000296 " transform="matrix(0,0.75,-0.75,0,187.496315,12.254179)"/></g></svg>