<?xml version="1.0" encoding="iso-8859-1"?>
<!-- Generator: Adobe Illustrator 24.3.0, SVG Export Plug-In . SVG Version: 6.00 Build 0)  -->
<svg version="1.1" id="Layer_1" xmlns="http://www.w3.org/2000/svg" xmlns:xlink="http://www.w3.org/1999/xlink" x="0px" y="0px"
	 viewBox="0 0 48 48" style="enable-background:new 0 0 48 48;" xml:space="preserve">
<path fill="#cc0000" transform="rotate(45, 35, 35)" d="M35,24c-6.075,0-11,4.925-11,11c0,6.075,4.925,11,11,11s11-4.925,11-11C46,28.925,41.075,24,35,24z M42,36h-6v6
	c0,0.552-0.448,1-1,1s-1-0.448-1-1v-6h-6c-0.552,0-1-0.448-1-1s0.448-1,1-1h6v-6c0-0.552,0.448-1,1-1s1,0.448,1,1v6h6
	c0.552,0,1,0.448,1,1S42.552,36,42,36z"/>
<line style="fill:none;stroke:#ffffff;stroke-width:3;stroke-linecap:round;stroke-linejoin:round;stroke-miterlimit:10;" x1="12.5" y1="16.5" x2="12.5" y2="5.214"/>
<g>
	<path style="fill:none;stroke:#ffffff;stroke-width:3;stroke-linecap:round;stroke-linejoin:round;stroke-miterlimit:10;" d="
		M17.5,9.5l-5-5l-5,5"/>
</g>
<path fill="#ffffff" d="M22,35c0-0.338,0.025-0.669,0.051-1H7.5C6.122,34,5,32.878,5,31.5v-11C5,19.122,6.122,18,7.5,18h33
	c1.378,0,2.5,1.122,2.5,2.5v4.267c1.183,0.926,2.197,2.051,3,3.327V20.5c0-3.033-2.467-5.5-5.5-5.5h-33C4.467,15,2,17.467,2,20.5v11
	C2,34.533,4.467,37,7.5,37h14.669C22.068,36.346,22,35.682,22,35z"/>
</svg>