<svg xmlns="http://www.w3.org/2000/svg"  viewBox="0 0 48 48" width="144px" height="144px"><path fill="#ffffff" d="M 18.5 6 C 15.480226 6 13 8.4802259 13 11.5 L 13 17.5 A 1.50015 1.50015 0 1 0 16 17.5 L 16 11.5 C 16 10.101774 17.101774 9 18.5 9 L 36.5 9 C 37.898226 9 39 10.101774 39 11.5 L 39 36.5 C 39 37.898226 37.898226 39 36.5 39 L 18.5 39 C 17.101774 39 16 37.898226 16 36.5 L 16 30.519531 A 1.50015 1.50015 0 1 0 13 30.519531 L 13 36.5 C 13 39.519774 15.480226 42 18.5 42 L 36.5 42 C 39.519774 42 42 39.519774 42 36.5 L 42 11.5 C 42 8.4802259 39.519774 6 36.5 6 L 18.5 6 z M 24.484375 16.503906 A 1.50015 1.50015 0 0 0 23.439453 19.080078 L 26.876953 22.517578 L 7.5019531 22.5 A 1.50015 1.50015 0 1 0 7.4980469 25.5 L 26.880859 25.517578 L 23.439453 28.958984 A 1.50015 1.50015 0 1 0 25.560547 31.080078 L 31.560547 25.080078 A 1.50015 1.50015 0 0 0 31.560547 22.958984 L 25.560547 16.958984 A 1.50015 1.50015 0 0 0 24.484375 16.503906 z"/></svg>