<svg xmlns="http://www.w3.org/2000/svg"  viewBox="0 0 48 48" width="144px" height="144px"><path fill="#ffffff" d="M 23.919922 4 C 12.873922 4 3.9199219 12.954 3.9199219 24 C 3.9199219 35.046 12.873922 44 23.919922 44 C 34.965922 44 43.919922 35.046 43.919922 24 C 43.919922 12.954 34.965922 4 23.919922 4 z M 19.498047 16.154297 C 19.737047 16.154297 19.977219 16.211125 20.199219 16.328125 L 32.251953 22.673828 C 32.746953 22.933828 33.053734 23.442953 33.052734 24.001953 C 33.052734 24.560953 32.746953 25.068125 32.251953 25.328125 L 20.199219 31.671875 C 19.978219 31.787875 19.737047 31.845703 19.498047 31.845703 C 19.230047 31.845703 18.963609 31.772906 18.724609 31.628906 C 18.270609 31.354906 18 30.87375 18 30.34375 L 18 17.65625 C 18 17.12625 18.270609 16.645094 18.724609 16.371094 C 18.963609 16.226094 19.231047 16.154297 19.498047 16.154297 z"/></svg>