<?xml version="1.0" encoding="iso-8859-1"?>
<!-- Generator: Adobe Illustrator 24.3.0, SVG Export Plug-In . SVG Version: 6.00 Build 0)  -->
<svg version="1.1" id="Layer_1" xmlns="http://www.w3.org/2000/svg" xmlns:xlink="http://www.w3.org/1999/xlink" x="0px" y="0px"
	 viewBox="0 0 48 48" style="enable-background:new 0 0 48 48;" xml:space="preserve">
<path fill="#ffffff" d="M35,24c-6.075,0-11,4.925-11,11c0,6.075,4.925,11,11,11s11-4.925,11-11C46,28.925,41.075,24,35,24z M42,36h-6v6
	c0,0.552-0.448,1-1,1s-1-0.448-1-1v-6h-6c-0.552,0-1-0.448-1-1s0.448-1,1-1h6v-6c0-0.552,0.448-1,1-1s1,0.448,1,1v6h6
	c0.552,0,1,0.448,1,1S42.552,36,42,36z"/>
<line style="fill:none;stroke:#ffffff;stroke-width:3;stroke-linecap:round;stroke-linejoin:round;stroke-miterlimit:10;" x1="12.5" y1="30.5" x2="12.5" y2="41.786"/>
<g>
	<path style="fill:none;stroke:#ffffff;stroke-width:3;stroke-linecap:round;stroke-linejoin:round;stroke-miterlimit:10;" d="
		M17.5,37.5l-5,5l-5-5"/>
</g>
<path fill="#ffffff" d="M23.474,29H7.5C6.122,29,5,27.878,5,26.5v-11C5,14.122,6.122,13,7.5,13h33c1.378,0,2.5,1.122,2.5,2.5v9.267
	c1.183,0.926,2.197,2.051,3,3.327V15.5c0-3.033-2.467-5.5-5.5-5.5h-33C4.467,10,2,12.467,2,15.5v11C2,29.533,4.467,32,7.5,32h14.862
	C22.612,30.945,22.985,29.938,23.474,29z"/>
</svg>