<svg xmlns="http://www.w3.org/2000/svg" viewBox="0 0 40 40" width="144px" height="144px">
  <g transform="translate(-4,-4)">
    <path fill="#ffffff" d="M10.501 28.999c-.829 0-1.5-.671-1.5-1.5V12.515l-3.069.921c-.798.238-1.63-.212-1.868-1.006-.238-.793.212-1.63 1.006-1.868l5-1.5c.455-.134.946-.049 1.327.233.38.284.604.73.604 1.204v17C12.001 28.328 11.33 28.999 10.501 28.999M27.5 39h-9c-.829 0-1.5-.671-1.5-1.5 0-6.22 3.63-7.55 6.033-8.429l.44-.163C24.984 28.341 26 26.771 26 25c0-1.654-1.346-3-3-3s-3 1.346-3 3v.5c0 .829-.671 1.5-1.5 1.5S17 26.329 17 25.5V25c0-3.309 2.691-6 6-6s6 2.691 6 6c0 3.014-1.798 5.714-4.473 6.717l-.463.171c-1.961.718-3.567 1.306-3.968 4.112H27.5c.829 0 1.5.671 1.5 1.5S28.329 39 27.5 39M38 29.001c-3.595 0-5.591-2.462-5.675-2.567-.515-.649-.407-1.592.242-2.108.645-.511 1.583-.407 2.099.231.066.079 1.24 1.444 3.334 1.444 1.654 0 3-1.233 3-2.75s-1.346-2.75-3-2.75h-.5c-.829 0-1.5-.671-1.5-1.5 0-.829.671-1.5 1.5-1.5h.25c1.517 0 2.75-1.233 2.75-2.75s-1.233-2.75-2.75-2.75c-1.946 0-3.04 1.386-3.05 1.4-.497.663-1.438.798-2.1.3-.662-.497-.797-1.437-.3-2.1.079-.106 1.99-2.6 5.45-2.6 3.17 0 5.75 2.58 5.75 5.75 0 1.585-.645 3.023-1.686 4.064C43.148 19.871 44 21.467 44 23.251 44 26.421 41.309 29.001 38 29.001"/>
  </g>
</svg>