<svg xmlns="http://www.w3.org/2000/svg" xmlns:xlink="http://www.w3.org/1999/xlink" viewBox="0,0,256,256" width="144px" height="144px" fill-rule="nonzero"><g fill="#ffffff" fill-rule="nonzero" stroke="none" stroke-width="1" stroke-linecap="butt" stroke-linejoin="miter" stroke-miterlimit="10" stroke-dasharray="" stroke-dashoffset="0" font-family="none" font-weight="none" font-size="none" text-anchor="none" style="mix-blend-mode: normal"><g transform="translate(255.99867,256) rotate(180) scale(5.33333,5.33333)"><path d="M12,6c-1.104,0 -2,0.896 -2,2v32c0,1.104 0.896,2 2,2c1.104,0 2,-0.896 2,-2v-32c0,-1.104 -0.896,-2 -2,-2zM37.414,6.586c-0.781,-0.781 -2.047,-0.781 -2.828,0l-16,16c-0.781,0.781 -0.781,2.047 0,2.828l16,16c0.391,0.391 0.902,0.586 1.414,0.586c0.512,0 1.023,-0.195 1.414,-0.586c0.781,-0.781 0.781,-2.047 0,-2.828l-14.586,-14.586l14.586,-14.586c0.781,-0.781 0.781,-2.047 0,-2.828z"></path></g></g></svg>