<svg xmlns="http://www.w3.org/2000/svg"  viewBox="0 0 48 48" width="144px" height="144px"><path fill="#ffffff" d="M 9.4765625 4.9785156 A 1.50015 1.50015 0 0 0 8 6.5 L 8 8 L 6.5 8 A 1.50015 1.50015 0 1 0 6.5 11 L 8 11 L 8 12.5 A 1.50015 1.50015 0 1 0 11 12.5 L 11 11 L 12.5 11 A 1.50015 1.50015 0 1 0 12.5 8 L 11 8 L 11 6.5 A 1.50015 1.50015 0 0 0 9.4765625 4.9785156 z M 33.476562 8.9785156 A 1.50015 1.50015 0 0 0 32 10.5 L 32 12 L 30.5 12 A 1.50015 1.50015 0 1 0 30.5 15 L 32 15 L 32 16.5 A 1.50015 1.50015 0 1 0 35 16.5 L 35 15 L 36.5 15 A 1.50015 1.50015 0 1 0 36.5 12 L 35 12 L 35 10.5 A 1.50015 1.50015 0 0 0 33.476562 8.9785156 z M 17.541016 14.048828 C 16.386152 14.048828 15.229854 14.484989 14.357422 15.357422 C 12.612557 17.102287 12.612557 19.977791 14.357422 21.722656 L 16.6875 24.050781 L 16.693359 24.058594 A 1.50015 1.50015 0 0 0 17.035156 24.400391 L 35.269531 42.632812 C 37.014641 44.376433 39.887704 44.376433 41.632812 42.632812 C 43.377679 40.887948 43.377679 38.012443 41.632812 36.267578 L 23.355469 17.992188 A 1.50015 1.50015 0 0 0 23.347656 17.982422 A 1.50015 1.50015 0 0 0 23.007812 17.642578 L 20.722656 15.357422 C 19.850224 14.484989 18.695879 14.048828 17.541016 14.048828 z M 17.541016 17.03125 C 17.921652 17.03125 18.301996 17.180901 18.601562 17.480469 L 20.007812 18.886719 L 17.914062 21.035156 L 16.480469 19.601562 C 15.881334 19.002429 15.881334 18.079604 16.480469 17.480469 C 16.780036 17.180901 17.160379 17.03125 17.541016 17.03125 z M 22.128906 21.007812 L 39.511719 38.390625 C 40.110854 38.98976 40.110854 39.912584 39.511719 40.511719 C 38.913296 41.109631 37.989556 41.108698 37.390625 40.511719 L 37.388672 40.511719 L 20.035156 23.15625 L 22.128906 21.007812 z M 13.476562 29.978516 A 1.50015 1.50015 0 0 0 12 31.5 L 12 33 L 10.5 33 A 1.50015 1.50015 0 1 0 10.5 36 L 12 36 L 12 37.5 A 1.50015 1.50015 0 1 0 15 37.5 L 15 36 L 16.5 36 A 1.50015 1.50015 0 1 0 16.5 33 L 15 33 L 15 31.5 A 1.50015 1.50015 0 0 0 13.476562 29.978516 z"/></svg>