<svg xmlns="http://www.w3.org/2000/svg" xmlns:xlink="http://www.w3.org/1999/xlink" viewBox="0,0,256,256" width="144px" height="144px" fill-rule="nonzero"><g fill="#ffffff" fill-rule="nonzero" stroke="none" stroke-width="1" stroke-linecap="butt" stroke-linejoin="miter" stroke-miterlimit="10" stroke-dasharray="" stroke-dashoffset="0" font-family="none" font-weight="none" font-size="none" text-anchor="none" style="mix-blend-mode: normal"><g transform="translate(249.39095,-6.60904) rotate(90) scale(5.33333,5.33333)"><path d="M23.97852,11.5c-0.39034,0.00571 -0.76308,0.16335 -1.03906,0.43945l-19.5,19.5c-0.39185,0.37623 -0.54969,0.9349 -0.41265,1.46055c0.13704,0.52565 0.54754,0.93616 1.07319,1.07319c0.52565,0.13704 1.08432,-0.02081 1.46055,-0.41265l18.43945,-18.43945l18.43945,18.43945c0.37623,0.39185 0.9349,0.54969 1.46055,0.41265c0.52565,-0.13704 0.93616,-0.54754 1.07319,-1.07319c0.13704,-0.52565 -0.0208,-1.08432 -0.41265,-1.46055l-19.5,-19.5c-0.28651,-0.28663 -0.6768,-0.44514 -1.08203,-0.43945z"></path></g></g></svg>