<svg xmlns="http://www.w3.org/2000/svg"  viewBox="0 0 48 48" width="144px" height="144px"><path fill="#ffffff" d="M 5.4765625 8.9785156 A 1.50015 1.50015 0 0 0 4 10.5 L 4 37.5 A 1.50015 1.50015 0 1 0 7 37.5 L 7 10.5 A 1.50015 1.50015 0 0 0 5.4765625 8.9785156 z M 42.476562 8.9785156 A 1.50015 1.50015 0 0 0 41 10.5 L 41 37.5 A 1.50015 1.50015 0 1 0 44 37.5 L 44 10.5 A 1.50015 1.50015 0 0 0 42.476562 8.9785156 z M 11.5 9 A 1.5 1.5 0 0 0 11.5 12 A 1.5 1.5 0 0 0 11.5 9 z M 16.5 9 A 1.5 1.5 0 0 0 16.5 12 A 1.5 1.5 0 0 0 16.5 9 z M 21.5 9 A 1.5 1.5 0 0 0 21.5 12 A 1.5 1.5 0 0 0 21.5 9 z M 26.5 9 A 1.5 1.5 0 0 0 26.5 12 A 1.5 1.5 0 0 0 26.5 9 z M 31.5 9 A 1.5 1.5 0 0 0 31.5 12 A 1.5 1.5 0 0 0 31.5 9 z M 36.5 9 A 1.5 1.5 0 0 0 36.5 12 A 1.5 1.5 0 0 0 36.5 9 z M 15.986328 16.978516 A 1.50015 1.50015 0 0 0 14.939453 17.439453 L 9.4394531 22.939453 A 1.50015 1.50015 0 0 0 9.4394531 25.060547 L 14.939453 30.560547 A 1.50015 1.50015 0 1 0 17.060547 28.439453 L 14.121094 25.5 L 33.878906 25.5 L 30.939453 28.439453 A 1.50015 1.50015 0 1 0 33.060547 30.560547 L 38.560547 25.060547 A 1.50015 1.50015 0 0 0 38.560547 22.939453 L 33.060547 17.439453 A 1.50015 1.50015 0 0 0 31.984375 16.984375 A 1.50015 1.50015 0 0 0 30.939453 19.560547 L 33.878906 22.5 L 14.121094 22.5 L 17.060547 19.560547 A 1.50015 1.50015 0 0 0 15.986328 16.978516 z M 11.5 36 A 1.5 1.5 0 0 0 11.5 39 A 1.5 1.5 0 0 0 11.5 36 z M 16.5 36 A 1.5 1.5 0 0 0 16.5 39 A 1.5 1.5 0 0 0 16.5 36 z M 21.5 36 A 1.5 1.5 0 0 0 21.5 39 A 1.5 1.5 0 0 0 21.5 36 z M 26.5 36 A 1.5 1.5 0 0 0 26.5 39 A 1.5 1.5 0 0 0 26.5 36 z M 31.5 36 A 1.5 1.5 0 0 0 31.5 39 A 1.5 1.5 0 0 0 31.5 36 z M 36.5 36 A 1.5 1.5 0 0 0 36.5 39 A 1.5 1.5 0 0 0 36.5 36 z"/></svg>