<svg xmlns="http://www.w3.org/2000/svg"  viewBox="0 0 48 48" width="144px" height="144px"><path d="M 12.5 4 C 10.019 4 8 6.019 8 8.5 L 8 39.5 C 8 41.981 10.019 44 12.5 44 L 25.632812 44 C 24.777812 43.111 24.050609 42.103 23.474609 41 L 12.5 41 C 11.673 41 11 40.327 11 39.5 L 11 8.5 C 11 7.673 11.673 7 12.5 7 L 24 7 L 24 15.5 C 24 17.981 26.019 20 28.5 20 L 37 20 L 37 22.169922 C 38.045 22.331922 39.053 22.603047 40 22.998047 L 40 18.498047 C 40 18.084088 39.831422 17.710744 39.560547 17.439453 L 39.560547 17.4375 C 39.557593 17.434547 39.55376 17.432615 39.550781 17.429688 L 26.560547 4.4394531 C 26.289047 4.1682031 25.914 4 25.5 4 L 12.5 4 z M 27 9.1210938 L 34.876953 16.998047 L 28.5 16.998047 C 27.673 16.998047 27 16.325047 27 15.498047 L 27 9.1210938 z M 35 24 C 28.925 24 24 28.925 24 35 C 24 41.075 28.925 46 35 46 C 41.075 46 46 41.075 46 35 C 46 28.925 41.075 24 35 24 z M 17.5 25 C 16.672 25 16 25.671 16 26.5 C 16 27.329 16.672 28 17.5 28 L 24.056641 28 C 24.780641 26.87 25.667312 25.855 26.695312 25 L 17.5 25 z M 33 29 L 38 29 C 38.553 29 39 29.448 39 30 C 39 30.552 38.553 31 38 31 L 33 31 C 31.346 31 30 32.346 30 34 C 30 35.654 31.346 37 33 37 L 37.585938 37 L 36.292969 35.707031 C 35.901969 35.316031 35.901969 34.683969 36.292969 34.292969 C 36.683969 33.901969 37.316031 33.901969 37.707031 34.292969 L 40.705078 37.292969 C 40.798078 37.384969 40.872828 37.494188 40.923828 37.617188 C 41.024828 37.861187 41.024828 38.138813 40.923828 38.382812 C 40.872828 38.505812 40.798078 38.614031 40.705078 38.707031 L 37.707031 41.707031 C 37.512031 41.902031 37.256 42 37 42 C 36.744 42 36.487969 41.902031 36.292969 41.707031 C 35.901969 41.316031 35.901969 40.683969 36.292969 40.292969 L 37.585938 39 L 33 39 C 30.243 39 28 36.757 28 34 C 28 31.243 30.243 29 33 29 z M 17.5 32 C 16.672 32 16 32.671 16 33.5 C 16 34.329 16.672 35 17.5 35 L 22 35 C 22 33.966 22.133328 32.965 22.361328 32 L 17.5 32 z"/></svg>