<?xml version="1.0" encoding="UTF-8" standalone="no"?>
<svg
   viewBox="0 0 48 48"
   width="144px"
   height="144px"
   version="1.1"
   id="svg1"
   sodipodi:docname="ai.svg"
   inkscape:version="1.4.2 (ebf0e940, 2025-05-08)"
   xmlns:inkscape="http://www.inkscape.org/namespaces/inkscape"
   xmlns:sodipodi="http://sodipodi.sourceforge.net/DTD/sodipodi-0.dtd"
   xmlns="http://www.w3.org/2000/svg"
   xmlns:svg="http://www.w3.org/2000/svg">
  <defs
     id="defs1">
    <clipPath
       id="5b0963054d">
      <path
         d="M 254,49 H 356 V 336 H 254 Z m 0,0"
         id="path1" />
    </clipPath>
    <clipPath
       id="b2fdbd10f3">
      <path
         d="M 357.29687,55.738281 283.09766,337.11719 252.5625,329.0625 326.76172,47.6875 Z m 0,0"
         id="path2" />
    </clipPath>
    <clipPath
       id="0351215ba3">
      <path
         d="M 355.38672,62.992188 285.02734,329.79297 c -1.05468,4.00781 -5.15625,6.39844 -9.16406,5.33984 l -16.03125,-4.22656 c -4.00391,-1.05469 -6.39453,-5.16016 -5.33984,-9.16406 L 324.85156,54.9375 c 1.05469,-4.003906 5.15625,-6.394531 9.16406,-5.339844 l 16.03125,4.226563 c 4.00391,1.058593 6.39454,5.160156 5.33985,9.167969 z m 0,0"
         id="path3" />
    </clipPath>
    <clipPath
       id="73621d22f4">
      <path
         d="M 324,49 H 427 V 336 H 324 Z m 0,0"
         id="path4" />
    </clipPath>
    <clipPath
       id="5f838366b1">
      <path
         d="m 397.36328,337.03516 -74.125,-281.394535 30.53906,-8.046875 74.125,281.39844 z m 0,0"
         id="path5" />
    </clipPath>
    <clipPath
       id="f78aa4977f">
      <path
         d="M 395.45312,329.78516 325.16797,62.960938 c -1.05469,-4.007813 1.33594,-8.109376 5.34375,-9.164063 l 16.03125,-4.222656 c 4.0039,-1.054688 8.10937,1.335937 9.16406,5.34375 l 70.28516,266.820311 c 1.05468,4.00781 -1.33985,8.10938 -5.34375,9.16406 l -16.03125,4.22266 c -4.00782,1.05469 -8.10938,-1.33594 -9.16407,-5.33984 z m 0,0"
         id="path6" />
    </clipPath>
    <clipPath
       id="6da4635b5f">
      <path
         d="m 289.16406,218.03516 h 99.20703 v 31.625 h -99.20703 z m 0,0"
         id="path7" />
    </clipPath>
    <clipPath
       id="e430ded657">
      <path
         d="m 296.66406,218.03516 h 84.1211 c 4.14062,0 7.5,3.35546 7.5,7.5 v 16.625 c 0,4.14453 -3.35938,7.5 -7.5,7.5 h -84.1211 c -4.14453,0 -7.5,-3.35547 -7.5,-7.5 v -16.625 c 0,-4.14454 3.35547,-7.5 7.5,-7.5 z m 0,0"
         id="path8" />
    </clipPath>
    <clipPath
       id="bc30ea9f8c">
      <path
         d="m 463.01562,50.246094 h 31.57813 V 318.79297 h -31.57813 z m 0,0"
         id="path9" />
    </clipPath>
    <clipPath
       id="103c116ae2">
      <path
         d="M 494.59375,57.746094 V 311.17578 c 0,4.14453 -3.35547,7.5 -7.5,7.5 h -16.57813 c -4.14062,0 -7.5,-3.35547 -7.5,-7.5 V 57.746094 c 0,-4.140625 3.35938,-7.5 7.5,-7.5 h 16.57813 c 4.14453,0 7.5,3.359375 7.5,7.5 z m 0,0"
         id="path10" />
    </clipPath>
    <clipPath
       id="3ba1633c7b">
      <path
         d="M 432.63281,50.246094 H 525 V 81.875 h -92.36719 z m 0,0"
         id="path11" />
    </clipPath>
    <clipPath
       id="ff40cc8923">
      <path
         d="M 440.13281,50.246094 H 517.5 c 4.14062,0 7.5,3.359375 7.5,7.5 V 74.375 c 0,4.140625 -3.35938,7.5 -7.5,7.5 h -77.36719 c -4.14062,0 -7.5,-3.359375 -7.5,-7.5 V 57.746094 c 0,-4.140625 3.35938,-7.5 7.5,-7.5 z m 0,0"
         id="path12" />
    </clipPath>
    <clipPath
       id="c17a4be418">
      <path
         d="M 432.63281,302.86328 H 525 v 31.62891 h -92.36719 z m 0,0"
         id="path13" />
    </clipPath>
    <clipPath
       id="6793ade4a1">
      <path
         d="M 440.13281,302.86328 H 517.5 c 4.14062,0 7.5,3.35547 7.5,7.5 v 16.62891 c 0,4.14062 -3.35938,7.5 -7.5,7.5 h -77.36719 c -4.14062,0 -7.5,-3.35938 -7.5,-7.5 v -16.62891 c 0,-4.14453 3.35938,-7.5 7.5,-7.5 z m 0,0"
         id="path14" />
    </clipPath>
    <clipPath
       id="cf6382cf9e">
      <path
         d="m 324,43 h 32 v 32 h -32 z m 0,0"
         id="path15" />
    </clipPath>
    <clipPath
       id="59ca5acb51">
      <path
         d="m 339.97656,80.273438 -21.3125,-21.3125 21.47656,-21.480469 21.3125,21.3125 z m 0,0"
         id="path16" />
    </clipPath>
    <clipPath
       id="c12c569d7e">
      <path
         d="m 329.32031,69.617188 c -2.82422,-2.828126 -4.41406,-6.660157 -4.41406,-10.65625 0,-3.996094 1.58984,-7.832032 4.41406,-10.65625 l 0.15235,-0.152344 c 2.82421,-2.824219 6.65625,-4.414063 10.65625,-4.414063 3.99609,0 7.82812,1.589844 10.65234,4.414063 2.82812,2.828125 4.41406,6.660156 4.41406,10.65625 0,3.996094 -1.58594,7.832031 -4.41406,10.65625 l -0.14844,0.152344 c -2.82812,2.824218 -6.66015,4.414062 -10.65625,4.414062 -3.99609,0 -7.83203,-1.589844 -10.65625,-4.414062 z m 0,0"
         id="path17" />
    </clipPath>
    <clipPath
       id="d37a14f255">
      <path
         d="M 96.242188,42.074219 H 203.88281 V 149 H 96.242188 Z m 0,0"
         id="path18" />
    </clipPath>
    <clipPath
       id="c674a41f5f">
      <path
         d="M 180.96484,148.88281 H 119 c -12.42578,0 -22.5,-10.07422 -22.5,-22.5 V 64.574219 c 0,-12.425781 10.07422,-22.5 22.5,-22.5 h 61.96484 c 12.42969,0 22.5,10.074219 22.5,22.5 v 61.808591 c 0,12.42578 -10.07031,22.5 -22.5,22.5 z m 0,0"
         id="path19" />
    </clipPath>
    <clipPath
       id="5f6dc5b99b">
      <path
         d="M 0,136.15234 H 107 V 243 H 0 Z m 0,0"
         id="path20" />
    </clipPath>
    <clipPath
       id="6718cba2d9">
      <path
         d="m 84.457031,242.96094 h -61.96875 c -12.425781,0 -22.4999998,-10.07422 -22.4999998,-22.5 v -61.8086 c 0,-12.42578 10.0742188,-22.5 22.4999998,-22.5 h 61.96875 c 12.425781,0 22.499999,10.07422 22.499999,22.5 v 61.8086 c 0,12.42578 -10.074218,22.5 -22.499999,22.5 z m 0,0"
         id="path21" />
    </clipPath>
    <clipPath
       id="4219106020">
      <path
         d="M 96.242188,230.23047 H 203.88281 V 337.45703 H 96.242188 Z m 0,0"
         id="path22" />
    </clipPath>
    <clipPath
       id="180786940a">
      <path
         d="M 180.96484,337.04297 H 119 c -12.42578,0 -22.5,-10.07422 -22.5,-22.5 v -61.8125 c 0,-12.42578 10.07422,-22.5 22.5,-22.5 h 61.96484 c 12.42969,0 22.5,10.07422 22.5,22.5 v 61.8125 c 0,12.42578 -10.07031,22.5 -22.5,22.5 z m 0,0"
         id="path23" />
    </clipPath>
  </defs>
  <sodipodi:namedview
     id="namedview1"
     pagecolor="#ffffff"
     bordercolor="#000000"
     borderopacity="0.25"
     inkscape:showpageshadow="2"
     inkscape:pageopacity="0.0"
     inkscape:pagecheckerboard="0"
     inkscape:deskcolor="#d1d1d1"
     inkscape:zoom="2.4279538"
     inkscape:cx="11.120475"
     inkscape:cy="57.249853"
     inkscape:window-width="1440"
     inkscape:window-height="775"
     inkscape:window-x="0"
     inkscape:window-y="25"
     inkscape:window-maximized="0"
     inkscape:current-layer="svg1" />
  <g
     id="g13"
     transform="matrix(0.88412986,0,0,0.88412986,0,2.7808834)">
    <rect
       style="font-variation-settings:normal;fill:#ef1f1f;fill-opacity:1;fill-rule:evenodd;stroke:none;stroke-width:1.29629;stroke-linecap:butt;stroke-linejoin:miter;stroke-miterlimit:4;stroke-dasharray:none;stroke-dashoffset:0;stroke-opacity:1;stop-color:#000000"
       id="rect7-9-7"
       width="10"
       height="10"
       x="9.8396072"
       y="29"
       ry="1.8055556" />
    <rect
       style="font-variation-settings:normal;fill:#97c74e;fill-opacity:1;fill-rule:evenodd;stroke:none;stroke-width:1.29629;stroke-linecap:butt;stroke-linejoin:miter;stroke-miterlimit:4;stroke-dasharray:none;stroke-dashoffset:0;stroke-opacity:1;stop-color:#000000"
       id="rect7-9-5"
       width="10"
       height="10"
       x="2.5322145e-16"
       y="19"
       ry="1.8055556" />
    <rect
       style="font-variation-settings:normal;fill:#1278be;fill-opacity:1;fill-rule:evenodd;stroke:none;stroke-width:1.29629;stroke-linecap:butt;stroke-linejoin:miter;stroke-miterlimit:4;stroke-dasharray:none;stroke-dashoffset:0;stroke-opacity:1;stop-color:#000000"
       id="rect7-9"
       width="10"
       height="10"
       x="9.8396072"
       y="9"
       ry="1.8055556" />
  </g>
  <g
     id="g12"
     transform="matrix(1.0514837,0,0,1.0514837,-2.4712161,11.23859)">
    <g
       id="g9"
       transform="translate(6.7654597,-11.86458)">
      <g
         id="g8"
         transform="translate(-3.9424527)">
        <rect
           style="font-variation-settings:normal;vector-effect:none;fill:#000000;fill-opacity:1;fill-rule:evenodd;stroke-width:8.19958;stroke-linecap:butt;stroke-linejoin:miter;stroke-miterlimit:4;stroke-dasharray:none;stroke-dashoffset:0;stroke-opacity:1;-inkscape-stroke:none;stop-color:#000000"
           id="rect8-7-4"
           width="25.666666"
           height="3"
           x="-46.377316"
           y="-23.120558"
           ry="1.5"
           transform="matrix(-0.34574718,-0.93832771,-0.93832771,0.34574718,0,0)" />
        <rect
           style="font-variation-settings:normal;vector-effect:none;fill:#000000;fill-opacity:1;fill-rule:evenodd;stroke-width:8.19958;stroke-linecap:butt;stroke-linejoin:miter;stroke-miterlimit:4;stroke-dasharray:none;stroke-dashoffset:0;stroke-opacity:1;-inkscape-stroke:none;stop-color:#000000"
           id="rect8-7"
           width="25.666666"
           height="3"
           x="-27.055265"
           y="29.317797"
           ry="1.5"
           transform="rotate(-69.772587)" />
      </g>
      <rect
         style="font-variation-settings:normal;opacity:1;vector-effect:none;fill:#000000;fill-opacity:1;fill-rule:evenodd;stroke-width:5.44683;stroke-linecap:butt;stroke-linejoin:miter;stroke-miterlimit:4;stroke-dasharray:none;stroke-dashoffset:0;stroke-opacity:1;-inkscape-stroke:none;stop-color:#000000;stop-opacity:1"
         id="rect8"
         width="11.325944"
         height="3"
         x="18.367756"
         y="26.514828"
         ry="1.5" />
    </g>
    <g
       id="g11">
      <rect
         style="font-variation-settings:normal;opacity:1;vector-effect:none;fill:#000000;fill-opacity:1;fill-rule:evenodd;stroke-width:4.66667;stroke-linecap:butt;stroke-linejoin:miter;stroke-miterlimit:4;stroke-dasharray:none;stroke-dashoffset:0;stroke-opacity:1;-inkscape-stroke:none;stop-color:#000000;stop-opacity:1"
         id="rect10"
         width="3"
         height="23.333334"
         x="43.275608"
         y="0"
         ry="1.6774327" />
      <rect
         style="font-variation-settings:normal;vector-effect:none;fill:#000000;fill-opacity:1;fill-rule:evenodd;stroke-width:2.49445;stroke-linecap:butt;stroke-linejoin:miter;stroke-miterlimit:4;stroke-dasharray:none;stroke-dashoffset:0;stroke-opacity:1;-inkscape-stroke:none;stop-color:#000000"
         id="rect10-0"
         width="3"
         height="6.6666665"
         x="-3"
         y="41.333332"
         ry="1.5"
         transform="rotate(-90)" />
      <rect
         style="font-variation-settings:normal;vector-effect:none;fill:#000000;fill-opacity:1;fill-rule:evenodd;stroke-width:2.49445;stroke-linecap:butt;stroke-linejoin:miter;stroke-miterlimit:4;stroke-dasharray:none;stroke-dashoffset:0;stroke-opacity:1;-inkscape-stroke:none;stop-color:#000000"
         id="rect10-0-0"
         width="3"
         height="6.6666665"
         x="-24.273149"
         y="41.333332"
         ry="1.5"
         transform="rotate(-90)" />
    </g>
  </g>
</svg>
