<?xml version="1.0" encoding="UTF-8" standalone="no"?>
<svg
   width="500"
   height="500"
   version="1.2"
   viewBox="0 0 375 375"
   id="svg23"
   sodipodi:docname="2.svg"
   inkscape:version="1.4.2 (ebf0e940, 2025-05-08)"
   xmlns:inkscape="http://www.inkscape.org/namespaces/inkscape"
   xmlns:sodipodi="http://sodipodi.sourceforge.net/DTD/sodipodi-0.dtd"
   xmlns:xlink="http://www.w3.org/1999/xlink"
   xmlns="http://www.w3.org/2000/svg"
   xmlns:svg="http://www.w3.org/2000/svg">
  <sodipodi:namedview
     id="namedview23"
     pagecolor="#ffffff"
     bordercolor="#000000"
     borderopacity="0.25"
     inkscape:showpageshadow="2"
     inkscape:pageopacity="0.0"
     inkscape:pagecheckerboard="0"
     inkscape:deskcolor="#d1d1d1"
     inkscape:zoom="0.79686973"
     inkscape:cx="26.353116"
     inkscape:cy="289.25682"
     inkscape:window-width="1440"
     inkscape:window-height="776"
     inkscape:window-x="0"
     inkscape:window-y="25"
     inkscape:window-maximized="0"
     inkscape:current-layer="svg23" />
  <defs
     id="defs1">
    <inkscape:path-effect
       effect="fillet_chamfer"
       id="path-effect1"
       is_visible="true"
       lpeversion="1"
       nodesatellites_param="F,0,0,1,0,0,0,1 @ F,0,0,1,0,0,0,1 @ F,0,0,1,0,0,0,1 @ F,0,0,1,0,0,0,1 @ F,0,0,1,0,0,0,1 @ F,0,0,1,0,0,0,1 @ F,0,0,1,0,0,0,1 @ F,0,0,1,0,0,0,1 @ F,0,0,1,0,0,0,1 @ F,0,0,1,0,0,0,1 @ F,0,0,1,0,0,0,1 @ F,0,0,1,0,0,0,1 @ F,0,0,1,0,0,0,1 @ F,0,0,1,0,0,0,1 @ F,0,0,1,0,0,0,1 @ F,0,0,1,0,0,0,1 @ F,0,0,1,0,10,0,1 @ F,0,0,1,0,10,0,1 @ F,0,0,1,0,5,0,1 @ F,0,0,1,0,5,0,1 @ F,0,0,1,0,0,0,1 @ F,0,0,1,0,5,0,1 @ F,0,0,1,0,0,0,1 @ F,0,0,1,0,5,0,1 @ F,0,0,1,0,5,0,1 @ F,0,0,1,0,10,0,1 @ F,0,0,1,0,10,0,1 @ F,0,0,1,0,0,0,1 @ F,0,0,1,0,0,0,1 @ F,0,0,1,0,0,0,1 @ F,0,0,1,0,10,0,1 @ F,0,0,1,0,0,0,1 | F,0,0,1,0,0,0,1 @ F,0,0,1,0,0,0,1"
       radius="0"
       unit="px"
       method="auto"
       mode="F"
       chamfer_steps="1"
       flexible="false"
       use_knot_distance="true"
       apply_no_radius="true"
       apply_with_radius="true"
       only_selected="false"
       hide_knots="false" />
    <linearGradient
       id="a">
      <stop
         offset="0"
         style="stop-color:#000;stop-opacity:1"
         id="stop1" />
    </linearGradient>
    <linearGradient
       xlink:href="#a"
       id="b"
       x1="167.612"
       x2="284.234"
       y1="158.581"
       y2="158.581"
       gradientTransform="matrix(0.52204445,0,0,0.63366408,206.52231,146.42164)"
       gradientUnits="userSpaceOnUse" />
  </defs>
  <path
     id="path14"
     style="fill:#000000;fill-opacity:1;stroke-width:9.38909;stroke-dasharray:none"
     d="m 67.250977,56.15332 c -6.2325,0 -11.25,5.204148 -11.25,11.667481 v 51.487789 c -1.6e-5,0.008 0,0.0159 0,0.0234 0,0.008 -1.6e-5,0.0144 0,0.022 v 93.7002 c -6e-6,0.004 0,0.008 0,0.0117 v 2.89746 c 0,0.004 -6e-6,0.008 0,0.0117 v 91.0122 c 0,0.10446 0.0018,0.20824 0.0044,0.31202 -0.0026,0.0986 -0.0044,0.19817 -0.0044,0.29736 0,6.2325 5.204147,11.25 11.66748,11.25 H 306.83496 c 6.46333,0 11.66602,-5.0175 11.66602,-11.25 0,-6.2325 -5.20269,-11.25 -11.66602,-11.25 H 88.500977 a 10,10 45 0 1 -10,-10 v -50.58198 a 10,10 135 0 1 10,-10 H 248.46777 a 5,5 45 0 1 5,5 v 12.51465 a 2.7044407,2.7044407 28.40843 0 0 4.18463,2.26342 l 21.68012,-14.17797 21.68151,-14.17807 a 3.2696238,3.2696238 90.000008 0 0 0,-5.47296 l -21.68151,-14.17808 -21.68023,-14.17926 a 2.704313,2.704313 151.5927 0 0 -4.18452,2.26325 v 12.64502 a 5,5 135 0 1 -5,5 H 88.500977 a 10,10 45 0 1 -10,-10 l 0,-52.68262 a 10,10 135 0 1 10,-10 H 306.83496 c 6.46333,0 11.66602,-5.0175 11.66602,-11.25 0,-6.2325 -5.20269,-11.25 -11.66602,-11.25 H 88.500977 a 10,10 45 0 1 -10,-10 l 0,-30.261229 c 0,-6.463333 -5.0175,-11.667481 -11.25,-11.667481 z M 299.2002,235.66699 v 0.73242 z"
     inkscape:path-effect="#path-effect1"
     inkscape:original-d="m 67.250977,56.15332 c -6.2325,0 -11.25,5.204148 -11.25,11.667481 v 51.487789 c -1.6e-5,0.008 0,0.0159 0,0.0234 0,0.008 -1.6e-5,0.0144 0,0.022 v 93.7002 c -6e-6,0.004 0,0.008 0,0.0117 v 2.89746 c 0,0.004 -6e-6,0.008 0,0.0117 v 91.0122 c 0,0.10446 0.0018,0.20824 0.0044,0.31202 -0.0026,0.0986 -0.0044,0.19817 -0.0044,0.29736 0,6.2325 5.204147,11.25 11.66748,11.25 H 306.83496 c 6.46333,0 11.66602,-5.0175 11.66602,-11.25 0,-6.2325 -5.20269,-11.25 -11.66602,-11.25 H 78.500977 V 225.76465 H 253.46777 v 22.51465 l 25.86475,-16.91455 25.86621,-16.91455 -25.86621,-16.91456 -25.86475,-16.91601 v 22.64502 H 78.500977 V 130.58203 H 306.83496 c 6.46333,0 11.66602,-5.0175 11.66602,-11.25 0,-6.2325 -5.20269,-11.25 -11.66602,-11.25 H 78.500977 V 67.820801 c 0,-6.463333 -5.0175,-11.667481 -11.25,-11.667481 z M 299.2002,235.66699 v 0.73242 z" />
</svg>
