<svg xmlns="http://www.w3.org/2000/svg"  viewBox="0 0 48 48" width="144px" height="144px"><path d="M 23.5 5 C 11.772727 5 4 13.625 4 22.5 C 4 25.910242 6.8712406 29 10.5 29 C 11.994439 29 13.497579 28.725518 14.785156 28.470703 C 16.072734 28.215889 17.243398 28 17.5 28 C 18.873733 28 19.219456 28.3984 19.761719 29.503906 C 20.303982 30.609413 20.660355 32.421359 21.130859 34.355469 C 21.601364 36.289578 22.204404 38.393079 23.642578 40.117188 C 25.080752 41.841295 27.407577 43 30.578125 43 C 36.519332 43 44 36.672501 44 25.5 C 44 14.196269 34.803731 5 23.5 5 z M 23.5 8 C 33.182269 8 41 15.817731 41 25.5 C 41 35.313499 34.220918 40 30.578125 40 C 28.067673 40 26.855154 39.283705 25.947266 38.195312 C 25.039377 37.106921 24.488621 35.460422 24.046875 33.644531 C 23.605129 31.828641 23.292377 29.890587 22.455078 28.183594 C 21.617779 26.4766 19.874267 25 17.5 25 C 16.467602 25 15.442047 25.284111 14.203125 25.529297 C 12.964203 25.774482 11.610561 26 10.5 26 C 8.7427594 26 7 24.049758 7 22.5 C 7 15.375 13.227273 8 23.5 8 z M 23.5 11 A 2.5 2.5 0 0 0 23.5 16 A 2.5 2.5 0 0 0 23.5 11 z M 30.5 13 A 2.5 2.5 0 0 0 30.5 18 A 2.5 2.5 0 0 0 30.5 13 z M 34.5 19 A 2.5 2.5 0 0 0 34.5 24 A 2.5 2.5 0 0 0 34.5 19 z M 35.5 26 A 2.5 2.5 0 0 0 35.5 31 A 2.5 2.5 0 0 0 35.5 26 z M 30.5 31 A 2.5 2.5 0 0 0 30.5 36 A 2.5 2.5 0 0 0 30.5 31 z"/></svg>