<?xml version="1.0" standalone="no"?>
<!DOCTYPE svg PUBLIC "-//W3C//DTD SVG 1.1//EN" "http://www.w3.org/Graphics/SVG/1.1/DTD/svg11.dtd" >
<svg xmlns="http://www.w3.org/2000/svg" xmlns:xlink="http://www.w3.org/1999/xlink" version="1.1" viewBox="-10 0 866 1000">
  <g transform="matrix(1 0 0 -1 0 800)">
   <path fill="currentColor"
d="M837 672l9 -14c-93 -182 -168 -357 -265 -589c36 7 76 20 103 34l9 -16c-32 -24 -82 -38 -124 -45l-17 -42h-97l18 39c-57 4 -113 17 -162 40c-56 -57 -113 -94 -173 -94c-64 0 -107 39 -107 92c0 44 29 72 62 72c28 0 50 -21 50 -48c0 -21 -15 -48 -43 -48
c-5 0 -23 2 -29 12h-2c0 -19 23 -50 65 -50c57 0 95 24 150 77c-72 41 -122 107 -122 207c0 117 98 181 187 181c73 0 126 -33 161 -82c98 143 200 276 303 276c9 0 16 0 24 -2zM772 638h-1c-83 -29 -163 -143 -245 -267c21 -41 32 -92 33 -144c69 151 143 304 213 411z
M536 199c0 52 -9 103 -29 145c-56 -86 -112 -172 -172 -239c44 -21 95 -34 151 -38c16 34 33 72 49 109c1 8 1 15 1 23zM492 372c-30 45 -77 75 -143 75c-74 0 -146 -61 -146 -146c0 -83 42 -143 107 -182c58 64 121 159 182 253z" />
  </g>

</svg>
