<svg xmlns="http://www.w3.org/2000/svg"  viewBox="0 0 48 48" width="144px" height="144px"><path d="M 22.5 3 C 19.480226 3 17 5.4802259 17 8.5 L 17 23.412109 L 14.871094 22.697266 C 13.308963 22.172461 11.892528 22 10.703125 22 C 9.5908429 22 8.5540295 22.197475 7.640625 22.65625 C 5.2906802 23.831199 3.9427678 26.197397 4.0019531 28.90625 C 4.0019531 28.90625 4.0019531 28.908203 4.0019531 28.908203 C 4.0019531 28.908203 4.0019531 28.910156 4.0019531 28.910156 C 4.0184171 29.660452 4.4596385 30.354695 5.1328125 30.6875 A 1.50015 1.50015 0 0 0 5.1367188 30.689453 C 5.1367188 30.689453 9.4097266 32.789754 11.599609 33.949219 C 12.445613 34.397848 13.696939 34.926046 15.210938 36.09375 C 16.724935 37.261454 18.423179 39.012543 19.826172 41.792969 C 21.023611 44.165544 23.672779 45.195669 26.144531 44.955078 A 1.50015 1.50015 0 0 0 26.146484 44.955078 C 31.427085 44.439215 32.081856 44.381732 35.59375 44.023438 C 37.044229 43.875625 38.276993 43.213524 39.111328 42.289062 C 39.945663 41.364602 40.422895 40.257718 40.798828 39.125 C 41.561218 36.826116 42.933037 33.169846 43.671875 30.599609 C 45.018525 25.913269 41.884024 21.194549 37.246094 19.953125 L 37.242188 19.951172 C 36.99827 19.885452 36.756736 19.832884 36.521484 19.789062 A 1.50015 1.50015 0 0 0 36.513672 19.787109 L 28 18.248047 L 28 8.5 C 28 5.4802259 25.519774 3 22.5 3 z M 22.5 6 C 23.898226 6 25 7.1017741 25 8.5 L 25 19.5 A 1.50015 1.50015 0 0 0 26.232422 20.976562 L 35.980469 22.740234 C 36.14895 22.771804 36.312663 22.808524 36.464844 22.849609 A 1.50015 1.50015 0 0 0 36.46875 22.849609 C 39.614436 23.689967 41.641993 26.803286 40.789062 29.771484 C 40.115901 32.113248 38.752735 35.768572 37.953125 38.179688 C 37.641059 39.119968 37.279727 39.837554 36.882812 40.277344 C 36.485898 40.717133 36.095584 40.956874 35.289062 41.039062 C 31.783676 41.396695 31.135884 41.452908 25.855469 41.96875 C 24.423221 42.108159 23.024467 41.472831 22.503906 40.441406 C 20.887905 37.238832 18.854971 35.116296 17.042969 33.71875 C 15.230967 32.321204 13.560902 31.594199 13.003906 31.298828 C 10.939171 30.205625 7.8041786 28.665144 7.1035156 28.320312 C 7.1954033 26.8809 7.6810328 25.989859 8.9824219 25.339844 A 1.50015 1.50015 0 0 0 8.9863281 25.337891 C 9.3949198 25.132713 9.9434071 25 10.703125 25 C 11.605722 25 12.680146 25.12582 13.916016 25.541016 L 18.021484 26.921875 A 1.50015 1.50015 0 0 0 20 25.5 L 20 8.5 C 20 7.1017741 21.101774 6 22.5 6 z"/></svg>