<svg xmlns="http://www.w3.org/2000/svg"  viewBox="0 0 48 48" width="144px" height="144px"><path d="M 23.978516 5 A 1.50015 1.50015 0 0 0 22.939453 5.4394531 L 16.939453 11.439453 A 1.50015 1.50015 0 1 0 19.060547 13.560547 L 22.5 10.121094 L 22.5 22.5 L 10.121094 22.5 L 13.560547 19.060547 A 1.50015 1.50015 0 1 0 11.439453 16.939453 L 5.4394531 22.939453 A 1.50015 1.50015 0 0 0 5.4394531 25.060547 L 11.439453 31.060547 A 1.50015 1.50015 0 1 0 13.560547 28.939453 L 10.121094 25.5 L 22.5 25.5 L 22.5 37.878906 L 19.060547 34.439453 A 1.50015 1.50015 0 1 0 16.939453 36.560547 L 22.939453 42.560547 A 1.50015 1.50015 0 0 0 25.060547 42.560547 L 31.060547 36.560547 A 1.50015 1.50015 0 1 0 28.939453 34.439453 L 25.5 37.878906 L 25.5 25.5 L 37.878906 25.5 L 34.439453 28.939453 A 1.50015 1.50015 0 1 0 36.560547 31.060547 L 42.560547 25.060547 A 1.50015 1.50015 0 0 0 42.560547 22.939453 L 36.560547 16.939453 A 1.50015 1.50015 0 1 0 34.439453 19.060547 L 37.878906 22.5 L 25.5 22.5 L 25.5 10.121094 L 28.939453 13.560547 A 1.50015 1.50015 0 1 0 31.060547 11.439453 L 25.060547 5.4394531 A 1.50015 1.50015 0 0 0 23.978516 5 z"/></svg>