<svg xmlns="http://www.w3.org/2000/svg"  viewBox="0 0 48 48" width="144px" height="144px"><path d="M 6.5 4 A 1.5 1.5 0 0 0 6.5 7 A 1.5 1.5 0 0 0 6.5 4 z M 12.5 4 A 1.5 1.5 0 0 0 12.5 7 A 1.5 1.5 0 0 0 12.5 4 z M 18.5 4 A 1.5 1.5 0 0 0 18.5 7 A 1.5 1.5 0 0 0 18.5 4 z M 24.5 4 A 1.5 1.5 0 0 0 24.5 7 A 1.5 1.5 0 0 0 24.5 4 z M 30.5 4 A 1.5 1.5 0 0 0 30.5 7 A 1.5 1.5 0 0 0 30.5 4 z M 36.5 4 A 1.5 1.5 0 0 0 36.5 7 A 1.5 1.5 0 0 0 36.5 4 z M 42.5 4 A 1.5 1.5 0 0 0 42.5 7 A 1.5 1.5 0 0 0 42.5 4 z M 6.5 10 A 1.5 1.5 0 0 0 6.5 13 A 1.5 1.5 0 0 0 6.5 10 z M 42.5 10 A 1.5 1.5 0 0 0 42.5 13 A 1.5 1.5 0 0 0 42.5 10 z M 34.470703 11.986328 A 1.50015 1.50015 0 0 0 34.308594 12 L 26.722656 12 A 1.50015 1.50015 0 1 0 26.722656 15 L 30.878906 15 L 24.173828 21.705078 C 23.380086 21.258473 22.468956 21 21.5 21 L 10.5 21 C 7.4802259 21 5 23.480226 5 26.5 L 5 37.5 C 5 40.519774 7.4802259 43 10.5 43 L 21.5 43 C 24.519774 43 27 40.519774 27 37.5 L 27 26.5 C 27 25.531044 26.741527 24.619914 26.294922 23.826172 L 33 17.121094 L 33 21.277344 A 1.50015 1.50015 0 1 0 36 21.277344 L 36 13.689453 A 1.50015 1.50015 0 0 0 34.470703 11.986328 z M 6.5 16 A 1.5 1.5 0 0 0 6.5 19 A 1.5 1.5 0 0 0 6.5 16 z M 42.5 16 A 1.5 1.5 0 0 0 42.5 19 A 1.5 1.5 0 0 0 42.5 16 z M 42.5 22 A 1.5 1.5 0 0 0 42.5 25 A 1.5 1.5 0 0 0 42.5 22 z M 10.5 24 L 21.5 24 C 22.898226 24 24 25.101774 24 26.5 L 24 37.5 C 24 38.898226 22.898226 40 21.5 40 L 10.5 40 C 9.1017741 40 8 38.898226 8 37.5 L 8 26.5 C 8 25.101774 9.1017741 24 10.5 24 z M 42.5 28 A 1.5 1.5 0 0 0 42.5 31 A 1.5 1.5 0 0 0 42.5 28 z M 42.5 34 A 1.5 1.5 0 0 0 42.5 37 A 1.5 1.5 0 0 0 42.5 34 z M 30.5 40 A 1.5 1.5 0 0 0 30.5 43 A 1.5 1.5 0 0 0 30.5 40 z M 36.5 40 A 1.5 1.5 0 0 0 36.5 43 A 1.5 1.5 0 0 0 36.5 40 z M 42.5 40 A 1.5 1.5 0 0 0 42.5 43 A 1.5 1.5 0 0 0 42.5 40 z"/></svg>