<svg xmlns="http://www.w3.org/2000/svg"  viewBox="0 0 48 48" width="144px" height="144px"><path d="M 13.5 2.9980469 C 10.480226 2.9980469 8 5.4782728 8 8.4980469 L 8 35.5 L 8 36.5 C 8 39.363 10.201 41.720609 13 41.974609 L 13 38.949219 C 12.022455 38.75028 11.254766 37.976735 11.054688 37 L 38.5 37 A 1.50015 1.50015 0 0 0 40 35.5 L 40 8.4980469 C 40 5.4782728 37.519774 2.9980469 34.5 2.9980469 L 13.5 2.9980469 z M 13.5 5.9980469 L 34.5 5.9980469 C 35.898226 5.9980469 37 7.099821 37 8.4980469 L 37 34 L 11 34 L 11 8.4980469 C 11 7.099821 12.101774 5.9980469 13.5 5.9980469 z M 16 10 A 2 2 0 0 0 16 14 A 2 2 0 0 0 16 10 z M 16 18 A 2 2 0 0 0 16 22 A 2 2 0 0 0 16 18 z M 16 26 A 2 2 0 0 0 16 30 A 2 2 0 0 0 16 26 z M 15 39 L 15 45.5 C 15 46.106 15.364781 46.652766 15.925781 46.884766 C 16.486781 47.119766 17.132547 46.989547 17.560547 46.560547 L 19.5 44.621094 L 21.439453 46.560547 C 21.726453 46.847547 22.109 47 22.5 47 C 22.693 47 22.889219 46.963719 23.074219 46.886719 C 23.635219 46.653719 24 46.106 24 45.5 L 24 39 L 15 39 z M 26 39 L 26 42 L 38.5 42 C 39.329 42 40 41.328 40 40.5 C 40 39.672 39.329 39 38.5 39 L 26 39 z"/></svg>