<svg xmlns="http://www.w3.org/2000/svg"  viewBox="0 0 48 48" width="144px" height="144px"><path d="M 33.548828 3.9785156 A 2.0002 2.0002 0 0 0 32.019531 4.6875 L 31.603516 5.1640625 C 31.270313 5.0802684 30.929559 5.0315071 30.587891 5.0234375 C 29.294006 4.9928785 27.993707 5.5035315 27.087891 6.5449219 L 21.033203 13.5 L 13.669922 15.599609 C 12.344332 15.977263 11.156946 16.732822 10.251953 17.773438 L 3.234375 25.837891 C 1.5706009 27.749681 1.6165433 30.772472 3.6464844 32.455078 C 3.8225382 32.60096 4.0117693 32.72254 4.203125 32.837891 L 3.9316406 33.148438 A 1.50015 1.50015 0 0 0 3.9316406 33.150391 C 3.5373809 33.603917 3.263514 34.151529 3.1425781 34.742188 L 3.1445312 34.742188 L 2.03125 40.150391 A 1.50015 1.50015 0 0 0 3.9902344 41.869141 L 9.2265625 40.0625 C 9.8062777 39.86284 10.324514 39.514217 10.726562 39.052734 L 14.138672 35.132812 C 14.634258 35.748055 15.262413 36.266654 16.03125 36.595703 L 15.951172 36.558594 L 21.96875 39.566406 L 21.992188 39.578125 C 22.010517 39.586525 22.148687 39.661155 22.339844 39.765625 C 23.650695 40.483566 26.448753 42 30.5 42 C 33.543618 42 35.157335 41.418183 36.701172 40.929688 C 38.988947 40.206868 39.758042 40 43.5 40 L 44.5 40 A 1.50015 1.50015 0 1 0 44.5 37 L 43.5 37 C 39.617958 37 38.151053 37.327132 35.798828 38.070312 L 35.796875 38.070312 C 34.155259 38.589709 33.199298 39 30.5 39 C 27.171247 39 25.088446 37.850777 23.78125 37.134766 L 23.78125 37.132812 C 23.629714 37.049993 23.473869 36.955248 23.238281 36.847656 L 17.253906 33.853516 L 17.212891 33.837891 C 16.228577 33.41667 15.755627 32.333575 16.117188 31.324219 C 16.413965 30.500413 17.180402 30 18.001953 30 C 18.477313 30 19.580931 30.220936 20.955078 30.474609 C 23.808429 31.002704 24.995144 31 25.484375 31 C 27.329408 31 29.449362 30.280058 30.748047 28.332031 A 1.50015 1.50015 0 0 0 29.470703 25.982422 A 1.50015 1.50015 0 0 0 28.251953 26.667969 C 27.550638 27.719942 26.669342 28 25.484375 28 C 24.933606 28 24.224602 28.0293 21.501953 27.525391 L 21.5 27.525391 C 21.273702 27.483615 21.081592 27.445091 20.867188 27.402344 L 29.519531 17.458984 C 30.00983 17.749223 30.524691 18.080632 31.097656 18.498047 C 31.148886 18.539207 33.3572 20.313459 36.076172 22.138672 C 37.451326 23.061796 38.944338 23.989584 40.373047 24.710938 C 41.801756 25.432291 43.105254 26 44.5 26 A 1.50015 1.50015 0 1 0 44.5 23 C 44.123746 23 42.977228 22.664663 41.726562 22.033203 C 40.475898 21.401744 39.059892 20.52711 37.748047 19.646484 C 35.124356 17.885233 32.919922 16.115234 32.919922 16.115234 L 32.892578 16.09375 L 32.863281 16.072266 C 32.398147 15.733408 31.955434 15.440524 31.517578 15.164062 L 33.798828 12.542969 A 1.50015 1.50015 0 0 0 33.800781 12.542969 C 34.937356 11.235535 35.276247 9.3777172 34.626953 7.7851562 L 35.037109 7.3125 A 2.0002 2.0002 0 0 0 33.548828 3.9785156 z M 30.505859 7.9765625 C 30.929333 7.9824118 31.355641 8.1804598 31.679688 8.5957031 A 1.50015 1.50015 0 0 0 31.681641 8.5957031 C 32.098765 9.1296036 32.044928 9.9878741 31.535156 10.574219 L 28.197266 14.408203 A 1.50015 1.50015 0 0 0 27.890625 14.759766 L 17.173828 27.072266 C 15.440573 27.365921 13.922196 28.564982 13.294922 30.310547 L 13.292969 30.3125 C 13.112885 30.815233 13.040074 31.329505 13.025391 31.839844 L 8.4628906 37.082031 C 8.405113 37.147917 8.3317698 37.1984 8.25 37.226562 L 5.5 38.173828 L 6.0820312 35.345703 C 6.0989783 35.262933 6.1382402 35.185256 6.1953125 35.119141 L 6.1953125 35.117188 L 7.9101562 33.146484 A 1.50015 1.50015 0 0 0 8.28125 32.720703 L 22.888672 15.9375 A 1.50015 1.50015 0 0 0 23.152344 15.634766 L 29.349609 8.515625 A 1.50015 1.50015 0 0 0 29.351562 8.5136719 C 29.661747 8.1570623 30.082386 7.9707132 30.505859 7.9765625 z M 17.421875 17.650391 L 6.2753906 30.455078 C 6.0221688 30.410884 5.7757109 30.324774 5.5605469 30.146484 C 4.9477194 29.638885 4.9062095 28.484458 5.4960938 27.806641 L 12.515625 19.742188 C 13.038632 19.140802 13.725777 18.704675 14.492188 18.486328 L 17.421875 17.650391 z"/></svg>