<?xml version="1.0" encoding="iso-8859-1"?>
<!-- Generator: Adobe Illustrator 22.1.0, SVG Export Plug-In . SVG Version: 6.00 Build 0)  -->
<svg version="1.1" id="Layer_1_1_" xmlns="http://www.w3.org/2000/svg" xmlns:xlink="http://www.w3.org/1999/xlink" x="0px" y="0px"
	 viewBox="0 0 48 48" style="enable-background:new 0 0 48 48;" xml:space="preserve">
<path style="fill:none;stroke:#000000;stroke-width:3;stroke-miterlimit:10;" d="M36.5,40.5h-25c-2.209,0-4-1.791-4-4v-25
	c0-2.209,1.791-4,4-4h25c2.209,0,4,1.791,4,4v25C40.5,38.709,38.709,40.5,36.5,40.5z"/>
<circle style="fill:none;stroke:#000000;stroke-width:3;stroke-miterlimit:10;" cx="30.5" cy="17.5" r="3"/>
<path style="fill:none;stroke:#000000;stroke-width:3;stroke-linejoin:round;stroke-miterlimit:10;" d="M14.671,40.5l13.733-13.284
	c0.493-0.477,1.132-0.716,1.77-0.716c0.639,0,1.277,0.239,1.771,0.716l8.57,8.291"/>
<path style="fill:none;stroke:#000000;stroke-width:3;stroke-linejoin:round;stroke-miterlimit:10;" d="M25.312,30.207l-7.223-6.987
	c-0.493-0.478-1.132-0.72-1.771-0.72s-1.277,0.243-1.771,0.72L7.5,30.038"/>
</svg>