<svg xmlns="http://www.w3.org/2000/svg"  viewBox="0 0 48 48" width="144px" height="144px"><path d="M 41.5 12 A 2.5 2.5 0 0 0 41.5 17 A 2.5 2.5 0 0 0 41.5 12 z M 5.5 13 A 1.50015 1.50015 0 1 0 5.5 16 L 34.5 16 A 1.50015 1.50015 0 1 0 34.5 13 L 5.5 13 z M 41.5 22 A 2.5 2.5 0 0 0 41.5 27 A 2.5 2.5 0 0 0 41.5 22 z M 5.5 23 A 1.50015 1.50015 0 1 0 5.5 26 L 34.5 26 A 1.50015 1.50015 0 1 0 34.5 23 L 5.5 23 z M 41.5 32 A 2.5 2.5 0 0 0 41.5 37 A 2.5 2.5 0 0 0 41.5 32 z M 5.5 33 A 1.50015 1.50015 0 1 0 5.5 36 L 34.5 36 A 1.50015 1.50015 0 1 0 34.5 33 L 5.5 33 z"/></svg>