<svg xmlns="http://www.w3.org/2000/svg"  viewBox="0 0 48 48" width="144px" height="144px"><path d="M 29.439453 6.9824219 A 1.50015 1.50015 0 0 0 29.269531 7 L 18.5 7 A 1.50015 1.50015 0 1 0 18.5 10 L 27.310547 10 L 16.472656 38 L 8.5 38 A 1.50015 1.50015 0 1 0 8.5 41 L 17.251953 41 A 1.50015 1.50015 0 0 0 17.730469 41 L 29.5 41 A 1.50015 1.50015 0 1 0 29.5 38 L 19.689453 38 L 30.527344 10 L 37.5 10 A 1.50015 1.50015 0 1 0 37.5 7 L 29.748047 7 A 1.50015 1.50015 0 0 0 29.439453 6.9824219 z"/></svg>