<svg xmlns="http://www.w3.org/2000/svg"  viewBox="0 0 48 48" width="144px" height="144px"><path d="M 40.550781 7.1484375 C 39.748432 7.111727 38.929933 7.3480497 38.244141 7.9257812 L 25 19.087891 L 25 10.601562 C 25 8.4492698 22.997631 6.9802621 21.070312 7.1601562 C 20.427874 7.220121 19.792775 7.463596 19.244141 7.9257812 L 3.3476562 21.322266 A 1.50015 1.50015 0 0 0 3.3457031 21.324219 C 1.7102598 22.70434 1.711143 25.296481 3.3476562 26.675781 L 19.244141 40.074219 C 21.438677 41.92296 25 40.268161 25 37.398438 L 25 28.912109 L 38.244141 40.074219 C 40.438677 41.92296 44 40.268161 44 37.398438 L 44 10.601562 C 44 8.6286274 42.315949 7.2292005 40.550781 7.1484375 z M 21.478516 10.058594 C 21.574824 10.036889 21.664831 10.046118 21.742188 10.082031 C 21.896898 10.153858 22 10.335425 22 10.601562 L 22 37.398438 C 22 37.930712 21.585198 38.122556 21.177734 37.779297 L 5.28125 24.382812 C 5.0217663 24.164113 5.0206933 23.837067 5.28125 23.617188 L 21.177734 10.21875 C 21.2796 10.132935 21.382208 10.080298 21.478516 10.058594 z M 40.478516 10.058594 C 40.574824 10.036889 40.664831 10.046118 40.742188 10.082031 C 40.896898 10.153858 41 10.335425 41 10.601562 L 41 37.398438 C 41 37.930712 40.585198 38.122556 40.177734 37.779297 L 25 24.988281 L 25 23.011719 L 40.177734 10.21875 C 40.2796 10.132935 40.382208 10.080298 40.478516 10.058594 z"/></svg>