<svg xmlns="http://www.w3.org/2000/svg"  viewBox="0 0 48 48" width="144px" height="144px"><path d="M 12.5 9 C 6.7184991 9 2 13.718499 2 19.5 C 2 25.281501 6.7184991 30 12.5 30 L 16.5 30 A 1.50015 1.50015 0 1 0 16.5 27 L 12.5 27 C 8.3395009 27 5 23.660499 5 19.5 C 5 15.339501 8.3395009 12 12.5 12 L 17.5 12 A 1.50015 1.50015 0 1 0 17.5 9 L 12.5 9 z M 27.5 9 C 26.67 9 26 9.67 26 10.5 C 26 11.33 26.67 12 27.5 12 L 31.5 12 C 35.64 12 39 15.36 39 19.5 C 39 20.55 38.790625 21.539219 38.390625 22.449219 C 39.370625 22.709219 40.299687 23.090547 41.179688 23.560547 C 41.709688 22.320547 42 20.94 42 19.5 C 42 13.71 37.29 9 31.5 9 L 27.5 9 z M 11.5 18 A 1.50015 1.50015 0 1 0 11.5 21 L 32.5 21 A 1.50015 1.50015 0 1 0 32.5 18 L 11.5 18 z M 35 24 C 28.925 24 24 28.925 24 35 C 24 41.075 28.925 46 35 46 C 41.075 46 46 41.075 46 35 C 46 28.925 41.075 24 35 24 z M 35 27 C 35.552 27 36 27.448 36 28 L 36 34 L 42 34 C 42.552 34 43 34.448 43 35 C 43 35.552 42.552 36 42 36 L 36 36 L 36 42 C 36 42.552 35.552 43 35 43 C 34.448 43 34 42.552 34 42 L 34 36 L 28 36 C 27.448 36 27 35.552 27 35 C 27 34.448 27.448 34 28 34 L 34 34 L 34 28 C 34 27.448 34.448 27 35 27 z"/></svg>