<svg xmlns="http://www.w3.org/2000/svg"  viewBox="0 0 48 48" width="144px" height="144px"><path d="M 10.455078 5 A 1.50015 1.50015 0 0 0 10.025391 5.0761719 L 7.0253906 6.0761719 A 1.5008466 1.5008466 0 1 0 7.9746094 8.9238281 L 9 8.5820312 L 9 14.5 A 1.50015 1.50015 0 1 0 12 14.5 L 12 6.5 A 1.50015 1.50015 0 0 0 10.455078 5 z M 16.5 10 A 1.50015 1.50015 0 1 0 16.5 13 L 39.5 13 A 1.50015 1.50015 0 1 0 39.5 10 L 16.5 10 z M 19.476562 18.978516 A 1.50015 1.50015 0 0 0 18.201172 19.734375 C 17.41035 19.30607 16.524449 19 15.5 19 C 13.791667 19 12.320482 19.694633 11.378906 20.753906 C 10.437331 21.813179 10 23.166667 10 24.5 C 10 25.833333 10.437331 27.186821 11.378906 28.246094 C 12.320482 29.305367 13.791667 30 15.5 30 C 16.523383 30 17.408912 29.695065 18.199219 29.267578 A 1.50015 1.50015 0 0 0 21 28.5 L 21 24.5 L 21 20.5 A 1.50015 1.50015 0 0 0 19.476562 18.978516 z M 15.5 22 C 16.458333 22 16.987149 22.305367 17.378906 22.746094 C 17.770664 23.186821 18 23.833333 18 24.5 C 18 25.166667 17.770664 25.813179 17.378906 26.253906 C 16.987149 26.694633 16.458333 27 15.5 27 C 14.541667 27 14.012851 26.694633 13.621094 26.253906 C 13.229336 25.813179 13 25.166667 13 24.5 C 13 23.833333 13.229336 23.186821 13.621094 22.746094 C 14.012851 22.305367 14.541667 22 15.5 22 z M 25.5 23 A 1.50015 1.50015 0 1 0 25.5 26 L 39.5 26 A 1.50015 1.50015 0 1 0 39.5 23 L 25.5 23 z M 24.5 30 A 1.5 1.5 0 0 0 24.5 33 A 1.5 1.5 0 0 0 24.5 30 z M 24.476562 34.978516 A 1.50015 1.50015 0 0 0 23 36.5 L 23 41.5 A 1.50015 1.50015 0 1 0 26 41.5 L 26 36.5 A 1.50015 1.50015 0 0 0 24.476562 34.978516 z M 29.5 36 A 1.50015 1.50015 0 1 0 29.5 39 L 39.5 39 A 1.50015 1.50015 0 1 0 39.5 36 L 29.5 36 z"/></svg>