<svg xmlns="http://www.w3.org/2000/svg"  viewBox="0 0 50 50" width="500px" height="500px"><path d="M 16.90625 2 C 15.59375 2 14.039063 2.210938 12.75 2.53125 L 12 2.71875 L 12 10.8125 L 13.125 10.6875 C 14.058594 10.582031 14.539063 10.5 14.90625 10.5 C 16.5625 10.5 17.347656 10.703125 18.03125 11.3125 C 18.707031 11.914063 19.375 13.167969 20.25 15.34375 C 20.257813 15.363281 20.273438 15.355469 20.28125 15.375 L 21.03125 17.375 L 8.09375 46.59375 L 7.46875 48 L 18.0625 48 L 18.3125 47.375 L 25.40625 30.125 L 29.5625 41.34375 C 30.398438 43.695313 31.4375 45.4375 33 46.5625 C 34.5625 47.6875 36.535156 48.09375 39 48.09375 C 40.589844 48.09375 42.273438 47.941406 43.40625 47.5625 L 44.09375 47.3125 L 44.09375 39.125 L 42.84375 39.4375 C 42.558594 39.507813 41.867188 39.59375 41.5 39.59375 C 40.398438 39.59375 39.796875 39.445313 39.375 39.125 C 38.953125 38.804688 38.578125 38.1875 38.15625 36.96875 L 38.125 36.9375 L 29.625 14.34375 C 27.859375 9.65625 26.449219 6.617188 24.5 4.65625 C 22.550781 2.695313 20.085938 2 16.90625 2 Z M 16.90625 4 C 19.824219 4 21.511719 4.5 23.0625 6.0625 C 24.613281 7.625 26.015625 10.449219 27.75 15.0625 L 36.25 37.625 C 36.253906 37.636719 36.246094 37.644531 36.25 37.65625 C 36.726563 39.023438 37.292969 40.042969 38.1875 40.71875 C 39.089844 41.398438 40.203125 41.59375 41.5 41.59375 C 41.703125 41.59375 41.886719 41.550781 42.09375 41.53125 L 42.09375 45.75 C 41.273438 45.925781 40.152344 46.09375 39 46.09375 C 36.761719 46.09375 35.269531 45.738281 34.15625 44.9375 C 33.042969 44.136719 32.203125 42.804688 31.4375 40.65625 L 26.625 27.65625 L 26.40625 27 L 24.53125 27 L 24.28125 27.625 L 16.71875 46 L 10.53125 46 L 23 17.8125 L 23.1875 17.4375 L 23.03125 17.0625 L 22.125 14.65625 L 22.125 14.625 C 21.210938 12.339844 20.484375 10.828125 19.34375 9.8125 C 18.203125 8.796875 16.75 8.5 14.90625 8.5 C 14.625 8.5 14.277344 8.5625 14 8.59375 L 14 4.375 C 14.972656 4.1875 16.039063 4 16.90625 4 Z"/></svg>