<svg xmlns="http://www.w3.org/2000/svg"  viewBox="1 1 24 24" width="208px" height="208px"><path d="M 4 9.398438 C 4.5 8.101563 5 6.800781 5.699219 5.601563 C 6 4.898438 6.5 4 12.199219 4 C 16.5 4 20.199219 4 21 4 L 21 7 L 17.300781 7 C 16.300781 17.699219 16.699219 18 18.398438 18 C 19.5 18 20.300781 16.300781 20.300781 15.398438 L 21 15.398438 C 21 20.300781 18.800781 21 17.101563 21 C 15.199219 21 14 19.601563 14 17.5 C 14 14.800781 14.601563 11.699219 15.101563 7 L 11.5 7 C 10.5 17.699219 10.300781 21 7 21 C 6.199219 21 5 20.398438 5 18.898438 C 5 15.898438 8.601563 19.5 9.601563 7 C 9.601563 7 8.601563 7 8.101563 7 C 6.800781 7 5.800781 7.5 5 9 C 4.800781 9.398438 4.601563 9.601563 4 9.398438 Z"/></svg>