<?xml version="1.0" encoding="iso-8859-1"?>
<!-- Generator: Adobe Illustrator 24.2.1, SVG Export Plug-In . SVG Version: 6.00 Build 0)  -->
<svg version="1.1" id="Layer_1" xmlns="http://www.w3.org/2000/svg" xmlns:xlink="http://www.w3.org/1999/xlink" x="0px" y="0px"
	 viewBox="0 0 48 48" style="enable-background:new 0 0 48 48;" xml:space="preserve">
<path d="M32.809,23.411c0.307-3.888,0.769-8.432,1.341-13.561c0.122-1.098-0.668-2.087-1.766-2.209
	c-1.091-0.12-2.087,0.668-2.209,1.766c-0.731,6.56-1.238,11.739-1.52,15.871C29.9,24.423,31.304,23.791,32.809,23.411z"/>
<path style="fill:none;stroke:#000000;stroke-width:3;stroke-linecap:round;stroke-linejoin:round;stroke-miterlimit:10;" d="
	M6.5,15.5c0,0,2-7,11.256-7c3.302,0,23.744,0,23.744,0"/>
<path style="fill:none;stroke:#000000;stroke-width:4;stroke-linecap:round;stroke-miterlimit:10;" d="M21.163,9.628
	C18,38,16.182,41,10.768,41C8.332,41,6,39.349,6,39.349"/>
<path d="M36,25c-6.075,0-11,4.925-11,11s4.925,11,11,11s11-4.925,11-11S42.075,25,36,25z M43,37h-6v6c0,0.552-0.448,1-1,1
	s-1-0.448-1-1v-6h-6c-0.552,0-1-0.448-1-1s0.448-1,1-1h6v-6c0-0.552,0.448-1,1-1s1,0.448,1,1v6h6c0.552,0,1,0.448,1,1
	S43.552,37,43,37z"/>
</svg>