<svg xmlns="http://www.w3.org/2000/svg"  viewBox="0 0 48 48" width="144px" height="144px"><path d="M 30.443359 5.4433594 A 1.50015 1.50015 0 0 0 30.189453 5.46875 L 9.578125 8.9785156 C 6.9441591 9.4264131 5 11.729365 5 14.400391 L 5 31.5 A 1.50015 1.50015 0 1 0 8 31.5 L 8 14.400391 C 8 13.171416 8.8680441 12.141649 10.080078 11.935547 L 30.693359 8.4257812 A 1.50015 1.50015 0 0 0 30.443359 5.4433594 z M 36.443359 10.443359 A 1.50015 1.50015 0 0 0 36.189453 10.46875 L 15.578125 13.978516 C 12.944159 14.426413 11 16.729365 11 19.400391 L 11 36.5 A 1.50015 1.50015 0 1 0 14 36.5 L 14 19.400391 C 14 18.171416 14.868044 17.141649 16.080078 16.935547 L 36.693359 13.425781 A 1.50015 1.50015 0 0 0 36.443359 10.443359 z M 39.244141 16.007812 C 39.076047 16.01688 38.906393 16.035553 38.736328 16.064453 L 21.585938 18.976562 C 18.94996 19.425239 17 21.727314 17 24.400391 L 17 38.5 C 17 41.260045 19.54264 43.397944 22.263672 42.935547 L 39.414062 40.023438 C 42.050041 39.574761 44 37.272686 44 34.599609 L 44 20.5 C 44 17.912458 41.765545 15.871793 39.244141 16.007812 z M 39.589844 19 C 40.381696 19.035762 41 19.663539 41 20.5 L 41 34.599609 C 41 35.826532 40.130132 36.85713 38.912109 37.064453 L 21.761719 39.978516 A 1.50015 1.50015 0 0 0 21.759766 39.978516 C 20.808845 40.140118 20 39.455955 20 38.5 L 20 24.400391 C 20 23.173468 20.869868 22.14287 22.087891 21.935547 L 39.238281 19.021484 A 1.50015 1.50015 0 0 0 39.240234 19.021484 C 39.359099 19.001284 39.476722 18.994891 39.589844 19 z"/></svg>