<svg xmlns="http://www.w3.org/2000/svg"  viewBox="0 0 48 48" width="144px" height="144px"><path d="M 13.5 5 A 3.50035 3.50035 0 0 0 10 9.0625 L 10 38.927734 A 3.50035 3.50035 0 0 0 13.5 43 L 28.5 43 C 34.809806 43 40 37.809806 40 31.5 C 40 27.576304 37.869136 24.256752 34.833984 22.177734 C 36.094314 20.388971 37 18.333726 37 16 C 37 9.9663213 32.033679 5 26 5 L 13.5 5 z M 17 12 L 26 12 C 28.250321 12 30 13.749679 30 16 C 30 18.250321 28.250321 20 26 20 L 17.5 20 A 3.50035 3.50035 0 0 0 17 20.033203 L 17 12 z M 17 26.966797 A 3.50035 3.50035 0 0 0 17.255859 26.994141 A 3.50035 3.50035 0 0 0 17.5 27 L 26 27 L 28.5 27 C 31.026194 27 33 28.973806 33 31.5 C 33 34.026194 31.026194 36 28.5 36 L 17 36 L 17 26.966797 z"/></svg>