<svg xmlns="http://www.w3.org/2000/svg"  viewBox="0 0 48 48" width="144px" height="144px"><path d="M 11.5 6 C 9.5850452 6 8 7.5850452 8 9.5 L 8 38.5 C 8 40.414955 9.5850452 42 11.5 42 L 15.5 42 C 17.414955 42 19 40.414955 19 38.5 L 19 29 L 29 29 L 29 38.5 C 29 40.414955 30.585045 42 32.5 42 L 36.5 42 C 38.414955 42 40 40.414955 40 38.5 L 40 9.5 C 40 7.5850452 38.414955 6 36.5 6 L 32.5 6 C 30.585045 6 29 7.5850452 29 9.5 L 29 19 L 19 19 L 19 9.5 C 19 7.5850452 17.414955 6 15.5 6 L 11.5 6 z M 11.5 9 L 15.5 9 C 15.795045 9 16 9.2049548 16 9.5 L 16 20.5 A 1.50015 1.50015 0 0 0 17.5 22 L 30.5 22 A 1.50015 1.50015 0 0 0 32 20.5 L 32 9.5 C 32 9.2049548 32.204955 9 32.5 9 L 36.5 9 C 36.795045 9 37 9.2049548 37 9.5 L 37 38.5 C 37 38.795045 36.795045 39 36.5 39 L 32.5 39 C 32.204955 39 32 38.795045 32 38.5 L 32 27.5 A 1.50015 1.50015 0 0 0 30.5 26 L 17.5 26 A 1.50015 1.50015 0 0 0 16 27.5 L 16 38.5 C 16 38.795045 15.795045 39 15.5 39 L 11.5 39 C 11.204955 39 11 38.795045 11 38.5 L 11 9.5 C 11 9.2049548 11.204955 9 11.5 9 z"/></svg>