<svg xmlns="http://www.w3.org/2000/svg"  viewBox="0 0 48 48" width="144px" height="144px"><path d="M 21.5 3 C 11.276513 3 3 11.547519 3 22 C 3 27.500733 5.2914672 32.465735 8.9492188 35.935547 A 1.50015 1.50015 0 0 0 8.9492188 35.9375 C 10.240806 37.161891 11 38.77056 11 40.46875 L 11 43.5 A 1.50015 1.50015 0 1 0 14 43.5 L 14 40.46875 C 14 37.87494 12.838084 35.489327 11.013672 33.759766 C 7.9374232 30.841578 6 26.669267 6 22 C 6 13.122481 12.945487 6 21.5 6 C 29.559501 6 36.148318 12.335983 36.890625 20.492188 A 1.50015 1.50015 0 0 0 37.212891 21.292969 L 42.001953 27.279297 C 42.032683 27.317717 42.0471 27.270609 42 27.287109 L 38.003906 28.683594 A 1.50015 1.50015 0 0 0 37 30.099609 L 37 36.339844 C 37 36.99103 36.591759 37.55617 35.974609 37.761719 L 30.394531 39.621094 C 28.97059 40.09516 28 41.440453 28 42.941406 L 28 43.5 A 1.50015 1.50015 0 1 0 31 43.5 L 31 42.941406 C 31 42.72036 31.131738 42.538684 31.341797 42.46875 L 36.923828 40.607422 C 38.756678 39.996971 40 38.270658 40 36.339844 L 40 31.164062 L 42.992188 30.117188 C 44.903137 29.447671 45.610968 26.985878 44.345703 25.404297 L 39.783203 19.701172 C 38.671105 10.333191 30.955942 3 21.5 3 z M 22 11.009766 C 17.602923 11.010966 14 14.599911 14 19 C 14 21.285413 15.071345 23.263344 16.615234 24.720703 L 17.707031 30.1875 C 18.032466 31.814675 19.479481 33.001953 21.138672 33.001953 L 22.859375 33.001953 C 24.518566 33.001953 25.965581 31.814675 26.291016 30.1875 L 27.384766 24.720703 C 28.929527 23.263309 30 21.285413 30 19 C 30 14.599911 26.397077 11.010991 22 11.009766 z M 22 14.009766 C 24.780923 14.01054 27 16.222089 27 19 C 27 20.617813 26.240404 22.033322 25.054688 22.951172 A 1.50015 1.50015 0 0 0 24.501953 23.84375 L 24.269531 25 L 19.728516 25 L 19.498047 23.84375 A 1.50015 1.50015 0 0 0 18.945312 22.951172 C 17.760407 22.033352 17 20.617813 17 19 C 17 16.222089 19.219077 14.01054 22 14.009766 z M 20.328125 28 L 23.669922 28 L 23.349609 29.599609 C 23.301049 29.842435 23.106184 30.001953 22.859375 30.001953 L 21.138672 30.001953 C 20.891863 30.001953 20.697002 29.842435 20.648438 29.599609 L 20.328125 28 z"/></svg>