<svg xmlns="http://www.w3.org/2000/svg"  viewBox="0 0 48 48" width="144px" height="144px"><path d="M 11.5 6 C 8.4802259 6 6 8.4802259 6 11.5 L 6 16.5 A 1.50015 1.50015 0 1 0 9 16.5 L 9 11.5 C 9 10.101774 10.101774 9 11.5 9 L 36.5 9 C 37.898226 9 39 10.101774 39 11.5 L 39 21.878906 L 37.560547 20.439453 A 1.50015 1.50015 0 0 0 36.484375 19.984375 A 1.50015 1.50015 0 0 0 35.439453 22.560547 L 39.310547 26.431641 A 1.50015 1.50015 0 0 0 41.697266 26.423828 L 45.560547 22.560547 A 1.50015 1.50015 0 1 0 43.439453 20.439453 L 42 21.878906 L 42 11.5 C 42 8.4802259 39.519774 6 36.5 6 L 11.5 6 z M 16.5 16 A 1.50015 1.50015 0 1 0 16.5 19 L 31 19 A 1.50015 1.50015 0 1 0 31 16 L 16.5 16 z M 7.4765625 20.978516 A 1.50015 1.50015 0 0 0 6.3007812 21.578125 L 2.4394531 25.439453 A 1.50015 1.50015 0 1 0 4.5605469 27.560547 L 6 26.121094 L 6 36.5 C 6 39.519774 8.4802259 42 11.5 42 L 36.5 42 C 39.519774 42 42 39.519774 42 36.5 L 42 31.5 A 1.50015 1.50015 0 1 0 39 31.5 L 39 36.5 C 39 37.898226 37.898226 39 36.5 39 L 11.5 39 C 10.101774 39 9 37.898226 9 36.5 L 9 26.121094 L 10.439453 27.560547 A 1.50015 1.50015 0 1 0 12.560547 25.439453 L 8.6894531 21.568359 A 1.50015 1.50015 0 0 0 7.4765625 20.978516 z M 16.5 22.5 A 1.50015 1.50015 0 1 0 16.5 25.5 L 25 25.5 A 1.50015 1.50015 0 1 0 25 22.5 L 16.5 22.5 z M 16.5 29 A 1.50015 1.50015 0 1 0 16.5 32 L 31 32 A 1.50015 1.50015 0 1 0 31 29 L 16.5 29 z"/></svg>