<svg xmlns="http://www.w3.org/2000/svg"  viewBox="0 0 48 48" width="144px" height="144px"><path d="M38.5,6c-0.821,0-1.488,0.66-1.5,1.478C36.996,7.763,36.785,8,36.5,8h-25c-0.285,0-0.496-0.237-0.5-0.522	C10.988,6.66,10.321,6,9.5,6C8.671,6,8,6.671,8,7.5v7C8,15.329,8.671,16,9.5,16s1.5-0.671,1.5-1.5v-2c0-0.828,0.672-1.5,1.5-1.5H20	c1.105,0,2,0.895,2,2v24c0,1.105-0.895,2-2,2c0,0-2.414,0-2.5,0c-0.828,0-1.5,0.672-1.5,1.5s0.672,1.5,1.5,1.5	c0.086,0,12.914,0,13,0c0.828,0,1.5-0.672,1.5-1.5S31.328,39,30.5,39c-0.086,0-2.5,0-2.5,0c-1.105,0-2-0.895-2-2V13	c0-1.105,0.895-2,2-2h7.5c0.828,0,1.5,0.672,1.5,1.5v2c0,0.829,0.671,1.5,1.5,1.5s1.5-0.671,1.5-1.5v-7C40,6.671,39.329,6,38.5,6z"/></svg>