<svg xmlns="http://www.w3.org/2000/svg"  viewBox="0 0 48 48" width="144px" height="144px"><path d="M 12.5 6 C 9.468 6 7 8.468 7 11.5 L 7 36.5 C 7 39.532 9.467 42 12.5 42 L 24.056641 42 C 23.462641 41.073 22.979766 40.068 22.634766 39 L 12.5 39 C 11.122 39 10 37.879 10 36.5 L 10 31 L 22.632812 31 C 23.224812 29.168 24.217 27.521484 25.5 26.146484 L 25.5 20 L 38 20 L 38 22.361328 C 39.055 22.611328 40.062 22.984609 41 23.474609 L 41 11.5 C 41 8.468 38.533 6 35.5 6 L 12.5 6 z M 12.5 9 L 22.5 9 L 22.5 17 L 10 17 L 10 11.5 C 10 10.121 11.122 9 12.5 9 z M 25.5 9 L 35.5 9 C 36.878 9 38 10.121 38 11.5 L 38 17 L 25.5 17 L 25.5 9 z M 10 20 L 22.5 20 L 22.5 28 L 10 28 L 10 20 z M 35 24 C 28.925 24 24 28.925 24 35 C 24 41.075 28.925 46 35 46 C 41.075 46 46 41.075 46 35 C 46 28.925 41.075 24 35 24 z M 35 27 C 35.552 27 36 27.448 36 28 L 36 34 L 42 34 C 42.552 34 43 34.448 43 35 C 43 35.552 42.552 36 42 36 L 36 36 L 36 42 C 36 42.552 35.552 43 35 43 C 34.448 43 34 42.552 34 42 L 34 36 L 28 36 C 27.448 36 27 35.552 27 35 C 27 34.448 27.448 34 28 34 L 34 34 L 34 28 C 34 27.448 34.448 27 35 27 z"/></svg>