<svg xmlns="http://www.w3.org/2000/svg"  viewBox="0 0 48 48" width="144px" height="144px"><path d="M 37.476562 5.9785156 A 1.50015 1.50015 0 0 0 36 7.5 L 36 10.605469 C 32.815876 7.7471496 28.609324 6 24 6 C 14.0764 6 6 14.0764 6 24 C 6 32.998084 12.62758 40.480184 21.275391 41.794922 A 1.5003067 1.5003067 0 1 0 21.724609 38.828125 C 14.52042 37.732863 9 31.527916 9 24 C 9 15.6976 15.6976 9 24 9 C 27.934257 9 31.480462 10.527501 34.150391 13 L 30.5 13 A 1.50015 1.50015 0 1 0 30.5 16 L 37.486328 16 L 37.5 16 A 1.5002494 1.5002494 0 0 0 37.541016 15.998047 A 1.5002494 1.5002494 0 0 0 37.650391 15.992188 A 1.5002494 1.5002494 0 0 0 37.785156 15.972656 A 1.50015 1.50015 0 0 0 37.900391 15.945312 A 1.50015 1.50015 0 0 0 37.929688 15.9375 A 1.5002494 1.5002494 0 0 0 37.943359 15.933594 A 1.50015 1.50015 0 0 0 37.994141 15.914062 A 1.5002494 1.5002494 0 0 0 38.083984 15.880859 A 1.50015 1.50015 0 0 0 38.207031 15.822266 A 1.5002494 1.5002494 0 0 0 38.21875 15.816406 A 1.50015 1.50015 0 0 0 38.335938 15.746094 A 1.5002494 1.5002494 0 0 0 38.347656 15.738281 A 1.50015 1.50015 0 0 0 38.455078 15.65625 A 1.5002494 1.5002494 0 0 0 38.466797 15.646484 A 1.50015 1.50015 0 0 0 38.566406 15.554688 A 1.5002494 1.5002494 0 0 0 38.576172 15.544922 A 1.50015 1.50015 0 0 0 38.666016 15.443359 A 1.5002494 1.5002494 0 0 0 38.675781 15.431641 A 1.50015 1.50015 0 0 0 38.699219 15.398438 A 1.5002494 1.5002494 0 0 0 38.761719 15.310547 A 1.5002494 1.5002494 0 0 0 38.835938 15.179688 A 1.50015 1.50015 0 0 0 38.892578 15.056641 A 1.5002494 1.5002494 0 0 0 38.898438 15.042969 A 1.50015 1.50015 0 0 0 38.941406 14.914062 A 1.5002494 1.5002494 0 0 0 38.945312 14.900391 A 1.50015 1.50015 0 0 0 38.976562 14.767578 A 1.5002494 1.5002494 0 0 0 38.978516 14.753906 A 1.50015 1.50015 0 0 0 38.980469 14.742188 A 1.5002494 1.5002494 0 0 0 38.996094 14.605469 A 1.50015 1.50015 0 0 0 38.998047 14.572266 A 1.5002494 1.5002494 0 0 0 39 14.5 L 39 14.470703 L 39 7.5 A 1.50015 1.50015 0 0 0 37.476562 5.9785156 z M 30.021484 26 C 27.812484 26 26 27.791 26 30 L 26 42 C 26 44.211 27.794859 46.003 30.005859 46 L 42 45.982422 C 44.209 45.979422 45.997141 44.187516 45.994141 41.978516 L 46 30 C 45.997 27.793 44.207 26 42 26 L 30.021484 26 z M 42 30.982422 C 42.25575 30.982422 42.511531 31.079891 42.707031 31.275391 C 43.098031 31.666391 43.098031 32.298453 42.707031 32.689453 L 34.707031 40.689453 C 34.512031 40.884453 34.256 40.982422 34 40.982422 C 33.744 40.982422 33.487969 40.884453 33.292969 40.689453 L 29.292969 36.689453 C 28.901969 36.298453 28.901969 35.666391 29.292969 35.275391 C 29.683969 34.884391 30.316031 34.884391 30.707031 35.275391 L 34 38.568359 L 41.292969 31.275391 C 41.488469 31.079891 41.74425 30.982422 42 30.982422 z"/></svg>