<?xml version="1.0" encoding="iso-8859-1"?>
<!-- Generator: Adobe Illustrator 25.1.0, SVG Export Plug-In . SVG Version: 6.00 Build 0)  -->
<svg version="1.1" id="Layer_1" xmlns="http://www.w3.org/2000/svg" xmlns:xlink="http://www.w3.org/1999/xlink" x="0px" y="0px"
	 viewBox="0 0 48 48" style="enable-background:new 0 0 48 48;" xml:space="preserve">
<line style="fill:none;stroke:#000000;stroke-width:3;stroke-linejoin:round;stroke-miterlimit:10;" x1="38.5" y1="18.5" x2="25.5" y2="5.5"/>
<path fill="#cc0000" d="M35,24c-6.075,0-11,4.925-11,11c0,6.075,4.925,11,11,11s11-4.925,11-11C46,28.925,41.075,24,35,24z M42,36H28
	c-0.552,0-1-0.448-1-1s0.448-1,1-1h14c0.552,0,1,0.448,1,1S42.552,36,42,36z"/>
<g>
	<path d="M23.465,41H12.5c-0.827,0-1.5-0.673-1.5-1.5v-31C11,7.673,11.673,7,12.5,7H24v8.5c0,2.481,2.019,4.5,4.5,4.5H37v2.153
		c1.046,0.162,2.052,0.448,3,0.844V18.5c0-0.829-0.672-1.5-1.5-1.5h-10c-0.827,0-1.5-0.673-1.5-1.5v-10C27,4.671,26.328,4,25.5,4
		h-13C10.019,4,8,6.019,8,8.5v31c0,2.481,2.019,4.5,4.5,4.5h13.119C24.766,43.111,24.039,42.102,23.465,41z"/>
	<path d="M17.5,35H22v0c0-1.033,0.121-2.037,0.348-3H17.5c-0.828,0-1.5,0.671-1.5,1.5S16.672,35,17.5,35z"/>
	<path d="M16,26.5c0,0.829,0.672,1.5,1.5,1.5h6.543c0.725-1.132,1.62-2.144,2.649-3H17.5C16.672,25,16,25.671,16,26.5z"/>
</g>
</svg>