<svg xmlns="http://www.w3.org/2000/svg"  viewBox="0 0 48 48" width="144px" height="144px"><path d="M 19.814453 6.0097656 C 16.531949 6.0097656 13.249558 7.2582543 10.753906 9.7539062 C 5.7626026 14.74521 5.7626027 22.883696 10.753906 27.875 L 25.439453 42.560547 A 1.50015 1.50015 0 1 0 27.560547 40.439453 L 12.875 25.753906 C 9.0303039 21.90921 9.0303039 15.719696 12.875 11.875 C 16.719696 8.0303039 22.90921 8.0303039 26.753906 11.875 L 35.878906 21 L 25.5 21 A 1.50015 1.50015 0 1 0 25.5 24 L 39.277344 24 A 1.50015 1.50015 0 0 0 41 22.279297 L 41 8.5 A 1.50015 1.50015 0 0 0 39.476562 6.9785156 A 1.50015 1.50015 0 0 0 38 8.5 L 38 18.878906 L 28.875 9.7539062 C 26.379348 7.2582544 23.096957 6.0097656 19.814453 6.0097656 z"/></svg>