<svg xmlns="http://www.w3.org/2000/svg"  viewBox="0 0 48 48" width="144px" height="144px"><path d="M 24 5 C 23.38 5 22.824563 5.3829375 22.601562 5.9609375 L 9.1015625 40.960938 C 8.8035625 41.733938 9.1889375 42.601437 9.9609375 42.898438 C 10.734937 43.195437 11.601437 42.812062 11.898438 42.039062 L 15.001953 34 L 23.169922 34 C 23.330922 32.955 23.604 31.947 24 31 L 16.158203 31 L 24 10.667969 L 29.445312 24.785156 C 30.304313 24.282156 31.220406 23.865359 32.191406 23.568359 L 25.398438 5.9609375 C 25.175437 5.3829375 24.62 5 24 5 z M 36 25 C 29.925 25 25 29.925 25 36 C 25 42.075 29.925 47 36 47 C 42.075 47 47 42.075 47 36 C 47 29.925 42.075 25 36 25 z M 42 31 C 42.25575 31 42.511531 31.097469 42.707031 31.292969 C 43.098031 31.683969 43.098031 32.316031 42.707031 32.707031 L 34.707031 40.707031 C 34.512031 40.902031 34.256 41 34 41 C 33.744 41 33.487969 40.902031 33.292969 40.707031 L 29.292969 36.707031 C 28.901969 36.316031 28.901969 35.683969 29.292969 35.292969 C 29.683969 34.901969 30.316031 34.901969 30.707031 35.292969 L 34 38.585938 L 41.292969 31.292969 C 41.488469 31.097469 41.74425 31 42 31 z"/></svg>